M48
;Layer_Color=9474304
;FILE_FORMAT=2:5
INCH,TZ
;TYPE=PLATED
T3F00S00C0.02362
T4F00S00C0.02835
T5F00S00C0.02874
T6F00S00C0.03150
T7F00S00C0.03543
T8F00S00C0.03937
T10F00S00C0.04134
T11F00S00C0.04331
T12F00S00C0.04528
;TYPE=NON_PLATED
T13F00S00C0.12598
%
T03
X525197Y201575
Y206575
Y211575
Y216575
Y221575
Y226575
Y231575
Y236575
T04
X505118Y216929
X451181Y222047
X407874Y190394
X465748Y338228
X439567Y383465
T05
X433071Y383465
T06
X370866Y185756
X378740
X423730Y289655
Y297530
X445433Y364055
Y371929
X514961Y369291
Y377165
X527953
Y369291
Y353543
Y345669
X514961
Y353543
T07
X379095Y248780
Y258780
Y268779
Y278780
Y288779
Y298780
Y308780
X409094
Y298780
Y288779
Y278780
Y268779
Y258780
Y248780
Y318779
Y328780
Y338779
Y348780
Y358780
Y368779
Y378780
X379095
Y368779
Y358780
Y348780
Y338779
Y328780
Y318779
T08
X455118Y114173
X469291Y106693
Y124409
X494882
Y106693
X505118Y114173
X369685Y312205
X351969
Y337795
X369685
T10
X367323Y285551
Y295551
X450276Y349606
X460276
T11
X361811Y204016
Y214016
Y224016
Y234016
X422047Y221417
Y211417
X356693Y361496
Y371496
Y381496
Y391496
Y401496
T12
X492283Y343406
X504291Y343445
Y374350
X492283Y374311
T13
X470866Y268110
M30
