M48
;Layer_Color=9474304
;FILE_FORMAT=2:5
INCH,TZ
;TYPE=PLATED
T1F00S00C0.02362
T2F00S00C0.02559
T3F00S00C0.02756
T4F00S00C0.03150
T5F00S00C0.03543
T6F00S00C0.03937
T7F00S00C0.04331
T8F00S00C0.04528
;TYPE=NON_PLATED
T9F00S00C0.12598
%
T01
X568000Y204500
Y209500
Y214500
Y227500
Y232500
Y237500
Y251000
Y256000
Y261000
T02
X645000Y184000
Y194000
Y204000
Y214000
Y224000
Y234000
X585000
Y224000
Y214000
Y204000
Y194000
Y184000
T03
X539000Y174000
X531000Y235000
X580472Y291417
X598000Y301500
X603000Y281000
X622500Y328000
X617000Y338000
T04
X496500Y183000
Y190874
X545500Y269500
Y277374
X573000Y349500
Y357374
X639500Y356500
Y348626
X652492
Y356500
Y372248
Y380122
X639500
Y372248
T05
X500500Y243000
Y253000
Y263000
Y273000
Y283000
Y293000
Y303000
X530500
Y293000
Y283000
Y273000
Y263000
Y253000
Y243000
Y313000
Y323000
Y333000
Y343000
Y353000
Y363000
Y373000
X500500
Y363000
Y353000
Y343000
Y333000
Y323000
Y313000
T06
X581000Y114500
X592500Y109000
Y126716
X618090
Y109000
X631000Y114500
X578590Y370000
Y387717
X553000
Y370000
T07
X530000Y187000
X540000
Y205000
X530000
Y223500
X540000
X489000Y333000
Y343000
Y353000
Y363000
Y373000
X613500Y377500
Y367500
T08
X629095Y347854
Y378760
T09
X596748Y268437
M30
