G04*
G04 #@! TF.GenerationSoftware,Altium Limited,Altium Designer,20.2.3 (150)*
G04*
G04 Layer_Color=8388736*
%FSLAX25Y25*%
%MOIN*%
G70*
G04*
G04 #@! TF.SameCoordinates,D19B94BB-EBBE-4459-9884-BF99FFBE0BA1*
G04*
G04*
G04 #@! TF.FilePolarity,Negative*
G04*
G01*
G75*
%ADD16O,0.03937X0.02598*%
%ADD17R,0.03937X0.02598*%
%ADD18R,0.06496X0.04724*%
%ADD19R,0.04724X0.06496*%
%ADD20R,0.08000X0.08000*%
%ADD21R,0.05906X0.06102*%
%ADD22R,0.01575X0.07087*%
%ADD23R,0.01575X0.05118*%
%ADD24O,0.01575X0.05118*%
%ADD25R,0.04134X0.01772*%
%ADD26R,0.07087X0.05118*%
%ADD27R,0.04724X0.06102*%
%ADD28R,0.04724X0.06102*%
%ADD29R,0.06496X0.06496*%
%ADD30C,0.06496*%
%ADD31C,0.07874*%
%ADD32C,0.09068*%
%ADD33C,0.05906*%
%ADD34R,0.05906X0.05906*%
%ADD35C,0.06102*%
%ADD36R,0.06102X0.06102*%
%ADD37C,0.00800*%
%ADD38C,0.08674*%
%ADD39O,0.03543X0.06102*%
%ADD40O,0.04921X0.03740*%
G04:AMPARAMS|DCode=41|XSize=157.61mil|YSize=78.87mil|CornerRadius=21.72mil|HoleSize=0mil|Usage=FLASHONLY|Rotation=180.000|XOffset=0mil|YOffset=0mil|HoleType=Round|Shape=RoundedRectangle|*
%AMROUNDEDRECTD41*
21,1,0.15761,0.03543,0,0,180.0*
21,1,0.11417,0.07887,0,0,180.0*
1,1,0.04343,-0.05709,0.01772*
1,1,0.04343,0.05709,0.01772*
1,1,0.04343,0.05709,-0.01772*
1,1,0.04343,-0.05709,-0.01772*
%
%ADD41ROUNDEDRECTD41*%
%ADD42C,0.04331*%
%ADD43C,0.07099*%
%ADD44C,0.09055*%
%ADD45R,0.06102X0.06102*%
%ADD46C,0.04921*%
%ADD47C,0.05000*%
D16*
X458839Y371732D02*
D03*
Y364252D02*
D03*
X471102Y371732D02*
D03*
Y367992D02*
D03*
D17*
Y364252D02*
D03*
D18*
X419095Y187126D02*
D03*
Y198150D02*
D03*
X429055D02*
D03*
Y187126D02*
D03*
X440158Y281102D02*
D03*
Y292126D02*
D03*
X440236Y352913D02*
D03*
Y341890D02*
D03*
X439173Y187126D02*
D03*
Y198150D02*
D03*
X479370Y345669D02*
D03*
Y356693D02*
D03*
D19*
X458898Y397795D02*
D03*
X469921D02*
D03*
X407913Y170669D02*
D03*
X418937D02*
D03*
X399606Y392126D02*
D03*
X388583D02*
D03*
D20*
X439724Y108055D02*
D03*
Y118055D02*
D03*
Y128055D02*
D03*
Y138055D02*
D03*
Y148055D02*
D03*
Y158055D02*
D03*
X369724D02*
D03*
Y148055D02*
D03*
Y138055D02*
D03*
Y128055D02*
D03*
Y118055D02*
D03*
Y108055D02*
D03*
D21*
X431024Y405630D02*
D03*
X438898D02*
D03*
D22*
X429843Y395000D02*
D03*
X432402D02*
D03*
X434961D02*
D03*
X437520D02*
D03*
X440079D02*
D03*
D23*
X426181Y278346D02*
D03*
D24*
X423622D02*
D03*
X421063D02*
D03*
X418504D02*
D03*
X426181Y255512D02*
D03*
X423622D02*
D03*
X421063D02*
D03*
X418504D02*
D03*
D25*
X418307Y357283D02*
D03*
Y354724D02*
D03*
Y352165D02*
D03*
X425787D02*
D03*
Y357283D02*
D03*
D26*
X418504Y379528D02*
D03*
Y368504D02*
D03*
X440158Y235039D02*
D03*
Y224016D02*
D03*
X479370Y366890D02*
D03*
Y377913D02*
D03*
X440158Y252362D02*
D03*
Y263386D02*
D03*
X368957Y258602D02*
D03*
Y269626D02*
D03*
D27*
X423543Y405630D02*
D03*
D28*
X446378Y405630D02*
D03*
D29*
X504291Y343445D02*
D03*
X492283Y343406D02*
D03*
D30*
X504291Y374350D02*
D03*
X492283Y374311D02*
D03*
D31*
X351969Y312205D02*
D03*
Y337795D02*
D03*
X369685Y312205D02*
D03*
Y337795D02*
D03*
X469291Y124409D02*
D03*
X494882D02*
D03*
X469291Y106693D02*
D03*
X494882D02*
D03*
D32*
X361811Y204016D02*
D03*
Y214016D02*
D03*
Y224016D02*
D03*
Y234016D02*
D03*
X356693Y361496D02*
D03*
Y371496D02*
D03*
Y381496D02*
D03*
Y401496D02*
D03*
Y391496D02*
D03*
X422047Y221417D02*
D03*
D33*
X409094Y248780D02*
D03*
Y258780D02*
D03*
Y268779D02*
D03*
Y278780D02*
D03*
Y288779D02*
D03*
Y298780D02*
D03*
Y308780D02*
D03*
Y318779D02*
D03*
Y328780D02*
D03*
Y338779D02*
D03*
Y348780D02*
D03*
Y358780D02*
D03*
Y368779D02*
D03*
Y378780D02*
D03*
X379095Y248780D02*
D03*
Y258780D02*
D03*
Y268779D02*
D03*
Y278780D02*
D03*
Y288779D02*
D03*
Y298780D02*
D03*
Y308780D02*
D03*
Y318779D02*
D03*
Y328780D02*
D03*
Y338779D02*
D03*
Y348780D02*
D03*
Y358780D02*
D03*
Y368779D02*
D03*
D34*
Y378780D02*
D03*
D35*
X367323Y285551D02*
D03*
X450276Y349606D02*
D03*
D36*
X367323Y295551D02*
D03*
D37*
X470866Y268110D02*
D03*
D38*
X455118Y114173D02*
D03*
X505118D02*
D03*
D39*
X448740Y405630D02*
D03*
X421181D02*
D03*
D40*
X444803Y395000D02*
D03*
X425118D02*
D03*
D41*
X468504Y327165D02*
D03*
X507874D02*
D03*
D42*
X525197Y201575D02*
D03*
Y206575D02*
D03*
Y211575D02*
D03*
Y216575D02*
D03*
Y221575D02*
D03*
Y226575D02*
D03*
Y231575D02*
D03*
Y236575D02*
D03*
D43*
X423730Y289655D02*
D03*
Y297530D02*
D03*
X445433Y371929D02*
D03*
Y364055D02*
D03*
X514961Y345669D02*
D03*
Y353543D02*
D03*
Y369291D02*
D03*
Y377165D02*
D03*
X527953Y345669D02*
D03*
Y369291D02*
D03*
Y377165D02*
D03*
Y353543D02*
D03*
X378740Y185756D02*
D03*
X370866D02*
D03*
D44*
X422047Y211417D02*
D03*
D45*
X460276Y349606D02*
D03*
D46*
X465748Y338228D02*
D03*
X433071Y383465D02*
D03*
X439567D02*
D03*
D47*
X407874Y190394D02*
D03*
X505118Y216929D02*
D03*
X451181Y222047D02*
D03*
M02*
