G04*
G04 #@! TF.GenerationSoftware,Altium Limited,Altium Designer,20.2.3 (150)*
G04*
G04 Layer_Physical_Order=2*
G04 Layer_Color=16711680*
%FSLAX25Y25*%
%MOIN*%
G70*
G04*
G04 #@! TF.SameCoordinates,D19B94BB-EBBE-4459-9884-BF99FFBE0BA1*
G04*
G04*
G04 #@! TF.FilePolarity,Positive*
G04*
G01*
G75*
%ADD13C,0.00787*%
%ADD14C,0.01000*%
%ADD29R,0.06496X0.06496*%
%ADD30C,0.06496*%
%ADD31C,0.07874*%
%ADD33C,0.05906*%
%ADD34R,0.05906X0.05906*%
%ADD35C,0.06102*%
%ADD36R,0.06102X0.06102*%
%ADD39O,0.03543X0.06102*%
%ADD40O,0.04921X0.03740*%
%ADD45R,0.06102X0.06102*%
%ADD46C,0.04921*%
%ADD47C,0.05000*%
%ADD48C,0.08268*%
G04:AMPARAMS|DCode=49|XSize=149.61mil|YSize=70.87mil|CornerRadius=17.72mil|HoleSize=0mil|Usage=FLASHONLY|Rotation=180.000|XOffset=0mil|YOffset=0mil|HoleType=Round|Shape=RoundedRectangle|*
%AMROUNDEDRECTD49*
21,1,0.14961,0.03543,0,0,180.0*
21,1,0.11417,0.07087,0,0,180.0*
1,1,0.03543,-0.05709,0.01772*
1,1,0.03543,0.05709,0.01772*
1,1,0.03543,0.05709,-0.01772*
1,1,0.03543,-0.05709,-0.01772*
%
%ADD49ROUNDEDRECTD49*%
%ADD50C,0.03937*%
%ADD51C,0.06299*%
G36*
X532677Y100000D02*
X420463D01*
X420315Y100421D01*
X420300Y100500D01*
X420466Y100748D01*
X420527Y101055D01*
Y115055D01*
X420466Y115362D01*
X420292Y115623D01*
X420032Y115797D01*
X419724Y115858D01*
X398724D01*
X398417Y115797D01*
X398157Y115623D01*
X397983Y115362D01*
X397922Y115055D01*
Y101055D01*
X397983Y100748D01*
X398148Y100500D01*
X398134Y100421D01*
X397986Y100000D01*
X344488D01*
Y411417D01*
X532677D01*
Y100000D01*
D02*
G37*
%LPC*%
G36*
X448740Y409491D02*
X448072Y409403D01*
X447450Y409145D01*
X446915Y408735D01*
X446505Y408200D01*
X446247Y407578D01*
X446159Y406910D01*
Y404350D01*
X446247Y403682D01*
X446505Y403060D01*
X446915Y402525D01*
X447450Y402115D01*
X448072Y401857D01*
X448740Y401769D01*
X449408Y401857D01*
X450031Y402115D01*
X450565Y402525D01*
X450976Y403060D01*
X451233Y403682D01*
X451321Y404350D01*
Y406910D01*
X451233Y407578D01*
X450976Y408200D01*
X450565Y408735D01*
X450031Y409145D01*
X449408Y409403D01*
X448740Y409491D01*
D02*
G37*
G36*
X421181D02*
X420513Y409403D01*
X419890Y409145D01*
X419356Y408735D01*
X418946Y408200D01*
X418688Y407578D01*
X418600Y406910D01*
Y404350D01*
X418688Y403682D01*
X418946Y403060D01*
X419356Y402525D01*
X419890Y402115D01*
X420513Y401857D01*
X421181Y401769D01*
X421849Y401857D01*
X422472Y402115D01*
X423006Y402525D01*
X423416Y403060D01*
X423674Y403682D01*
X423762Y404350D01*
Y406910D01*
X423674Y407578D01*
X423416Y408200D01*
X423006Y408735D01*
X422472Y409145D01*
X421849Y409403D01*
X421181Y409491D01*
D02*
G37*
G36*
X445394Y397680D02*
X444213D01*
X443519Y397589D01*
X442872Y397321D01*
X442317Y396895D01*
X441891Y396340D01*
X441623Y395694D01*
X441532Y395000D01*
X441623Y394306D01*
X441891Y393660D01*
X442317Y393105D01*
X442872Y392679D01*
X443519Y392411D01*
X444213Y392320D01*
X445394D01*
X446087Y392411D01*
X446734Y392679D01*
X447289Y393105D01*
X447715Y393660D01*
X447983Y394306D01*
X448074Y395000D01*
X447983Y395694D01*
X447715Y396340D01*
X447289Y396895D01*
X446734Y397321D01*
X446087Y397589D01*
X445394Y397680D01*
D02*
G37*
G36*
X425709D02*
X424528D01*
X423834Y397589D01*
X423187Y397321D01*
X422632Y396895D01*
X422206Y396340D01*
X421939Y395694D01*
X421847Y395000D01*
X421939Y394306D01*
X422206Y393660D01*
X422632Y393105D01*
X423187Y392679D01*
X423834Y392411D01*
X424528Y392320D01*
X425709D01*
X426402Y392411D01*
X427049Y392679D01*
X427604Y393105D01*
X428030Y393660D01*
X428298Y394306D01*
X428389Y395000D01*
X428298Y395694D01*
X428030Y396340D01*
X427604Y396895D01*
X427049Y397321D01*
X426402Y397589D01*
X425709Y397680D01*
D02*
G37*
G36*
X356693Y406460D02*
X355408Y406291D01*
X354211Y405795D01*
X353183Y405006D01*
X352394Y403978D01*
X351898Y402781D01*
X351729Y401496D01*
X351898Y400211D01*
X352394Y399014D01*
X353183Y397986D01*
X354211Y397197D01*
X355285Y396753D01*
X355285Y396752D01*
Y396240D01*
X355285Y396239D01*
X354211Y395795D01*
X353183Y395006D01*
X352394Y393978D01*
X351898Y392781D01*
X351729Y391496D01*
X351898Y390211D01*
X352394Y389014D01*
X353183Y387986D01*
X354211Y387197D01*
X355285Y386753D01*
X355285Y386752D01*
Y386240D01*
X355285Y386239D01*
X354211Y385795D01*
X353183Y385006D01*
X352394Y383978D01*
X351898Y382781D01*
X351781Y381890D01*
X356693D01*
X361605D01*
X361488Y382781D01*
X360992Y383978D01*
X360203Y385006D01*
X359175Y385795D01*
X358101Y386239D01*
X358101Y386240D01*
Y386752D01*
X358101Y386753D01*
X359175Y387197D01*
X360203Y387986D01*
X360992Y389014D01*
X361488Y390211D01*
X361657Y391496D01*
X361488Y392781D01*
X360992Y393978D01*
X360203Y395006D01*
X359175Y395795D01*
X358101Y396239D01*
X358101Y396240D01*
Y396752D01*
X358101Y396753D01*
X359175Y397197D01*
X360203Y397986D01*
X360992Y399014D01*
X361488Y400211D01*
X361657Y401496D01*
X361488Y402781D01*
X360992Y403978D01*
X360203Y405006D01*
X359175Y405795D01*
X357978Y406291D01*
X356693Y406460D01*
D02*
G37*
G36*
X435630Y388714D02*
X431378D01*
X430876Y388614D01*
X430450Y388330D01*
X427891Y385771D01*
X427606Y385345D01*
X427506Y384842D01*
Y338811D01*
X410812Y322117D01*
X410071Y322423D01*
X409094Y322552D01*
X408118Y322423D01*
X407208Y322046D01*
X406427Y321447D01*
X405828Y320666D01*
X405451Y319756D01*
X405322Y318779D01*
X405451Y317803D01*
X405828Y316893D01*
X406427Y316112D01*
X407208Y315512D01*
X408118Y315136D01*
X409094Y315007D01*
X410071Y315136D01*
X410981Y315512D01*
X411762Y316112D01*
X412361Y316893D01*
X412738Y317803D01*
X412867Y318779D01*
X412738Y319756D01*
X412570Y320163D01*
X429747Y337340D01*
X430032Y337765D01*
X430131Y338268D01*
Y381138D01*
X430631Y381308D01*
X430754Y381148D01*
X431433Y380627D01*
X431758Y380493D01*
Y327985D01*
X413866Y310092D01*
X412599D01*
X412361Y310666D01*
X411762Y311447D01*
X410981Y312047D01*
X410071Y312423D01*
X409094Y312552D01*
X408118Y312423D01*
X407208Y312047D01*
X406427Y311447D01*
X405828Y310666D01*
X405451Y309756D01*
X405322Y308780D01*
X405451Y307803D01*
X405828Y306893D01*
X406427Y306112D01*
X407208Y305512D01*
X407586Y305356D01*
X407487Y304856D01*
X405905D01*
X405403Y304756D01*
X404977Y304471D01*
X400647Y300141D01*
X400362Y299715D01*
X400262Y299213D01*
Y256299D01*
X400362Y255797D01*
X400647Y255371D01*
X405688Y250329D01*
X405451Y249756D01*
X405322Y248780D01*
X405451Y247803D01*
X405828Y246893D01*
X406427Y246112D01*
X407208Y245513D01*
X408118Y245136D01*
X409094Y245007D01*
X410071Y245136D01*
X410981Y245513D01*
X411762Y246112D01*
X412361Y246893D01*
X412738Y247803D01*
X412867Y248780D01*
X412738Y249756D01*
X412361Y250666D01*
X411762Y251447D01*
X410981Y252046D01*
X410071Y252423D01*
X409094Y252552D01*
X408118Y252423D01*
X407545Y252186D01*
X402887Y256843D01*
Y266593D01*
X403387Y266642D01*
X403429Y266433D01*
X403714Y266007D01*
X407155Y262566D01*
X407180Y262319D01*
X407166Y262163D01*
X407101Y261964D01*
X406427Y261447D01*
X405828Y260666D01*
X405451Y259756D01*
X405322Y258780D01*
X405451Y257803D01*
X405828Y256893D01*
X406427Y256112D01*
X407208Y255512D01*
X408118Y255136D01*
X409094Y255007D01*
X410071Y255136D01*
X410981Y255512D01*
X411762Y256112D01*
X412361Y256893D01*
X412738Y257803D01*
X412867Y258780D01*
X412738Y259756D01*
X412361Y260666D01*
X411762Y261447D01*
X411598Y261573D01*
X411767Y262073D01*
X454968D01*
X491395Y225647D01*
X491820Y225362D01*
X492323Y225262D01*
X522758D01*
X522790Y225185D01*
X523231Y224609D01*
X523524Y224384D01*
Y223765D01*
X523231Y223540D01*
X522790Y222965D01*
X522512Y222294D01*
X522469Y221969D01*
X525197D01*
X527925D01*
X527882Y222294D01*
X527604Y222965D01*
X527162Y223540D01*
X526869Y223765D01*
Y224384D01*
X527162Y224609D01*
X527604Y225185D01*
X527882Y225855D01*
X527977Y226575D01*
X527882Y227294D01*
X527604Y227965D01*
X527162Y228540D01*
X526869Y228765D01*
Y229384D01*
X527162Y229609D01*
X527604Y230185D01*
X527882Y230855D01*
X527977Y231575D01*
X527882Y232294D01*
X527604Y232965D01*
X527162Y233540D01*
X526869Y233765D01*
Y234384D01*
X527162Y234609D01*
X527604Y235185D01*
X527882Y235855D01*
X527925Y236181D01*
X525197D01*
X522469D01*
X522512Y235855D01*
X522790Y235185D01*
X523231Y234609D01*
X523524Y234384D01*
Y233765D01*
X523231Y233540D01*
X522790Y232965D01*
X522758Y232887D01*
X496134D01*
X468120Y260902D01*
X468134Y261011D01*
X468682Y261367D01*
X469477Y261126D01*
X470866Y260989D01*
X472255Y261126D01*
X473591Y261531D01*
X474822Y262189D01*
X475901Y263075D01*
X476787Y264154D01*
X477445Y265385D01*
X477850Y266721D01*
X477987Y268110D01*
X477850Y269499D01*
X477445Y270835D01*
X476787Y272066D01*
X475901Y273146D01*
X474822Y274031D01*
X473591Y274689D01*
X472255Y275094D01*
X470866Y275231D01*
X469477Y275094D01*
X468141Y274689D01*
X466910Y274031D01*
X465831Y273146D01*
X464945Y272066D01*
X464287Y270835D01*
X463882Y269499D01*
X463745Y268110D01*
X463882Y266721D01*
X464123Y265926D01*
X463767Y265378D01*
X463658Y265364D01*
X459314Y269708D01*
X458888Y269992D01*
X458386Y270092D01*
X412599D01*
X412361Y270666D01*
X411762Y271447D01*
X410981Y272046D01*
X410071Y272423D01*
X409094Y272552D01*
X408118Y272423D01*
X407208Y272046D01*
X406454Y271468D01*
X406277Y271498D01*
X405954Y271607D01*
Y273783D01*
X407545Y275373D01*
X408118Y275136D01*
X409094Y275007D01*
X410071Y275136D01*
X410981Y275513D01*
X411762Y276112D01*
X412361Y276893D01*
X412738Y277803D01*
X412867Y278780D01*
X412738Y279756D01*
X412361Y280666D01*
X411762Y281447D01*
X410981Y282047D01*
X410071Y282423D01*
X409094Y282552D01*
X408118Y282423D01*
X407208Y282047D01*
X406427Y281447D01*
X405828Y280666D01*
X405451Y279756D01*
X405322Y278780D01*
X405451Y277803D01*
X405688Y277230D01*
X403714Y275255D01*
X403429Y274829D01*
X403387Y274620D01*
X402887Y274669D01*
Y298669D01*
X406188Y301969D01*
X406263Y301952D01*
X406377Y301601D01*
X406396Y301407D01*
X405828Y300666D01*
X405451Y299756D01*
X405322Y298780D01*
X405451Y297803D01*
X405828Y296893D01*
X406427Y296112D01*
X407208Y295513D01*
X408118Y295136D01*
X409094Y295007D01*
X410071Y295136D01*
X410981Y295513D01*
X411762Y296112D01*
X412361Y296893D01*
X412738Y297803D01*
X412867Y298780D01*
X412738Y299756D01*
X412361Y300666D01*
X411762Y301447D01*
X411392Y301731D01*
X411562Y302231D01*
X414173D01*
X414676Y302331D01*
X415101Y302615D01*
X449402Y336916D01*
X462776D01*
X462911Y336590D01*
X463432Y335912D01*
X464110Y335391D01*
X464900Y335064D01*
X465748Y334952D01*
X466596Y335064D01*
X467386Y335391D01*
X468064Y335912D01*
X468585Y336590D01*
X468913Y337380D01*
X469024Y338228D01*
X468913Y339076D01*
X468585Y339866D01*
X468064Y340545D01*
X467386Y341066D01*
X466596Y341393D01*
X465748Y341504D01*
X464900Y341393D01*
X464110Y341066D01*
X463432Y340545D01*
X462911Y339866D01*
X462776Y339541D01*
X448858D01*
X448356Y339441D01*
X447930Y339157D01*
X413629Y304856D01*
X410702D01*
X410603Y305356D01*
X410981Y305512D01*
X411762Y306112D01*
X412361Y306893D01*
X412599Y307467D01*
X414409D01*
X414912Y307567D01*
X415338Y307851D01*
X433999Y326513D01*
X434284Y326939D01*
X434383Y327441D01*
Y380493D01*
X434709Y380627D01*
X435387Y381148D01*
X435908Y381826D01*
X436048Y382165D01*
X436589D01*
X436730Y381826D01*
X437250Y381148D01*
X437929Y380627D01*
X438719Y380300D01*
X439567Y380188D01*
X440415Y380300D01*
X441205Y380627D01*
X441883Y381148D01*
X442404Y381826D01*
X442731Y382617D01*
X442843Y383465D01*
X442731Y384313D01*
X442404Y385103D01*
X441883Y385781D01*
X441205Y386302D01*
X440415Y386629D01*
X439567Y386741D01*
X438719Y386629D01*
X438394Y386494D01*
X436558Y388330D01*
X436132Y388614D01*
X435630Y388714D01*
D02*
G37*
G36*
X382835Y382520D02*
X375354D01*
Y380053D01*
X374803D01*
X374301Y379953D01*
X373875Y379668D01*
X368757Y374550D01*
X368472Y374124D01*
X368372Y373622D01*
Y342365D01*
X367302Y341922D01*
X366316Y341165D01*
X365558Y340178D01*
X365082Y339029D01*
X364920Y337795D01*
X365082Y336562D01*
X365558Y335413D01*
X366316Y334426D01*
X367302Y333668D01*
X368372Y333225D01*
Y316775D01*
X367302Y316332D01*
X366316Y315574D01*
X365558Y314587D01*
X365082Y313438D01*
X364920Y312205D01*
X365082Y310971D01*
X365558Y309822D01*
X366316Y308835D01*
X367302Y308078D01*
X368452Y307602D01*
X369685Y307439D01*
X370918Y307602D01*
X372068Y308078D01*
X373055Y308835D01*
X373812Y309822D01*
X374288Y310971D01*
X374450Y312205D01*
X374288Y313438D01*
X373812Y314587D01*
X373055Y315574D01*
X372068Y316332D01*
X370998Y316775D01*
Y333225D01*
X372068Y333668D01*
X373055Y334426D01*
X373812Y335413D01*
X374288Y336562D01*
X374450Y337795D01*
X374288Y339029D01*
X373812Y340178D01*
X373055Y341165D01*
X372068Y341922D01*
X370998Y342365D01*
Y373078D01*
X374854Y376935D01*
X375354Y376728D01*
Y375039D01*
X382835D01*
Y382520D01*
D02*
G37*
G36*
X409094Y382552D02*
X408118Y382423D01*
X407208Y382047D01*
X406427Y381447D01*
X405828Y380666D01*
X405451Y379756D01*
X405322Y378780D01*
X405451Y377803D01*
X405688Y377230D01*
X388442Y359983D01*
X388157Y359557D01*
X388057Y359055D01*
Y268654D01*
X381246Y261843D01*
X380981Y262047D01*
X380071Y262423D01*
X379095Y262552D01*
X378118Y262423D01*
X377208Y262047D01*
X376427Y261447D01*
X375828Y260666D01*
X375451Y259756D01*
X375322Y258780D01*
X375451Y257803D01*
X375828Y256893D01*
X376427Y256112D01*
X377208Y255512D01*
X378118Y255136D01*
X379095Y255007D01*
X380071Y255136D01*
X380981Y255512D01*
X381762Y256112D01*
X382362Y256893D01*
X382738Y257803D01*
X382867Y258780D01*
X382754Y259638D01*
X390298Y267182D01*
X390583Y267608D01*
X390683Y268110D01*
Y358511D01*
X407545Y375373D01*
X408118Y375136D01*
X409094Y375007D01*
X410071Y375136D01*
X410981Y375513D01*
X411762Y376112D01*
X412361Y376893D01*
X412738Y377803D01*
X412867Y378780D01*
X412738Y379756D01*
X412361Y380666D01*
X411762Y381447D01*
X410981Y382047D01*
X410071Y382423D01*
X409094Y382552D01*
D02*
G37*
G36*
X445827Y375848D02*
Y372323D01*
X449352D01*
X449269Y372957D01*
X448872Y373915D01*
X448241Y374737D01*
X447418Y375368D01*
X446461Y375765D01*
X445827Y375848D01*
D02*
G37*
G36*
X445039D02*
X444405Y375765D01*
X443448Y375368D01*
X442625Y374737D01*
X441994Y373915D01*
X441597Y372957D01*
X441514Y372323D01*
X445039D01*
Y375848D01*
D02*
G37*
G36*
X504291Y378421D02*
X503238Y378282D01*
X502256Y377875D01*
X501413Y377228D01*
X500766Y376385D01*
X500360Y375404D01*
X500221Y374350D01*
X500360Y373297D01*
X500766Y372315D01*
X501413Y371472D01*
X502256Y370826D01*
X503238Y370419D01*
X504291Y370280D01*
X505345Y370419D01*
X506326Y370826D01*
X507169Y371472D01*
X507816Y372315D01*
X508223Y373297D01*
X508362Y374350D01*
X508223Y375404D01*
X507816Y376385D01*
X507169Y377228D01*
X506326Y377875D01*
X505345Y378282D01*
X504291Y378421D01*
D02*
G37*
G36*
X492283Y378381D02*
X491230Y378243D01*
X490248Y377836D01*
X489405Y377189D01*
X488759Y376346D01*
X488352Y375364D01*
X488213Y374311D01*
X488352Y373258D01*
X488759Y372276D01*
X489405Y371433D01*
X490248Y370786D01*
X491230Y370379D01*
X492283Y370241D01*
X493337Y370379D01*
X494319Y370786D01*
X495162Y371433D01*
X495808Y372276D01*
X496215Y373258D01*
X496354Y374311D01*
X496215Y375364D01*
X495808Y376346D01*
X495162Y377189D01*
X494319Y377836D01*
X493337Y378243D01*
X492283Y378381D01*
D02*
G37*
G36*
X409488Y372500D02*
Y369173D01*
X412815D01*
X412738Y369756D01*
X412361Y370666D01*
X411762Y371447D01*
X410981Y372046D01*
X410071Y372423D01*
X409488Y372500D01*
D02*
G37*
G36*
X408701D02*
X408118Y372423D01*
X407208Y372046D01*
X406427Y371447D01*
X405828Y370666D01*
X405451Y369756D01*
X405374Y369173D01*
X408701D01*
Y372500D01*
D02*
G37*
G36*
X527953Y381136D02*
X526925Y381001D01*
X525967Y380604D01*
X525145Y379973D01*
X524514Y379151D01*
X524117Y378193D01*
X523982Y377165D01*
X524117Y376138D01*
X524514Y375180D01*
X525145Y374358D01*
X525967Y373726D01*
X526516Y373499D01*
Y372958D01*
X525967Y372730D01*
X525145Y372099D01*
X524514Y371277D01*
X524117Y370319D01*
X523982Y369291D01*
X524117Y368264D01*
X524514Y367306D01*
X525145Y366483D01*
X525967Y365852D01*
X526925Y365456D01*
X527953Y365320D01*
X528980Y365456D01*
X529938Y365852D01*
X530761Y366483D01*
X531392Y367306D01*
X531788Y368264D01*
X531924Y369291D01*
X531788Y370319D01*
X531392Y371277D01*
X530761Y372099D01*
X529938Y372730D01*
X529389Y372958D01*
Y373499D01*
X529938Y373726D01*
X530761Y374358D01*
X531392Y375180D01*
X531788Y376138D01*
X531924Y377165D01*
X531788Y378193D01*
X531392Y379151D01*
X530761Y379973D01*
X529938Y380604D01*
X528980Y381001D01*
X527953Y381136D01*
D02*
G37*
G36*
X514961D02*
X513933Y381001D01*
X512975Y380604D01*
X512153Y379973D01*
X511522Y379151D01*
X511125Y378193D01*
X510990Y377165D01*
X511125Y376138D01*
X511522Y375180D01*
X512153Y374358D01*
X512975Y373726D01*
X513524Y373499D01*
Y372958D01*
X512975Y372730D01*
X512153Y372099D01*
X511522Y371277D01*
X511125Y370319D01*
X510990Y369291D01*
X511125Y368264D01*
X511522Y367306D01*
X512153Y366483D01*
X512975Y365852D01*
X513933Y365456D01*
X514961Y365320D01*
X515988Y365456D01*
X516946Y365852D01*
X517768Y366483D01*
X518400Y367306D01*
X518796Y368264D01*
X518932Y369291D01*
X518796Y370319D01*
X518400Y371277D01*
X517768Y372099D01*
X516946Y372730D01*
X516397Y372958D01*
Y373499D01*
X516946Y373726D01*
X517768Y374358D01*
X518400Y375180D01*
X518796Y376138D01*
X518932Y377165D01*
X518796Y378193D01*
X518400Y379151D01*
X517768Y379973D01*
X516946Y380604D01*
X515988Y381001D01*
X514961Y381136D01*
D02*
G37*
G36*
X412815Y368386D02*
X409488D01*
Y365059D01*
X410071Y365136D01*
X410981Y365512D01*
X411762Y366112D01*
X412361Y366893D01*
X412738Y367803D01*
X412815Y368386D01*
D02*
G37*
G36*
X408701D02*
X405374D01*
X405451Y367803D01*
X405828Y366893D01*
X406427Y366112D01*
X407208Y365512D01*
X408118Y365136D01*
X408701Y365059D01*
Y368386D01*
D02*
G37*
G36*
X379095Y372552D02*
X378118Y372423D01*
X377208Y372046D01*
X376427Y371447D01*
X375828Y370666D01*
X375451Y369756D01*
X375322Y368779D01*
X375451Y367803D01*
X375828Y366893D01*
X376427Y366112D01*
X377208Y365512D01*
X378118Y365136D01*
X379095Y365007D01*
X380071Y365136D01*
X380981Y365512D01*
X381762Y366112D01*
X382362Y366893D01*
X382738Y367803D01*
X382867Y368779D01*
X382738Y369756D01*
X382362Y370666D01*
X381762Y371447D01*
X380981Y372046D01*
X380071Y372423D01*
X379095Y372552D01*
D02*
G37*
G36*
X449352Y371535D02*
X445433D01*
X441514D01*
X441597Y370901D01*
X441994Y369944D01*
X442625Y369121D01*
X443448Y368490D01*
X443997Y368263D01*
Y367722D01*
X443448Y367494D01*
X442625Y366863D01*
X441994Y366041D01*
X441597Y365083D01*
X441462Y364055D01*
X441597Y363027D01*
X441994Y362070D01*
X442625Y361247D01*
X443448Y360616D01*
X444405Y360220D01*
X445433Y360084D01*
X446461Y360220D01*
X447418Y360616D01*
X448241Y361247D01*
X448872Y362070D01*
X449269Y363027D01*
X449404Y364055D01*
X449269Y365083D01*
X448872Y366041D01*
X448241Y366863D01*
X447418Y367494D01*
X446869Y367722D01*
Y368263D01*
X447418Y368490D01*
X448241Y369121D01*
X448872Y369944D01*
X449269Y370901D01*
X449352Y371535D01*
D02*
G37*
G36*
X361605Y381102D02*
X356693D01*
X351781D01*
X351898Y380211D01*
X352394Y379014D01*
X353183Y377986D01*
X354211Y377197D01*
X355285Y376753D01*
X355285Y376752D01*
Y376240D01*
X355285Y376239D01*
X354211Y375795D01*
X353183Y375006D01*
X352394Y373978D01*
X351898Y372781D01*
X351729Y371496D01*
X351898Y370211D01*
X352394Y369014D01*
X353183Y367986D01*
X354211Y367197D01*
X355285Y366753D01*
X355285Y366752D01*
Y366240D01*
X355285Y366239D01*
X354211Y365795D01*
X353183Y365006D01*
X352394Y363978D01*
X351898Y362781D01*
X351729Y361496D01*
X351898Y360211D01*
X352394Y359014D01*
X353183Y357986D01*
X354211Y357197D01*
X355408Y356701D01*
X356693Y356532D01*
X357978Y356701D01*
X359175Y357197D01*
X360203Y357986D01*
X360992Y359014D01*
X361488Y360211D01*
X361657Y361496D01*
X361488Y362781D01*
X360992Y363978D01*
X360203Y365006D01*
X359175Y365795D01*
X358101Y366239D01*
X358101Y366240D01*
Y366752D01*
X358101Y366753D01*
X359175Y367197D01*
X360203Y367986D01*
X360992Y369014D01*
X361488Y370211D01*
X361657Y371496D01*
X361488Y372781D01*
X360992Y373978D01*
X360203Y375006D01*
X359175Y375795D01*
X358101Y376239D01*
X358101Y376240D01*
Y376752D01*
X358101Y376753D01*
X359175Y377197D01*
X360203Y377986D01*
X360992Y379014D01*
X361488Y380211D01*
X361605Y381102D01*
D02*
G37*
G36*
X409094Y362552D02*
X408118Y362423D01*
X407208Y362047D01*
X406427Y361447D01*
X405828Y360666D01*
X405451Y359756D01*
X405322Y358780D01*
X405451Y357803D01*
X405828Y356893D01*
X406427Y356112D01*
X407208Y355512D01*
X408118Y355136D01*
X409094Y355007D01*
X410071Y355136D01*
X410981Y355512D01*
X411762Y356112D01*
X412361Y356893D01*
X412738Y357803D01*
X412867Y358780D01*
X412738Y359756D01*
X412361Y360666D01*
X411762Y361447D01*
X410981Y362047D01*
X410071Y362423D01*
X409094Y362552D01*
D02*
G37*
G36*
X379095D02*
X378118Y362423D01*
X377208Y362047D01*
X376427Y361447D01*
X375828Y360666D01*
X375451Y359756D01*
X375322Y358780D01*
X375451Y357803D01*
X375828Y356893D01*
X376427Y356112D01*
X377208Y355512D01*
X378118Y355136D01*
X379095Y355007D01*
X380071Y355136D01*
X380981Y355512D01*
X381762Y356112D01*
X382362Y356893D01*
X382738Y357803D01*
X382867Y358780D01*
X382738Y359756D01*
X382362Y360666D01*
X381762Y361447D01*
X380981Y362047D01*
X380071Y362423D01*
X379095Y362552D01*
D02*
G37*
G36*
X464114Y353445D02*
X456437D01*
Y345768D01*
X464114D01*
Y353445D01*
D02*
G37*
G36*
X450276Y353478D02*
X449273Y353346D01*
X448340Y352959D01*
X447538Y352344D01*
X446923Y351542D01*
X446536Y350608D01*
X446404Y349606D01*
X446536Y348604D01*
X446923Y347670D01*
X447538Y346869D01*
X448340Y346253D01*
X449273Y345866D01*
X450276Y345735D01*
X451278Y345866D01*
X452211Y346253D01*
X453013Y346869D01*
X453629Y347670D01*
X454015Y348604D01*
X454147Y349606D01*
X454015Y350608D01*
X453629Y351542D01*
X453013Y352344D01*
X452211Y352959D01*
X451278Y353346D01*
X450276Y353478D01*
D02*
G37*
G36*
X409094Y352552D02*
X408118Y352423D01*
X407208Y352046D01*
X406427Y351447D01*
X405828Y350666D01*
X405451Y349756D01*
X405322Y348780D01*
X405451Y347803D01*
X405828Y346893D01*
X406427Y346112D01*
X407208Y345513D01*
X408118Y345136D01*
X409094Y345007D01*
X410071Y345136D01*
X410981Y345513D01*
X411762Y346112D01*
X412361Y346893D01*
X412738Y347803D01*
X412867Y348780D01*
X412738Y349756D01*
X412361Y350666D01*
X411762Y351447D01*
X410981Y352046D01*
X410071Y352423D01*
X409094Y352552D01*
D02*
G37*
G36*
X379095D02*
X378118Y352423D01*
X377208Y352046D01*
X376427Y351447D01*
X375828Y350666D01*
X375451Y349756D01*
X375322Y348780D01*
X375451Y347803D01*
X375828Y346893D01*
X376427Y346112D01*
X377208Y345513D01*
X378118Y345136D01*
X379095Y345007D01*
X380071Y345136D01*
X380981Y345513D01*
X381762Y346112D01*
X382362Y346893D01*
X382738Y347803D01*
X382867Y348780D01*
X382738Y349756D01*
X382362Y350666D01*
X381762Y351447D01*
X380981Y352046D01*
X380071Y352423D01*
X379095Y352552D01*
D02*
G37*
G36*
X527953Y357514D02*
X526925Y357379D01*
X525967Y356982D01*
X525145Y356351D01*
X524514Y355529D01*
X524117Y354571D01*
X523982Y353543D01*
X524117Y352516D01*
X524514Y351558D01*
X525145Y350735D01*
X525967Y350104D01*
X526516Y349877D01*
Y349336D01*
X525967Y349108D01*
X525145Y348477D01*
X524514Y347655D01*
X524117Y346697D01*
X523982Y345669D01*
X524117Y344641D01*
X524514Y343684D01*
X525145Y342861D01*
X525967Y342230D01*
X526925Y341834D01*
X527953Y341698D01*
X528980Y341834D01*
X529938Y342230D01*
X530761Y342861D01*
X531392Y343684D01*
X531788Y344641D01*
X531924Y345669D01*
X531788Y346697D01*
X531392Y347655D01*
X530761Y348477D01*
X529938Y349108D01*
X529389Y349336D01*
Y349877D01*
X529938Y350104D01*
X530761Y350735D01*
X531392Y351558D01*
X531788Y352516D01*
X531924Y353543D01*
X531788Y354571D01*
X531392Y355529D01*
X530761Y356351D01*
X529938Y356982D01*
X528980Y357379D01*
X527953Y357514D01*
D02*
G37*
G36*
X514961D02*
X513933Y357379D01*
X512975Y356982D01*
X512153Y356351D01*
X511522Y355529D01*
X511125Y354571D01*
X510990Y353543D01*
X511125Y352516D01*
X511522Y351558D01*
X512153Y350735D01*
X512975Y350104D01*
X513524Y349877D01*
Y349336D01*
X512975Y349108D01*
X512153Y348477D01*
X511522Y347655D01*
X511125Y346697D01*
X510990Y345669D01*
X511125Y344641D01*
X511522Y343684D01*
X512153Y342861D01*
X512975Y342230D01*
X513933Y341834D01*
X514961Y341698D01*
X515988Y341834D01*
X516946Y342230D01*
X517768Y342861D01*
X518400Y343684D01*
X518796Y344641D01*
X518932Y345669D01*
X518796Y346697D01*
X518400Y347655D01*
X517768Y348477D01*
X516946Y349108D01*
X516397Y349336D01*
Y349877D01*
X516946Y350104D01*
X517768Y350735D01*
X518400Y351558D01*
X518796Y352516D01*
X518932Y353543D01*
X518796Y354571D01*
X518400Y355529D01*
X517768Y356351D01*
X516946Y356982D01*
X515988Y357379D01*
X514961Y357514D01*
D02*
G37*
G36*
X508327Y347480D02*
X500256D01*
Y339409D01*
X508327D01*
Y347480D01*
D02*
G37*
G36*
X496319Y347441D02*
X488248D01*
Y339370D01*
X496319D01*
Y347441D01*
D02*
G37*
G36*
X352362Y342509D02*
Y338189D01*
X356682D01*
X356571Y339029D01*
X356095Y340178D01*
X355338Y341165D01*
X354351Y341922D01*
X353202Y342398D01*
X352362Y342509D01*
D02*
G37*
G36*
X351575D02*
X350735Y342398D01*
X349586Y341922D01*
X348599Y341165D01*
X347842Y340178D01*
X347366Y339029D01*
X347255Y338189D01*
X351575D01*
Y342509D01*
D02*
G37*
G36*
X409094Y342552D02*
X408118Y342423D01*
X407208Y342046D01*
X406427Y341447D01*
X405828Y340666D01*
X405451Y339756D01*
X405322Y338779D01*
X405451Y337803D01*
X405828Y336893D01*
X406427Y336112D01*
X407208Y335512D01*
X408118Y335136D01*
X409094Y335007D01*
X410071Y335136D01*
X410981Y335512D01*
X411762Y336112D01*
X412361Y336893D01*
X412738Y337803D01*
X412867Y338779D01*
X412738Y339756D01*
X412361Y340666D01*
X411762Y341447D01*
X410981Y342046D01*
X410071Y342423D01*
X409094Y342552D01*
D02*
G37*
G36*
X379095D02*
X378118Y342423D01*
X377208Y342046D01*
X376427Y341447D01*
X375828Y340666D01*
X375451Y339756D01*
X375322Y338779D01*
X375451Y337803D01*
X375828Y336893D01*
X376427Y336112D01*
X377208Y335512D01*
X378118Y335136D01*
X379095Y335007D01*
X380071Y335136D01*
X380981Y335512D01*
X381762Y336112D01*
X382362Y336893D01*
X382738Y337803D01*
X382867Y338779D01*
X382738Y339756D01*
X382362Y340666D01*
X381762Y341447D01*
X380981Y342046D01*
X380071Y342423D01*
X379095Y342552D01*
D02*
G37*
G36*
X351575Y337402D02*
X347255D01*
X347366Y336562D01*
X347842Y335413D01*
X348599Y334426D01*
X349586Y333668D01*
X350735Y333192D01*
X351575Y333082D01*
Y337402D01*
D02*
G37*
G36*
X356682D02*
X352362D01*
Y333082D01*
X353202Y333192D01*
X354351Y333668D01*
X355338Y334426D01*
X356095Y335413D01*
X356571Y336562D01*
X356682Y337402D01*
D02*
G37*
G36*
X474213Y331518D02*
X468898D01*
Y327559D01*
X476794D01*
Y328937D01*
X476706Y329605D01*
X476448Y330228D01*
X476038Y330762D01*
X475503Y331172D01*
X474881Y331430D01*
X474213Y331518D01*
D02*
G37*
G36*
X468110D02*
X462795D01*
X462127Y331430D01*
X461505Y331172D01*
X460970Y330762D01*
X460560Y330228D01*
X460302Y329605D01*
X460214Y328937D01*
Y327559D01*
X468110D01*
Y331518D01*
D02*
G37*
G36*
X409094Y332552D02*
X408118Y332423D01*
X407208Y332047D01*
X406427Y331447D01*
X405828Y330666D01*
X405451Y329756D01*
X405322Y328780D01*
X405451Y327803D01*
X405828Y326893D01*
X406427Y326112D01*
X407208Y325513D01*
X408118Y325136D01*
X409094Y325007D01*
X410071Y325136D01*
X410981Y325513D01*
X411762Y326112D01*
X412361Y326893D01*
X412738Y327803D01*
X412867Y328780D01*
X412738Y329756D01*
X412361Y330666D01*
X411762Y331447D01*
X410981Y332047D01*
X410071Y332423D01*
X409094Y332552D01*
D02*
G37*
G36*
X379095D02*
X378118Y332423D01*
X377208Y332047D01*
X376427Y331447D01*
X375828Y330666D01*
X375451Y329756D01*
X375322Y328780D01*
X375451Y327803D01*
X375828Y326893D01*
X376427Y326112D01*
X377208Y325513D01*
X378118Y325136D01*
X379095Y325007D01*
X380071Y325136D01*
X380981Y325513D01*
X381762Y326112D01*
X382362Y326893D01*
X382738Y327803D01*
X382867Y328780D01*
X382738Y329756D01*
X382362Y330666D01*
X381762Y331447D01*
X380981Y332047D01*
X380071Y332423D01*
X379095Y332552D01*
D02*
G37*
G36*
X513583Y331518D02*
X502165D01*
X501497Y331430D01*
X500875Y331172D01*
X500340Y330762D01*
X499930Y330228D01*
X499672Y329605D01*
X499584Y328937D01*
Y325394D01*
X499672Y324726D01*
X499930Y324103D01*
X500340Y323569D01*
X500875Y323158D01*
X501497Y322901D01*
X502165Y322813D01*
X513583D01*
X514251Y322901D01*
X514873Y323158D01*
X515408Y323569D01*
X515818Y324103D01*
X516076Y324726D01*
X516164Y325394D01*
Y328937D01*
X516076Y329605D01*
X515818Y330228D01*
X515408Y330762D01*
X514873Y331172D01*
X514251Y331430D01*
X513583Y331518D01*
D02*
G37*
G36*
X476794Y326772D02*
X468898D01*
Y322813D01*
X474213D01*
X474881Y322901D01*
X475503Y323158D01*
X476038Y323569D01*
X476448Y324103D01*
X476706Y324726D01*
X476794Y325394D01*
Y326772D01*
D02*
G37*
G36*
X468110D02*
X460214D01*
Y325394D01*
X460302Y324726D01*
X460560Y324103D01*
X460970Y323569D01*
X461505Y323158D01*
X462127Y322901D01*
X462795Y322813D01*
X468110D01*
Y326772D01*
D02*
G37*
G36*
X379095Y322552D02*
X378118Y322423D01*
X377208Y322046D01*
X376427Y321447D01*
X375828Y320666D01*
X375451Y319756D01*
X375322Y318779D01*
X375451Y317803D01*
X375828Y316893D01*
X376427Y316112D01*
X377208Y315512D01*
X378118Y315136D01*
X379095Y315007D01*
X380071Y315136D01*
X380981Y315512D01*
X381762Y316112D01*
X382362Y316893D01*
X382738Y317803D01*
X382867Y318779D01*
X382738Y319756D01*
X382362Y320666D01*
X381762Y321447D01*
X380981Y322046D01*
X380071Y322423D01*
X379095Y322552D01*
D02*
G37*
G36*
X352362Y316918D02*
Y312598D01*
X356682D01*
X356571Y313438D01*
X356095Y314587D01*
X355338Y315574D01*
X354351Y316332D01*
X353202Y316808D01*
X352362Y316918D01*
D02*
G37*
G36*
X351575D02*
X350735Y316808D01*
X349586Y316332D01*
X348599Y315574D01*
X347842Y314587D01*
X347366Y313438D01*
X347255Y312598D01*
X351575D01*
Y316918D01*
D02*
G37*
G36*
X379488Y312500D02*
Y309173D01*
X382815D01*
X382738Y309756D01*
X382362Y310666D01*
X381762Y311447D01*
X380981Y312047D01*
X380071Y312423D01*
X379488Y312500D01*
D02*
G37*
G36*
X378701D02*
X378118Y312423D01*
X377208Y312047D01*
X376427Y311447D01*
X375828Y310666D01*
X375451Y309756D01*
X375374Y309173D01*
X378701D01*
Y312500D01*
D02*
G37*
G36*
X351575Y311811D02*
X347255D01*
X347366Y310971D01*
X347842Y309822D01*
X348599Y308835D01*
X349586Y308078D01*
X350735Y307602D01*
X351575Y307491D01*
Y311811D01*
D02*
G37*
G36*
X356682D02*
X352362D01*
Y307491D01*
X353202Y307602D01*
X354351Y308078D01*
X355338Y308835D01*
X356095Y309822D01*
X356571Y310971D01*
X356682Y311811D01*
D02*
G37*
G36*
X382815Y308386D02*
X379488D01*
Y305059D01*
X380071Y305136D01*
X380981Y305512D01*
X381762Y306112D01*
X382362Y306893D01*
X382738Y307803D01*
X382815Y308386D01*
D02*
G37*
G36*
X378701D02*
X375374D01*
X375451Y307803D01*
X375828Y306893D01*
X376427Y306112D01*
X377208Y305512D01*
X378118Y305136D01*
X378701Y305059D01*
Y308386D01*
D02*
G37*
G36*
X379095Y302552D02*
X378118Y302423D01*
X377208Y302046D01*
X376427Y301447D01*
X375828Y300666D01*
X375451Y299756D01*
X375322Y298780D01*
X375451Y297803D01*
X375828Y296893D01*
X376427Y296112D01*
X377208Y295513D01*
X378118Y295136D01*
X379095Y295007D01*
X380071Y295136D01*
X380981Y295513D01*
X381762Y296112D01*
X382362Y296893D01*
X382738Y297803D01*
X382867Y298780D01*
X382738Y299756D01*
X382362Y300666D01*
X381762Y301447D01*
X380981Y302046D01*
X380071Y302423D01*
X379095Y302552D01*
D02*
G37*
G36*
X371161Y299390D02*
X363484D01*
Y291713D01*
X371161D01*
Y299390D01*
D02*
G37*
G36*
X423730Y301501D02*
X422703Y301365D01*
X421745Y300969D01*
X420922Y300337D01*
X420291Y299515D01*
X419895Y298557D01*
X419759Y297530D01*
X419895Y296502D01*
X420291Y295544D01*
X420922Y294722D01*
X421745Y294091D01*
X422294Y293863D01*
Y293322D01*
X421745Y293094D01*
X420922Y292463D01*
X420291Y291641D01*
X419895Y290683D01*
X419811Y290049D01*
X423730D01*
X427649D01*
X427566Y290683D01*
X427169Y291641D01*
X426538Y292463D01*
X425716Y293094D01*
X425167Y293322D01*
Y293863D01*
X425716Y294091D01*
X426538Y294722D01*
X427169Y295544D01*
X427566Y296502D01*
X427701Y297530D01*
X427566Y298557D01*
X427169Y299515D01*
X426538Y300337D01*
X425716Y300969D01*
X424758Y301365D01*
X423730Y301501D01*
D02*
G37*
G36*
X409488Y292500D02*
Y289173D01*
X412815D01*
X412738Y289756D01*
X412361Y290666D01*
X411762Y291447D01*
X410981Y292046D01*
X410071Y292423D01*
X409488Y292500D01*
D02*
G37*
G36*
X408701D02*
X408118Y292423D01*
X407208Y292046D01*
X406427Y291447D01*
X405828Y290666D01*
X405451Y289756D01*
X405374Y289173D01*
X408701D01*
Y292500D01*
D02*
G37*
G36*
X423337Y289262D02*
X419811D01*
X419895Y288628D01*
X420291Y287670D01*
X420922Y286848D01*
X421745Y286217D01*
X422703Y285820D01*
X423337Y285736D01*
Y289262D01*
D02*
G37*
G36*
X427649D02*
X424124D01*
Y285736D01*
X424758Y285820D01*
X425716Y286217D01*
X426538Y286848D01*
X427169Y287670D01*
X427566Y288628D01*
X427649Y289262D01*
D02*
G37*
G36*
X412815Y288386D02*
X409488D01*
Y285059D01*
X410071Y285136D01*
X410981Y285512D01*
X411762Y286112D01*
X412361Y286893D01*
X412738Y287803D01*
X412815Y288386D01*
D02*
G37*
G36*
X408701D02*
X405374D01*
X405451Y287803D01*
X405828Y286893D01*
X406427Y286112D01*
X407208Y285512D01*
X408118Y285136D01*
X408701Y285059D01*
Y288386D01*
D02*
G37*
G36*
X379095Y292552D02*
X378118Y292423D01*
X377208Y292046D01*
X376427Y291447D01*
X375828Y290666D01*
X375451Y289756D01*
X375322Y288779D01*
X375451Y287803D01*
X375828Y286893D01*
X376427Y286112D01*
X377208Y285512D01*
X378118Y285136D01*
X379095Y285007D01*
X380071Y285136D01*
X380981Y285512D01*
X381762Y286112D01*
X382362Y286893D01*
X382738Y287803D01*
X382867Y288779D01*
X382738Y289756D01*
X382362Y290666D01*
X381762Y291447D01*
X380981Y292046D01*
X380071Y292423D01*
X379095Y292552D01*
D02*
G37*
G36*
Y282552D02*
X378118Y282423D01*
X377208Y282047D01*
X376427Y281447D01*
X375828Y280666D01*
X375451Y279756D01*
X375322Y278780D01*
X375451Y277803D01*
X375828Y276893D01*
X376427Y276112D01*
X377208Y275513D01*
X378118Y275136D01*
X379095Y275007D01*
X380071Y275136D01*
X380981Y275513D01*
X381762Y276112D01*
X382362Y276893D01*
X382738Y277803D01*
X382867Y278780D01*
X382738Y279756D01*
X382362Y280666D01*
X381762Y281447D01*
X380981Y282047D01*
X380071Y282423D01*
X379095Y282552D01*
D02*
G37*
G36*
Y272552D02*
X378118Y272423D01*
X377208Y272046D01*
X376427Y271447D01*
X375828Y270666D01*
X375451Y269756D01*
X375322Y268779D01*
X375451Y267803D01*
X375828Y266893D01*
X376427Y266112D01*
X377208Y265512D01*
X378118Y265136D01*
X379095Y265007D01*
X380071Y265136D01*
X380981Y265512D01*
X381762Y266112D01*
X382362Y266893D01*
X382738Y267803D01*
X382867Y268779D01*
X382738Y269756D01*
X382362Y270666D01*
X381762Y271447D01*
X380981Y272046D01*
X380071Y272423D01*
X379095Y272552D01*
D02*
G37*
G36*
Y252552D02*
X378118Y252423D01*
X377208Y252046D01*
X376427Y251447D01*
X375828Y250666D01*
X375451Y249756D01*
X375322Y248780D01*
X375451Y247803D01*
X375828Y246893D01*
X376427Y246112D01*
X377208Y245513D01*
X378118Y245136D01*
X379095Y245007D01*
X380071Y245136D01*
X380981Y245513D01*
X381762Y246112D01*
X382362Y246893D01*
X382738Y247803D01*
X382867Y248780D01*
X382738Y249756D01*
X382362Y250666D01*
X381762Y251447D01*
X380981Y252046D01*
X380071Y252423D01*
X379095Y252552D01*
D02*
G37*
G36*
X525591Y239303D02*
Y236968D01*
X527925D01*
X527882Y237294D01*
X527604Y237965D01*
X527162Y238540D01*
X526587Y238982D01*
X525916Y239260D01*
X525591Y239303D01*
D02*
G37*
G36*
X524803Y239303D02*
X524477Y239260D01*
X523807Y238982D01*
X523231Y238540D01*
X522790Y237965D01*
X522512Y237294D01*
X522469Y236968D01*
X524803D01*
Y239303D01*
D02*
G37*
G36*
X422047Y226381D02*
X420762Y226212D01*
X419565Y225716D01*
X418537Y224927D01*
X417748Y223899D01*
X417253Y222702D01*
X417084Y221417D01*
X417253Y220133D01*
X417748Y218935D01*
X418537Y217907D01*
X419565Y217119D01*
X420639Y216674D01*
X420639Y216673D01*
Y216161D01*
X420639Y216161D01*
X419565Y215716D01*
X418537Y214927D01*
X417748Y213899D01*
X417253Y212702D01*
X417084Y211417D01*
X417253Y210133D01*
X417748Y208935D01*
X418537Y207907D01*
X419565Y207119D01*
X420762Y206623D01*
X422047Y206454D01*
X423332Y206623D01*
X424529Y207119D01*
X425557Y207907D01*
X426346Y208935D01*
X426842Y210133D01*
X427011Y211417D01*
X426842Y212702D01*
X426346Y213899D01*
X425557Y214927D01*
X424529Y215716D01*
X423456Y216161D01*
X423455Y216161D01*
Y216673D01*
X423456Y216674D01*
X424529Y217119D01*
X425557Y217907D01*
X426346Y218935D01*
X426842Y220133D01*
X427011Y221417D01*
X426842Y222702D01*
X426346Y223899D01*
X425557Y224927D01*
X424529Y225716D01*
X423332Y226212D01*
X422047Y226381D01*
D02*
G37*
G36*
X361811Y238980D02*
X360526Y238810D01*
X359329Y238315D01*
X358301Y237526D01*
X357512Y236498D01*
X357016Y235300D01*
X356847Y234016D01*
X357016Y232731D01*
X357512Y231534D01*
X358301Y230506D01*
X359329Y229717D01*
X360403Y229272D01*
X360403Y229272D01*
Y228760D01*
X360403Y228759D01*
X359329Y228314D01*
X358301Y227526D01*
X357512Y226498D01*
X357016Y225301D01*
X356847Y224016D01*
X357016Y222731D01*
X357512Y221534D01*
X358301Y220506D01*
X359329Y219717D01*
X360403Y219272D01*
X360403Y219272D01*
Y218760D01*
X360403Y218759D01*
X359329Y218315D01*
X358301Y217526D01*
X357512Y216498D01*
X357016Y215300D01*
X356847Y214016D01*
X357016Y212731D01*
X357512Y211534D01*
X358301Y210506D01*
X359329Y209717D01*
X360403Y209272D01*
X360403Y209272D01*
Y208760D01*
X360403Y208759D01*
X359329Y208314D01*
X358301Y207526D01*
X357512Y206498D01*
X357016Y205300D01*
X356899Y204410D01*
X361811D01*
X366723D01*
X366606Y205300D01*
X366110Y206498D01*
X365321Y207526D01*
X364293Y208314D01*
X363219Y208759D01*
X363219Y208760D01*
Y209272D01*
X363219Y209272D01*
X364293Y209717D01*
X365321Y210506D01*
X366110Y211534D01*
X366606Y212731D01*
X366775Y214016D01*
X366606Y215300D01*
X366110Y216498D01*
X365321Y217526D01*
X364293Y218315D01*
X363219Y218759D01*
X363219Y218760D01*
Y219272D01*
X363219Y219272D01*
X364293Y219717D01*
X365321Y220506D01*
X366110Y221534D01*
X366606Y222731D01*
X366775Y224016D01*
X366606Y225301D01*
X366110Y226498D01*
X365321Y227526D01*
X364293Y228314D01*
X363219Y228759D01*
X363219Y228760D01*
Y229272D01*
X363219Y229272D01*
X364293Y229717D01*
X365321Y230506D01*
X366110Y231534D01*
X366606Y232731D01*
X366775Y234016D01*
X366606Y235300D01*
X366110Y236498D01*
X365321Y237526D01*
X364293Y238315D01*
X363096Y238810D01*
X361811Y238980D01*
D02*
G37*
G36*
X366723Y203622D02*
X362205D01*
Y199104D01*
X363096Y199221D01*
X364293Y199717D01*
X365321Y200506D01*
X366110Y201534D01*
X366606Y202731D01*
X366723Y203622D01*
D02*
G37*
G36*
X361417D02*
X356899D01*
X357016Y202731D01*
X357512Y201534D01*
X358301Y200506D01*
X359329Y199717D01*
X360526Y199221D01*
X361417Y199104D01*
Y203622D01*
D02*
G37*
G36*
X451181Y225363D02*
X450323Y225250D01*
X449523Y224919D01*
X448837Y224392D01*
X448310Y223705D01*
X447978Y222905D01*
X447865Y222047D01*
X447978Y221189D01*
X448310Y220389D01*
X448837Y219703D01*
X449523Y219176D01*
X450323Y218845D01*
X451181Y218731D01*
X452039Y218845D01*
X452839Y219176D01*
X453526Y219703D01*
X454053Y220389D01*
X454196Y220735D01*
X505007D01*
X505040Y220235D01*
X504723Y220193D01*
X504260Y220132D01*
X503460Y219801D01*
X502774Y219274D01*
X502247Y218587D01*
X501915Y217787D01*
X501802Y216929D01*
X501915Y216071D01*
X502247Y215271D01*
X502774Y214584D01*
X503460Y214058D01*
X503805Y213915D01*
Y118743D01*
X502736Y118300D01*
X501749Y117543D01*
X500991Y116556D01*
X500515Y115407D01*
X500353Y114173D01*
X500515Y112940D01*
X500991Y111791D01*
X501749Y110804D01*
X502736Y110047D01*
X503885Y109570D01*
X505118Y109408D01*
X506351Y109570D01*
X507501Y110047D01*
X508488Y110804D01*
X509245Y111791D01*
X509721Y112940D01*
X509883Y114173D01*
X509721Y115407D01*
X509245Y116556D01*
X508488Y117543D01*
X507501Y118300D01*
X506431Y118743D01*
Y213915D01*
X506776Y214058D01*
X507463Y214584D01*
X507990Y215271D01*
X508321Y216071D01*
X508434Y216929D01*
X508321Y217787D01*
X507990Y218587D01*
X507463Y219274D01*
X506776Y219801D01*
X505976Y220132D01*
X505514Y220193D01*
X505196Y220235D01*
X505229Y220735D01*
X518354D01*
X522428Y216660D01*
X522417Y216575D01*
X522512Y215855D01*
X522790Y215185D01*
X523231Y214609D01*
X523524Y214385D01*
Y213765D01*
X523231Y213540D01*
X522790Y212965D01*
X522512Y212294D01*
X522417Y211575D01*
X522512Y210855D01*
X522790Y210185D01*
X523231Y209609D01*
X523524Y209384D01*
Y208765D01*
X523231Y208540D01*
X522790Y207965D01*
X522512Y207294D01*
X522417Y206575D01*
X522512Y205855D01*
X522790Y205185D01*
X523231Y204609D01*
X523524Y204384D01*
Y203765D01*
X523231Y203540D01*
X522790Y202965D01*
X522512Y202294D01*
X522417Y201575D01*
X522512Y200855D01*
X522790Y200185D01*
X523231Y199609D01*
X523807Y199168D01*
X524477Y198890D01*
X525197Y198795D01*
X525916Y198890D01*
X526587Y199168D01*
X527162Y199609D01*
X527604Y200185D01*
X527882Y200855D01*
X527977Y201575D01*
X527882Y202294D01*
X527604Y202965D01*
X527162Y203540D01*
X526869Y203765D01*
Y204384D01*
X527162Y204609D01*
X527604Y205185D01*
X527882Y205855D01*
X527977Y206575D01*
X527882Y207294D01*
X527604Y207965D01*
X527162Y208540D01*
X526869Y208765D01*
Y209384D01*
X527162Y209609D01*
X527604Y210185D01*
X527882Y210855D01*
X527977Y211575D01*
X527882Y212294D01*
X527604Y212965D01*
X527162Y213540D01*
X526869Y213765D01*
Y214385D01*
X527162Y214609D01*
X527604Y215185D01*
X527882Y215855D01*
X527977Y216575D01*
X527882Y217294D01*
X527604Y217965D01*
X527162Y218540D01*
X526869Y218765D01*
Y219385D01*
X527162Y219609D01*
X527604Y220185D01*
X527882Y220855D01*
X527925Y221181D01*
X525197D01*
X522469D01*
X522491Y221018D01*
X522023Y220778D01*
X519826Y222975D01*
X519400Y223260D01*
X518898Y223360D01*
X454196D01*
X454053Y223705D01*
X453526Y224392D01*
X452839Y224919D01*
X452039Y225250D01*
X451181Y225363D01*
D02*
G37*
G36*
X367323Y289423D02*
X366321Y289291D01*
X365387Y288904D01*
X364585Y288289D01*
X363970Y287487D01*
X363583Y286553D01*
X363451Y285551D01*
X363583Y284549D01*
X363970Y283615D01*
X364585Y282814D01*
X365387Y282198D01*
X366010Y281940D01*
Y243701D01*
X366110Y243198D01*
X366395Y242773D01*
X406561Y202606D01*
Y193408D01*
X406216Y193265D01*
X405529Y192738D01*
X405002Y192052D01*
X404671Y191252D01*
X404558Y190394D01*
X404671Y189535D01*
X405002Y188736D01*
X405529Y188049D01*
X406216Y187522D01*
X407016Y187191D01*
X407874Y187078D01*
X408732Y187191D01*
X409532Y187522D01*
X410219Y188049D01*
X410746Y188736D01*
X411077Y189535D01*
X411190Y190394D01*
X411077Y191252D01*
X410746Y192052D01*
X410219Y192738D01*
X409532Y193265D01*
X409187Y193408D01*
Y203150D01*
X409087Y203652D01*
X408802Y204078D01*
X368635Y244245D01*
Y281940D01*
X369259Y282198D01*
X370060Y282814D01*
X370676Y283615D01*
X371063Y284549D01*
X371195Y285551D01*
X371063Y286553D01*
X370676Y287487D01*
X370060Y288289D01*
X369259Y288904D01*
X368325Y289291D01*
X367323Y289423D01*
D02*
G37*
G36*
X379134Y189675D02*
Y186150D01*
X382659D01*
X382576Y186784D01*
X382179Y187742D01*
X381548Y188564D01*
X380726Y189195D01*
X379768Y189592D01*
X379134Y189675D01*
D02*
G37*
G36*
X382659Y185363D02*
X379134D01*
Y181837D01*
X379768Y181921D01*
X380726Y182317D01*
X381548Y182949D01*
X382179Y183771D01*
X382576Y184729D01*
X382659Y185363D01*
D02*
G37*
G36*
X370866Y189727D02*
X369838Y189592D01*
X368881Y189195D01*
X368058Y188564D01*
X367427Y187742D01*
X367031Y186784D01*
X366895Y185756D01*
X367031Y184729D01*
X367427Y183771D01*
X368058Y182949D01*
X368881Y182317D01*
X369838Y181921D01*
X370866Y181785D01*
X371894Y181921D01*
X372852Y182317D01*
X373674Y182949D01*
X374305Y183771D01*
X374533Y184320D01*
X375074D01*
X375301Y183771D01*
X375932Y182949D01*
X376755Y182317D01*
X377712Y181921D01*
X378346Y181837D01*
Y185756D01*
Y189675D01*
X377712Y189592D01*
X376755Y189195D01*
X375932Y188564D01*
X375301Y187742D01*
X375074Y187193D01*
X374533D01*
X374305Y187742D01*
X373674Y188564D01*
X372852Y189195D01*
X371894Y189592D01*
X370866Y189727D01*
D02*
G37*
G36*
X494882Y129175D02*
X493649Y129012D01*
X492499Y128536D01*
X491512Y127779D01*
X490755Y126792D01*
X490279Y125643D01*
X490117Y124409D01*
X490279Y123176D01*
X490755Y122027D01*
X491512Y121040D01*
X492499Y120283D01*
X493649Y119807D01*
X494882Y119644D01*
X496115Y119807D01*
X497264Y120283D01*
X498251Y121040D01*
X499009Y122027D01*
X499485Y123176D01*
X499647Y124409D01*
X499485Y125643D01*
X499009Y126792D01*
X498251Y127779D01*
X497264Y128536D01*
X496115Y129012D01*
X494882Y129175D01*
D02*
G37*
G36*
X469291D02*
X468058Y129012D01*
X466909Y128536D01*
X465922Y127779D01*
X465165Y126792D01*
X464688Y125643D01*
X464526Y124409D01*
X464688Y123176D01*
X465165Y122027D01*
X465922Y121040D01*
X466909Y120283D01*
X468058Y119807D01*
X469291Y119644D01*
X470525Y119807D01*
X471674Y120283D01*
X472661Y121040D01*
X473418Y122027D01*
X473894Y123176D01*
X474056Y124409D01*
X473894Y125643D01*
X473418Y126792D01*
X472661Y127779D01*
X471674Y128536D01*
X470525Y129012D01*
X469291Y129175D01*
D02*
G37*
G36*
X455512Y118887D02*
Y114567D01*
X459831D01*
X459721Y115407D01*
X459245Y116556D01*
X458488Y117543D01*
X457501Y118300D01*
X456351Y118776D01*
X455512Y118887D01*
D02*
G37*
G36*
X454724D02*
X453885Y118776D01*
X452736Y118300D01*
X451749Y117543D01*
X450991Y116556D01*
X450515Y115407D01*
X450405Y114567D01*
X454724D01*
Y118887D01*
D02*
G37*
G36*
X459831Y113779D02*
X455512D01*
Y109460D01*
X456351Y109570D01*
X457501Y110047D01*
X458488Y110804D01*
X459245Y111791D01*
X459721Y112940D01*
X459831Y113779D01*
D02*
G37*
G36*
X454724D02*
X450405D01*
X450515Y112940D01*
X450991Y111791D01*
X451749Y110804D01*
X452736Y110047D01*
X453885Y109570D01*
X454724Y109460D01*
Y113779D01*
D02*
G37*
G36*
X494882Y111458D02*
X493649Y111296D01*
X492499Y110820D01*
X491512Y110062D01*
X490755Y109075D01*
X490279Y107926D01*
X490117Y106693D01*
X490279Y105460D01*
X490755Y104310D01*
X491512Y103323D01*
X492499Y102566D01*
X493649Y102090D01*
X494882Y101928D01*
X496115Y102090D01*
X497264Y102566D01*
X498251Y103323D01*
X499009Y104310D01*
X499485Y105460D01*
X499647Y106693D01*
X499485Y107926D01*
X499009Y109075D01*
X498251Y110062D01*
X497264Y110820D01*
X496115Y111296D01*
X494882Y111458D01*
D02*
G37*
G36*
X469291D02*
X468058Y111296D01*
X466909Y110820D01*
X465922Y110062D01*
X465165Y109075D01*
X464688Y107926D01*
X464526Y106693D01*
X464688Y105460D01*
X465165Y104310D01*
X465922Y103323D01*
X466909Y102566D01*
X468058Y102090D01*
X469291Y101928D01*
X470525Y102090D01*
X471674Y102566D01*
X472661Y103323D01*
X473418Y104310D01*
X473894Y105460D01*
X474056Y106693D01*
X473894Y107926D01*
X473418Y109075D01*
X472661Y110062D01*
X471674Y110820D01*
X470525Y111296D01*
X469291Y111458D01*
D02*
G37*
%LPD*%
G36*
X494662Y230647D02*
X495088Y230362D01*
X495590Y230262D01*
X522758D01*
X522790Y230185D01*
X523231Y229609D01*
X523524Y229384D01*
Y228765D01*
X523231Y228540D01*
X522790Y227965D01*
X522758Y227887D01*
X492867D01*
X456440Y264314D01*
X456014Y264598D01*
X455512Y264699D01*
X410322D01*
X410222Y265198D01*
X410981Y265512D01*
X411762Y266112D01*
X412361Y266893D01*
X412599Y267467D01*
X457842D01*
X494662Y230647D01*
D02*
G37*
D13*
X379055Y378740D02*
X379095Y378780D01*
D14*
X448858Y338228D02*
X465748D01*
X414173Y303543D02*
X448858Y338228D01*
X409094Y308780D02*
X414409D01*
X433071Y327441D02*
Y383465D01*
X414409Y308780D02*
X433071Y327441D01*
X409213Y318661D02*
X428819Y338268D01*
Y384842D02*
X431378Y387402D01*
X428819Y338268D02*
Y384842D01*
X435630Y387402D02*
X439567Y383465D01*
X431378Y387402D02*
X435630D01*
X405905Y303543D02*
X414173D01*
X407874Y190394D02*
Y203150D01*
X367323Y243701D02*
X407874Y203150D01*
X366929Y284646D02*
X367323Y284252D01*
Y243701D02*
Y284252D01*
Y285039D02*
Y285551D01*
X366929Y284646D02*
X367323Y285039D01*
X369685Y312205D02*
Y337795D01*
X389370Y268110D02*
Y359055D01*
X379095Y258780D02*
X380039D01*
X389370Y268110D01*
Y359055D02*
X409094Y378780D01*
X505118Y114173D02*
Y216929D01*
X518898Y222047D02*
X524370Y216575D01*
X455512Y263386D02*
X492323Y226575D01*
X451181Y222047D02*
X518898D01*
X492323Y226575D02*
X525197D01*
X524370Y216575D02*
X525197D01*
X401575Y299213D02*
X405905Y303543D01*
X401575Y256299D02*
X409094Y248780D01*
X401575Y256299D02*
Y299213D01*
X369685Y373622D02*
X374803Y378740D01*
X369685Y337795D02*
Y373622D01*
X374803Y378740D02*
X379055D01*
X404642Y274327D02*
X409094Y278780D01*
X404642Y266935D02*
Y274327D01*
Y266935D02*
X408191Y263386D01*
X455512D01*
X495590Y231575D02*
X525197D01*
X458386Y268779D02*
X495590Y231575D01*
X409094Y268779D02*
X458386D01*
D29*
X504291Y343445D02*
D03*
X492283Y343406D02*
D03*
D30*
X504291Y374350D02*
D03*
X492283Y374311D02*
D03*
D31*
X351969Y312205D02*
D03*
Y337795D02*
D03*
X369685Y312205D02*
D03*
Y337795D02*
D03*
X455118Y114173D02*
D03*
X505118D02*
D03*
X469291Y124409D02*
D03*
X494882D02*
D03*
X469291Y106693D02*
D03*
X494882D02*
D03*
D33*
X409094Y248780D02*
D03*
Y258780D02*
D03*
Y268779D02*
D03*
Y278780D02*
D03*
Y288779D02*
D03*
Y298780D02*
D03*
Y308780D02*
D03*
Y318779D02*
D03*
Y328780D02*
D03*
Y338779D02*
D03*
Y348780D02*
D03*
Y358780D02*
D03*
Y368779D02*
D03*
Y378780D02*
D03*
X379095Y248780D02*
D03*
Y258780D02*
D03*
Y268779D02*
D03*
Y278780D02*
D03*
Y288779D02*
D03*
Y298780D02*
D03*
Y308780D02*
D03*
Y318779D02*
D03*
Y328780D02*
D03*
Y338779D02*
D03*
Y348780D02*
D03*
Y358780D02*
D03*
Y368779D02*
D03*
D34*
Y378780D02*
D03*
D35*
X367323Y285551D02*
D03*
X450276Y349606D02*
D03*
D36*
X367323Y295551D02*
D03*
D39*
X448740Y405630D02*
D03*
X421181D02*
D03*
D40*
X444803Y395000D02*
D03*
X425118D02*
D03*
D45*
X460276Y349606D02*
D03*
D46*
X465748Y338228D02*
D03*
X433071Y383465D02*
D03*
X439567D02*
D03*
D47*
X407874Y190394D02*
D03*
X505118Y216929D02*
D03*
X451181Y222047D02*
D03*
D48*
X361811Y204016D02*
D03*
Y214016D02*
D03*
Y224016D02*
D03*
Y234016D02*
D03*
X356693Y361496D02*
D03*
Y371496D02*
D03*
Y381496D02*
D03*
Y401496D02*
D03*
Y391496D02*
D03*
X422047Y211417D02*
D03*
Y221417D02*
D03*
D49*
X468504Y327165D02*
D03*
X507874D02*
D03*
D50*
X525197Y201575D02*
D03*
Y206575D02*
D03*
Y211575D02*
D03*
Y216575D02*
D03*
Y221575D02*
D03*
Y226575D02*
D03*
Y231575D02*
D03*
Y236575D02*
D03*
D51*
X423730Y289655D02*
D03*
Y297530D02*
D03*
X445433Y371929D02*
D03*
Y364055D02*
D03*
X514961Y345669D02*
D03*
Y353543D02*
D03*
Y369291D02*
D03*
Y377165D02*
D03*
X527953Y345669D02*
D03*
Y369291D02*
D03*
Y377165D02*
D03*
Y353543D02*
D03*
X378740Y185756D02*
D03*
X370866D02*
D03*
M02*
