G04*
G04 #@! TF.GenerationSoftware,Altium Limited,Altium Designer,20.2.3 (150)*
G04*
G04 Layer_Color=16711935*
%FSLAX25Y25*%
%MOIN*%
G70*
G04*
G04 #@! TF.SameCoordinates,B26AD540-6E08-4B25-974C-445F4708D01E*
G04*
G04*
G04 #@! TF.FilePolarity,Positive*
G04*
G01*
G75*
%ADD10C,0.00787*%
%ADD13C,0.01000*%
%ADD42C,0.00591*%
%ADD43C,0.00700*%
D10*
X478976Y393504D02*
X478976Y101024D01*
X478976Y393504D02*
X658504D01*
Y100984D02*
Y393504D01*
X479016Y100984D02*
X658504D01*
D13*
X478976Y101024D02*
X478976Y101024D01*
D42*
X603434Y292799D02*
Y293849D01*
Y293324D01*
X606583D01*
Y292799D01*
Y293849D01*
X603959Y297522D02*
X603434Y296997D01*
Y295948D01*
X603959Y295423D01*
X606058D01*
X606583Y295948D01*
Y296997D01*
X606058Y297522D01*
X603434Y300671D02*
Y298572D01*
X605008D01*
X604484Y299621D01*
Y300146D01*
X605008Y300671D01*
X606058D01*
X606583Y300146D01*
Y299096D01*
X606058Y298572D01*
D43*
X552500Y319499D02*
X553833D01*
X553166D01*
Y315500D01*
X552500D01*
X553833D01*
X558498Y318832D02*
X557832Y319499D01*
X556499D01*
X555832Y318832D01*
Y316166D01*
X556499Y315500D01*
X557832D01*
X558498Y316166D01*
X562497Y319499D02*
X561164Y318832D01*
X559831Y317499D01*
Y316166D01*
X560497Y315500D01*
X561830D01*
X562497Y316166D01*
Y316833D01*
X561830Y317499D01*
X559831D01*
M02*
