G04*
G04 #@! TF.GenerationSoftware,Altium Limited,Altium Designer,20.2.3 (150)*
G04*
G04 Layer_Color=16711935*
%FSLAX25Y25*%
%MOIN*%
G70*
G04*
G04 #@! TF.SameCoordinates,B26AD540-6E08-4B25-974C-445F4708D01E*
G04*
G04*
G04 #@! TF.FilePolarity,Negative*
G04*
G01*
G75*
%ADD24R,0.06496X0.06496*%
%ADD25C,0.06496*%
%ADD26C,0.00800*%
%ADD27C,0.08674*%
%ADD28R,0.06299X0.06299*%
%ADD29C,0.06299*%
%ADD30C,0.07874*%
%ADD31C,0.05918*%
%ADD32R,0.03937X0.03937*%
%ADD33C,0.03937*%
%ADD34C,0.07099*%
%ADD35C,0.09068*%
%ADD36R,0.05906X0.05906*%
%ADD37C,0.05906*%
%ADD38R,0.06299X0.06299*%
%ADD39C,0.04724*%
D24*
X629095Y347854D02*
D03*
D25*
Y378760D02*
D03*
D26*
X596748Y268437D02*
D03*
D27*
X581000Y114500D02*
D03*
X631000D02*
D03*
D28*
X530000Y187000D02*
D03*
Y205000D02*
D03*
Y223500D02*
D03*
D29*
X540000Y187000D02*
D03*
Y205000D02*
D03*
Y223500D02*
D03*
X613500Y367500D02*
D03*
D30*
X592500Y126716D02*
D03*
X618090D02*
D03*
X592500Y109000D02*
D03*
X618090D02*
D03*
X578590Y370000D02*
D03*
X553000D02*
D03*
X578590Y387717D02*
D03*
X553000D02*
D03*
D31*
X645000Y184000D02*
D03*
Y194000D02*
D03*
Y204000D02*
D03*
Y214000D02*
D03*
Y224000D02*
D03*
Y234000D02*
D03*
X585000D02*
D03*
Y224000D02*
D03*
Y214000D02*
D03*
Y204000D02*
D03*
Y194000D02*
D03*
Y184000D02*
D03*
D32*
X568000Y204500D02*
D03*
Y227500D02*
D03*
Y251000D02*
D03*
D33*
Y209500D02*
D03*
Y214500D02*
D03*
Y232500D02*
D03*
Y237500D02*
D03*
Y256000D02*
D03*
Y261000D02*
D03*
D34*
X496500Y183000D02*
D03*
Y190874D02*
D03*
X545500Y277374D02*
D03*
Y269500D02*
D03*
X573000Y357374D02*
D03*
Y349500D02*
D03*
X652492Y356500D02*
D03*
Y380122D02*
D03*
Y372248D02*
D03*
Y348626D02*
D03*
X639500Y380122D02*
D03*
Y372248D02*
D03*
Y356500D02*
D03*
Y348626D02*
D03*
D35*
X489000Y333000D02*
D03*
Y343000D02*
D03*
Y353000D02*
D03*
Y373000D02*
D03*
Y363000D02*
D03*
D36*
X500500Y373000D02*
D03*
D37*
Y363000D02*
D03*
Y353000D02*
D03*
Y343000D02*
D03*
Y333000D02*
D03*
Y323000D02*
D03*
Y313000D02*
D03*
Y303000D02*
D03*
Y293000D02*
D03*
Y283000D02*
D03*
Y273000D02*
D03*
Y263000D02*
D03*
Y253000D02*
D03*
Y243000D02*
D03*
X530500Y373000D02*
D03*
Y363000D02*
D03*
Y353000D02*
D03*
Y343000D02*
D03*
Y333000D02*
D03*
Y323000D02*
D03*
Y313000D02*
D03*
Y303000D02*
D03*
Y293000D02*
D03*
Y283000D02*
D03*
Y273000D02*
D03*
Y263000D02*
D03*
Y253000D02*
D03*
Y243000D02*
D03*
D38*
X613500Y377500D02*
D03*
D39*
X580472Y291417D02*
D03*
X539000Y174000D02*
D03*
X531000Y235000D02*
D03*
X617000Y338000D02*
D03*
X622500Y328000D02*
D03*
X598000Y301500D02*
D03*
X603000Y281000D02*
D03*
M02*
