G04*
G04 #@! TF.GenerationSoftware,Altium Limited,Altium Designer,20.2.3 (150)*
G04*
G04 Layer_Physical_Order=2*
G04 Layer_Color=16711680*
%FSLAX25Y25*%
%MOIN*%
G70*
G04*
G04 #@! TF.SameCoordinates,B26AD540-6E08-4B25-974C-445F4708D01E*
G04*
G04*
G04 #@! TF.FilePolarity,Positive*
G04*
G01*
G75*
%ADD13C,0.01000*%
%ADD24R,0.06496X0.06496*%
%ADD25C,0.06496*%
%ADD28R,0.06299X0.06299*%
%ADD29C,0.06299*%
%ADD30C,0.07874*%
%ADD32R,0.03937X0.03937*%
%ADD33C,0.03937*%
%ADD36R,0.05906X0.05906*%
%ADD37C,0.05906*%
%ADD38R,0.06299X0.06299*%
%ADD39C,0.04724*%
%ADD40C,0.05118*%
%ADD41C,0.08268*%
G36*
X658500Y101000D02*
X547321D01*
X547190Y101223D01*
X547113Y101500D01*
X547242Y101693D01*
X547303Y102000D01*
Y116000D01*
X547242Y116307D01*
X547068Y116568D01*
X546807Y116742D01*
X546500Y116803D01*
X525500D01*
X525193Y116742D01*
X524932Y116568D01*
X524758Y116307D01*
X524697Y116000D01*
Y102000D01*
X524758Y101693D01*
X524887Y101500D01*
X524810Y101223D01*
X524679Y101000D01*
X479000D01*
Y393500D01*
X658500D01*
Y101000D01*
D02*
G37*
%LPC*%
G36*
X578590Y392482D02*
X577357Y392319D01*
X576208Y391843D01*
X575221Y391086D01*
X574464Y390099D01*
X574021Y389029D01*
X557570D01*
X557127Y390099D01*
X556369Y391086D01*
X555383Y391843D01*
X554233Y392319D01*
X553000Y392482D01*
X551767Y392319D01*
X550617Y391843D01*
X549630Y391086D01*
X548873Y390099D01*
X548430Y389029D01*
X535716D01*
X535214Y388929D01*
X534788Y388645D01*
X520456Y374313D01*
X504240D01*
Y376740D01*
X496760D01*
Y369260D01*
X504240D01*
Y371687D01*
X521000D01*
X521502Y371787D01*
X521928Y372072D01*
X536260Y386404D01*
X548430D01*
X548873Y385334D01*
X549630Y384347D01*
X550617Y383590D01*
X551767Y383114D01*
X553000Y382951D01*
X554233Y383114D01*
X555383Y383590D01*
X556369Y384347D01*
X557127Y385334D01*
X557570Y386404D01*
X574021D01*
X574464Y385334D01*
X575221Y384347D01*
X576208Y383590D01*
X577357Y383114D01*
X578590Y382951D01*
X579824Y383114D01*
X580973Y383590D01*
X581960Y384347D01*
X582717Y385334D01*
X583193Y386483D01*
X583356Y387717D01*
X583193Y388950D01*
X582717Y390099D01*
X581960Y391086D01*
X580973Y391843D01*
X579824Y392319D01*
X578590Y392482D01*
D02*
G37*
G36*
X629095Y382830D02*
X628041Y382691D01*
X627059Y382285D01*
X626216Y381638D01*
X625569Y380795D01*
X625163Y379813D01*
X625024Y378760D01*
X625163Y377706D01*
X625569Y376725D01*
X626216Y375882D01*
X627059Y375235D01*
X628041Y374828D01*
X629095Y374690D01*
X630148Y374828D01*
X631130Y375235D01*
X631973Y375882D01*
X632619Y376725D01*
X633026Y377706D01*
X633165Y378760D01*
X633026Y379813D01*
X632619Y380795D01*
X631973Y381638D01*
X631130Y382285D01*
X630148Y382691D01*
X629095Y382830D01*
D02*
G37*
G36*
X617437Y381437D02*
X609563D01*
Y373563D01*
X617437D01*
Y381437D01*
D02*
G37*
G36*
X578984Y374713D02*
Y370394D01*
X583304D01*
X583193Y371233D01*
X582717Y372383D01*
X581960Y373370D01*
X580973Y374127D01*
X579824Y374603D01*
X578984Y374713D01*
D02*
G37*
G36*
X553394D02*
Y370394D01*
X557713D01*
X557603Y371233D01*
X557127Y372383D01*
X556369Y373370D01*
X555383Y374127D01*
X554233Y374603D01*
X553394Y374713D01*
D02*
G37*
G36*
X552606D02*
X551767Y374603D01*
X550617Y374127D01*
X549630Y373370D01*
X548873Y372383D01*
X548397Y371233D01*
X548287Y370394D01*
X552606D01*
Y374713D01*
D02*
G37*
G36*
X578197D02*
X577357Y374603D01*
X576208Y374127D01*
X575221Y373370D01*
X574464Y372383D01*
X573988Y371233D01*
X573877Y370394D01*
X578197D01*
Y374713D01*
D02*
G37*
G36*
X530500Y376772D02*
X529524Y376644D01*
X528614Y376267D01*
X527833Y375668D01*
X527233Y374886D01*
X526856Y373976D01*
X526728Y373000D01*
X526856Y372024D01*
X527233Y371114D01*
X527833Y370333D01*
X528614Y369733D01*
X529524Y369356D01*
X530500Y369228D01*
X531476Y369356D01*
X532386Y369733D01*
X533168Y370333D01*
X533767Y371114D01*
X534144Y372024D01*
X534272Y373000D01*
X534144Y373976D01*
X533767Y374886D01*
X533168Y375668D01*
X532386Y376267D01*
X531476Y376644D01*
X530500Y376772D01*
D02*
G37*
G36*
X652492Y384093D02*
X651464Y383958D01*
X650507Y383561D01*
X649684Y382930D01*
X649053Y382107D01*
X648657Y381150D01*
X648521Y380122D01*
X648657Y379094D01*
X649053Y378136D01*
X649684Y377314D01*
X650507Y376683D01*
X651056Y376456D01*
Y375914D01*
X650507Y375687D01*
X649684Y375056D01*
X649053Y374234D01*
X648657Y373276D01*
X648521Y372248D01*
X648657Y371220D01*
X649053Y370263D01*
X649684Y369440D01*
X650507Y368809D01*
X651464Y368412D01*
X652492Y368277D01*
X653520Y368412D01*
X654478Y368809D01*
X655300Y369440D01*
X655931Y370263D01*
X656328Y371220D01*
X656463Y372248D01*
X656328Y373276D01*
X655931Y374234D01*
X655300Y375056D01*
X654478Y375687D01*
X653929Y375914D01*
Y376456D01*
X654478Y376683D01*
X655300Y377314D01*
X655931Y378136D01*
X656328Y379094D01*
X656463Y380122D01*
X656328Y381150D01*
X655931Y382107D01*
X655300Y382930D01*
X654478Y383561D01*
X653520Y383958D01*
X652492Y384093D01*
D02*
G37*
G36*
X639500D02*
X638472Y383958D01*
X637514Y383561D01*
X636692Y382930D01*
X636061Y382107D01*
X635664Y381150D01*
X635529Y380122D01*
X635664Y379094D01*
X636061Y378137D01*
X636692Y377314D01*
X637514Y376683D01*
X638064Y376456D01*
Y375914D01*
X637514Y375687D01*
X636692Y375056D01*
X636061Y374234D01*
X635664Y373276D01*
X635529Y372248D01*
X635664Y371220D01*
X636061Y370263D01*
X636692Y369440D01*
X637514Y368809D01*
X638472Y368412D01*
X639500Y368277D01*
X640528Y368412D01*
X641486Y368809D01*
X642308Y369440D01*
X642939Y370263D01*
X643336Y371220D01*
X643471Y372248D01*
X643336Y373276D01*
X642939Y374234D01*
X642308Y375056D01*
X641486Y375687D01*
X640936Y375914D01*
Y376456D01*
X641486Y376683D01*
X642308Y377314D01*
X642939Y378137D01*
X643336Y379094D01*
X643471Y380122D01*
X643336Y381150D01*
X642939Y382107D01*
X642308Y382930D01*
X641486Y383561D01*
X640528Y383958D01*
X639500Y384093D01*
D02*
G37*
G36*
X583304Y369606D02*
X578984D01*
Y365287D01*
X579824Y365397D01*
X580973Y365873D01*
X581960Y366631D01*
X582717Y367617D01*
X583193Y368767D01*
X583304Y369606D01*
D02*
G37*
G36*
X557713D02*
X553394D01*
Y365287D01*
X554233Y365397D01*
X555383Y365873D01*
X556369Y366631D01*
X557127Y367617D01*
X557603Y368767D01*
X557713Y369606D01*
D02*
G37*
G36*
X552606D02*
X548287D01*
X548397Y368767D01*
X548873Y367617D01*
X549630Y366631D01*
X550617Y365873D01*
X551767Y365397D01*
X552606Y365287D01*
Y369606D01*
D02*
G37*
G36*
X578197D02*
X573877D01*
X573988Y368767D01*
X574464Y367617D01*
X575221Y366631D01*
X576208Y365873D01*
X577357Y365397D01*
X578197Y365287D01*
Y369606D01*
D02*
G37*
G36*
X613500Y371471D02*
X612472Y371336D01*
X611515Y370939D01*
X610692Y370308D01*
X610061Y369485D01*
X609664Y368528D01*
X609529Y367500D01*
X609664Y366472D01*
X610061Y365514D01*
X610692Y364692D01*
X611515Y364061D01*
X612472Y363664D01*
X613500Y363529D01*
X614528Y363664D01*
X615485Y364061D01*
X616308Y364692D01*
X616939Y365514D01*
X617336Y366472D01*
X617471Y367500D01*
X617336Y368528D01*
X616939Y369485D01*
X616308Y370308D01*
X615485Y370939D01*
X614528Y371336D01*
X613500Y371471D01*
D02*
G37*
G36*
X530894Y366721D02*
Y363394D01*
X534221D01*
X534144Y363976D01*
X533767Y364886D01*
X533168Y365668D01*
X532386Y366267D01*
X531476Y366644D01*
X530894Y366721D01*
D02*
G37*
G36*
X530106D02*
X529524Y366644D01*
X528614Y366267D01*
X527833Y365668D01*
X527233Y364886D01*
X526856Y363976D01*
X526779Y363394D01*
X530106D01*
Y366721D01*
D02*
G37*
G36*
X534221Y362606D02*
X530894D01*
Y359279D01*
X531476Y359356D01*
X532386Y359733D01*
X533168Y360332D01*
X533767Y361114D01*
X534144Y362024D01*
X534221Y362606D01*
D02*
G37*
G36*
X530106D02*
X526779D01*
X526856Y362024D01*
X527233Y361114D01*
X527833Y360332D01*
X528614Y359733D01*
X529524Y359356D01*
X530106Y359279D01*
Y362606D01*
D02*
G37*
G36*
X573000Y361345D02*
X571972Y361210D01*
X571014Y360813D01*
X570192Y360182D01*
X569561Y359360D01*
X569164Y358402D01*
X569029Y357374D01*
X569164Y356346D01*
X569561Y355388D01*
X570192Y354566D01*
X571014Y353935D01*
X571564Y353708D01*
Y353166D01*
X571014Y352939D01*
X570192Y352308D01*
X569561Y351485D01*
X569164Y350528D01*
X569081Y349894D01*
X573000D01*
X576919D01*
X576836Y350528D01*
X576439Y351485D01*
X575808Y352308D01*
X574986Y352939D01*
X574436Y353166D01*
Y353708D01*
X574986Y353935D01*
X575808Y354566D01*
X576439Y355388D01*
X576836Y356346D01*
X576971Y357374D01*
X576836Y358402D01*
X576439Y359360D01*
X575808Y360182D01*
X574986Y360813D01*
X574028Y361210D01*
X573000Y361345D01*
D02*
G37*
G36*
X530500Y356772D02*
X529524Y356644D01*
X528614Y356267D01*
X527833Y355667D01*
X527233Y354886D01*
X526856Y353976D01*
X526728Y353000D01*
X526856Y352024D01*
X527233Y351114D01*
X527833Y350332D01*
X528614Y349733D01*
X529524Y349356D01*
X530500Y349228D01*
X531476Y349356D01*
X532386Y349733D01*
X533168Y350332D01*
X533767Y351114D01*
X534144Y352024D01*
X534272Y353000D01*
X534144Y353976D01*
X533767Y354886D01*
X533168Y355667D01*
X532386Y356267D01*
X531476Y356644D01*
X530500Y356772D01*
D02*
G37*
G36*
X576919Y349106D02*
X573394D01*
Y345581D01*
X574028Y345664D01*
X574986Y346061D01*
X575808Y346692D01*
X576439Y347515D01*
X576836Y348472D01*
X576919Y349106D01*
D02*
G37*
G36*
X572606D02*
X569081D01*
X569164Y348472D01*
X569561Y347515D01*
X570192Y346692D01*
X571014Y346061D01*
X571972Y345664D01*
X572606Y345581D01*
Y349106D01*
D02*
G37*
G36*
X652492Y360471D02*
X651464Y360336D01*
X650507Y359939D01*
X649684Y359308D01*
X649053Y358486D01*
X648657Y357528D01*
X648521Y356500D01*
X648657Y355472D01*
X649053Y354515D01*
X649684Y353692D01*
X650507Y353061D01*
X651056Y352834D01*
Y352292D01*
X650507Y352065D01*
X649684Y351434D01*
X649053Y350611D01*
X648657Y349654D01*
X648521Y348626D01*
X648657Y347598D01*
X649053Y346640D01*
X649684Y345818D01*
X650507Y345187D01*
X651464Y344790D01*
X652492Y344655D01*
X653520Y344790D01*
X654478Y345187D01*
X655300Y345818D01*
X655931Y346640D01*
X656328Y347598D01*
X656463Y348626D01*
X656328Y349654D01*
X655931Y350611D01*
X655300Y351434D01*
X654478Y352065D01*
X653929Y352292D01*
Y352834D01*
X654478Y353061D01*
X655300Y353692D01*
X655931Y354515D01*
X656328Y355472D01*
X656463Y356500D01*
X656328Y357528D01*
X655931Y358486D01*
X655300Y359308D01*
X654478Y359939D01*
X653520Y360336D01*
X652492Y360471D01*
D02*
G37*
G36*
X639500D02*
X638472Y360336D01*
X637514Y359939D01*
X636692Y359308D01*
X636061Y358486D01*
X635664Y357528D01*
X635529Y356500D01*
X635664Y355472D01*
X636061Y354515D01*
X636692Y353692D01*
X637514Y353061D01*
X638064Y352834D01*
Y352292D01*
X637514Y352065D01*
X636692Y351434D01*
X636061Y350611D01*
X635664Y349654D01*
X635529Y348626D01*
X635664Y347598D01*
X636061Y346640D01*
X636692Y345818D01*
X637514Y345187D01*
X638472Y344790D01*
X639500Y344655D01*
X640528Y344790D01*
X641486Y345187D01*
X642308Y345818D01*
X642939Y346640D01*
X643336Y347598D01*
X643471Y348626D01*
X643336Y349654D01*
X642939Y350611D01*
X642308Y351434D01*
X641486Y352065D01*
X640936Y352292D01*
Y352834D01*
X641486Y353061D01*
X642308Y353692D01*
X642939Y354515D01*
X643336Y355472D01*
X643471Y356500D01*
X643336Y357528D01*
X642939Y358486D01*
X642308Y359308D01*
X641486Y359939D01*
X640528Y360336D01*
X639500Y360471D01*
D02*
G37*
G36*
X530500Y346772D02*
X529524Y346644D01*
X528614Y346267D01*
X527833Y345668D01*
X527233Y344886D01*
X526856Y343976D01*
X526728Y343000D01*
X526856Y342024D01*
X527233Y341114D01*
X527833Y340333D01*
X528614Y339733D01*
X529524Y339356D01*
X530500Y339228D01*
X531476Y339356D01*
X532386Y339733D01*
X533168Y340333D01*
X533767Y341114D01*
X534144Y342024D01*
X534272Y343000D01*
X534144Y343976D01*
X533767Y344886D01*
X533168Y345668D01*
X532386Y346267D01*
X531476Y346644D01*
X530500Y346772D01*
D02*
G37*
G36*
Y336772D02*
X529524Y336644D01*
X528614Y336267D01*
X527833Y335667D01*
X527233Y334886D01*
X526856Y333976D01*
X526728Y333000D01*
X526856Y332024D01*
X527233Y331114D01*
X527833Y330332D01*
X528614Y329733D01*
X529524Y329356D01*
X530500Y329228D01*
X531476Y329356D01*
X532386Y329733D01*
X533168Y330332D01*
X533767Y331114D01*
X534144Y332024D01*
X534272Y333000D01*
X534144Y333976D01*
X533767Y334886D01*
X533168Y335667D01*
X532386Y336267D01*
X531476Y336644D01*
X530500Y336772D01*
D02*
G37*
G36*
Y326772D02*
X529524Y326644D01*
X528614Y326267D01*
X527833Y325668D01*
X527233Y324886D01*
X526856Y323976D01*
X526728Y323000D01*
X526856Y322024D01*
X527233Y321114D01*
X527833Y320333D01*
X528614Y319733D01*
X529524Y319356D01*
X530500Y319228D01*
X531476Y319356D01*
X532386Y319733D01*
X533168Y320333D01*
X533767Y321114D01*
X534144Y322024D01*
X534272Y323000D01*
X534144Y323976D01*
X533767Y324886D01*
X533168Y325668D01*
X532386Y326267D01*
X531476Y326644D01*
X530500Y326772D01*
D02*
G37*
G36*
X500894Y306721D02*
Y303394D01*
X504221D01*
X504144Y303976D01*
X503767Y304886D01*
X503167Y305667D01*
X502386Y306267D01*
X501476Y306644D01*
X500894Y306721D01*
D02*
G37*
G36*
X504221Y302606D02*
X500894D01*
Y299279D01*
X501476Y299356D01*
X502386Y299733D01*
X503167Y300332D01*
X503767Y301114D01*
X504144Y302024D01*
X504221Y302606D01*
D02*
G37*
G36*
X530500Y316772D02*
X529524Y316644D01*
X528614Y316267D01*
X527833Y315668D01*
X527233Y314886D01*
X526856Y313976D01*
X526728Y313000D01*
X526856Y312024D01*
X527233Y311114D01*
X527833Y310332D01*
X528614Y309733D01*
X529524Y309356D01*
X530500Y309228D01*
X531476Y309356D01*
X532050Y309594D01*
X541072Y300572D01*
X541498Y300287D01*
X542000Y300187D01*
X595135D01*
X595249Y299912D01*
X595754Y299254D01*
X596412Y298749D01*
X597178Y298431D01*
X598000Y298323D01*
X598822Y298431D01*
X599588Y298749D01*
X600246Y299254D01*
X600751Y299912D01*
X601068Y300678D01*
X601177Y301500D01*
X601068Y302322D01*
X600751Y303088D01*
X600246Y303746D01*
X599588Y304251D01*
X598822Y304569D01*
X598000Y304677D01*
X597178Y304569D01*
X596412Y304251D01*
X595754Y303746D01*
X595249Y303088D01*
X595135Y302813D01*
X542544D01*
X533906Y311450D01*
X534144Y312024D01*
X534272Y313000D01*
X534144Y313976D01*
X533767Y314886D01*
X533168Y315668D01*
X532386Y316267D01*
X531476Y316644D01*
X530500Y316772D01*
D02*
G37*
G36*
Y306772D02*
X529524Y306644D01*
X528614Y306267D01*
X527833Y305667D01*
X527233Y304886D01*
X526856Y303976D01*
X526728Y303000D01*
X526856Y302024D01*
X527233Y301114D01*
X527833Y300332D01*
X528614Y299733D01*
X529524Y299356D01*
X530500Y299228D01*
X531476Y299356D01*
X532050Y299594D01*
X540879Y290765D01*
X541305Y290480D01*
X541807Y290380D01*
X577493D01*
X577721Y289829D01*
X578226Y289171D01*
X578884Y288666D01*
X579650Y288349D01*
X580472Y288241D01*
X581295Y288349D01*
X582061Y288666D01*
X582719Y289171D01*
X583224Y289829D01*
X583541Y290595D01*
X583649Y291417D01*
X583541Y292239D01*
X583224Y293006D01*
X582719Y293664D01*
X582061Y294168D01*
X581295Y294486D01*
X580472Y294594D01*
X579650Y294486D01*
X578884Y294168D01*
X578226Y293664D01*
X577721Y293006D01*
X577721Y293005D01*
X542351D01*
X533906Y301450D01*
X534144Y302024D01*
X534272Y303000D01*
X534144Y303976D01*
X533767Y304886D01*
X533168Y305667D01*
X532386Y306267D01*
X531476Y306644D01*
X530500Y306772D01*
D02*
G37*
G36*
X530894Y286721D02*
Y283394D01*
X534221D01*
X534144Y283976D01*
X533767Y284886D01*
X533168Y285667D01*
X532386Y286267D01*
X531476Y286644D01*
X530894Y286721D01*
D02*
G37*
G36*
X530106D02*
X529524Y286644D01*
X528614Y286267D01*
X527833Y285667D01*
X527233Y284886D01*
X526856Y283976D01*
X526779Y283394D01*
X530106D01*
Y286721D01*
D02*
G37*
G36*
X534221Y282606D02*
X530894D01*
Y279279D01*
X531476Y279356D01*
X532386Y279733D01*
X533168Y280332D01*
X533767Y281114D01*
X534144Y282024D01*
X534221Y282606D01*
D02*
G37*
G36*
X530106D02*
X526779D01*
X526856Y282024D01*
X527233Y281114D01*
X527833Y280332D01*
X528614Y279733D01*
X529524Y279356D01*
X530106Y279279D01*
Y282606D01*
D02*
G37*
G36*
X603000Y284177D02*
X602178Y284068D01*
X601412Y283751D01*
X600754Y283246D01*
X600249Y282588D01*
X600135Y282313D01*
X596970D01*
X596467Y282213D01*
X596042Y281928D01*
X571426Y257313D01*
X570439D01*
X570407Y257390D01*
X569966Y257965D01*
X569673Y258190D01*
Y258810D01*
X569966Y259034D01*
X570407Y259610D01*
X570685Y260281D01*
X570728Y260606D01*
X568000D01*
X565272D01*
X565315Y260281D01*
X565593Y259610D01*
X566035Y259034D01*
X566327Y258810D01*
Y258190D01*
X566035Y257965D01*
X565593Y257390D01*
X565315Y256719D01*
X565220Y256000D01*
X565315Y255281D01*
X565593Y254610D01*
X565865Y254256D01*
X565618Y253756D01*
X565244D01*
Y248244D01*
X566687D01*
Y246000D01*
X566787Y245498D01*
X567072Y245072D01*
X574687Y237456D01*
Y233000D01*
X574787Y232498D01*
X575072Y232072D01*
X581895Y225249D01*
X581740Y224874D01*
X581625Y224000D01*
X581740Y223126D01*
X582077Y222312D01*
X582613Y221613D01*
X583312Y221077D01*
X584126Y220740D01*
X585000Y220625D01*
X585874Y220740D01*
X586688Y221077D01*
X587387Y221613D01*
X587923Y222312D01*
X588260Y223126D01*
X588375Y224000D01*
X588260Y224874D01*
X587923Y225688D01*
X587387Y226387D01*
X586688Y226923D01*
X585874Y227260D01*
X585000Y227375D01*
X584126Y227260D01*
X583751Y227105D01*
X577313Y233544D01*
Y238000D01*
X577213Y238502D01*
X576928Y238928D01*
X569313Y246544D01*
Y248244D01*
X570756D01*
Y253756D01*
X570382D01*
X570135Y254256D01*
X570407Y254610D01*
X570439Y254687D01*
X571970D01*
X572472Y254787D01*
X572898Y255072D01*
X590307Y272481D01*
X590713Y272180D01*
X590169Y271162D01*
X589764Y269826D01*
X589627Y268437D01*
X589764Y267048D01*
X590169Y265712D01*
X590827Y264481D01*
X591713Y263402D01*
X592792Y262516D01*
X594023Y261858D01*
X595359Y261453D01*
X596748Y261316D01*
X598137Y261453D01*
X599473Y261858D01*
X600704Y262516D01*
X601783Y263402D01*
X602669Y264481D01*
X603327Y265712D01*
X603732Y267048D01*
X603869Y268437D01*
X603732Y269826D01*
X603327Y271162D01*
X602669Y272393D01*
X601783Y273472D01*
X600704Y274358D01*
X599473Y275016D01*
X598137Y275421D01*
X596748Y275558D01*
X595359Y275421D01*
X594023Y275016D01*
X593005Y274472D01*
X592704Y274878D01*
X597514Y279687D01*
X600135D01*
X600249Y279412D01*
X600754Y278754D01*
X601412Y278249D01*
X602178Y277931D01*
X603000Y277823D01*
X603822Y277931D01*
X604588Y278249D01*
X605246Y278754D01*
X605751Y279412D01*
X606069Y280178D01*
X606177Y281000D01*
X606069Y281822D01*
X605751Y282588D01*
X605246Y283246D01*
X604588Y283751D01*
X603822Y284068D01*
X603000Y284177D01*
D02*
G37*
G36*
X530500Y296772D02*
X529524Y296644D01*
X528614Y296267D01*
X527833Y295668D01*
X527233Y294886D01*
X526856Y293976D01*
X526728Y293000D01*
X526856Y292024D01*
X527233Y291114D01*
X527833Y290333D01*
X528614Y289733D01*
X529524Y289356D01*
X530500Y289228D01*
X531476Y289356D01*
X531829Y289502D01*
X542035Y279296D01*
X541664Y278402D01*
X541529Y277374D01*
X541664Y276346D01*
X542061Y275389D01*
X542692Y274566D01*
X543514Y273935D01*
X544064Y273708D01*
Y273166D01*
X543514Y272939D01*
X542692Y272308D01*
X542061Y271485D01*
X541664Y270528D01*
X541581Y269894D01*
X545500D01*
X549419D01*
X549336Y270528D01*
X548939Y271485D01*
X548308Y272308D01*
X547485Y272939D01*
X546936Y273166D01*
Y273708D01*
X547485Y273935D01*
X548308Y274566D01*
X548939Y275389D01*
X549336Y276346D01*
X549471Y277374D01*
X549336Y278402D01*
X548939Y279360D01*
X548308Y280182D01*
X547485Y280813D01*
X546528Y281210D01*
X545500Y281345D01*
X544472Y281210D01*
X544021Y281023D01*
X533815Y291229D01*
X534144Y292024D01*
X534272Y293000D01*
X534144Y293976D01*
X533767Y294886D01*
X533168Y295668D01*
X532386Y296267D01*
X531476Y296644D01*
X530500Y296772D01*
D02*
G37*
G36*
Y276772D02*
X529524Y276644D01*
X528614Y276267D01*
X527833Y275668D01*
X527233Y274886D01*
X526856Y273976D01*
X526728Y273000D01*
X526856Y272024D01*
X527233Y271114D01*
X527833Y270333D01*
X528614Y269733D01*
X529524Y269356D01*
X530500Y269228D01*
X531476Y269356D01*
X532386Y269733D01*
X533168Y270333D01*
X533767Y271114D01*
X534144Y272024D01*
X534272Y273000D01*
X534144Y273976D01*
X533767Y274886D01*
X533168Y275668D01*
X532386Y276267D01*
X531476Y276644D01*
X530500Y276772D01*
D02*
G37*
G36*
X549419Y269106D02*
X545894D01*
Y265581D01*
X546528Y265664D01*
X547485Y266061D01*
X548308Y266692D01*
X548939Y267514D01*
X549336Y268472D01*
X549419Y269106D01*
D02*
G37*
G36*
X545106D02*
X541581D01*
X541664Y268472D01*
X542061Y267514D01*
X542692Y266692D01*
X543514Y266061D01*
X544472Y265664D01*
X545106Y265581D01*
Y269106D01*
D02*
G37*
G36*
X568394Y263728D02*
Y261394D01*
X570728D01*
X570685Y261719D01*
X570407Y262390D01*
X569966Y262965D01*
X569390Y263407D01*
X568719Y263685D01*
X568394Y263728D01*
D02*
G37*
G36*
X567606D02*
X567281Y263685D01*
X566610Y263407D01*
X566035Y262965D01*
X565593Y262390D01*
X565315Y261719D01*
X565272Y261394D01*
X567606D01*
Y263728D01*
D02*
G37*
G36*
X530500Y266772D02*
X529524Y266644D01*
X528614Y266267D01*
X527833Y265668D01*
X527233Y264886D01*
X526856Y263976D01*
X526728Y263000D01*
X526856Y262024D01*
X527233Y261114D01*
X527833Y260332D01*
X528614Y259733D01*
X529524Y259356D01*
X530500Y259228D01*
X531476Y259356D01*
X532386Y259733D01*
X533168Y260332D01*
X533767Y261114D01*
X534144Y262024D01*
X534272Y263000D01*
X534144Y263976D01*
X533767Y264886D01*
X533168Y265668D01*
X532386Y266267D01*
X531476Y266644D01*
X530500Y266772D01*
D02*
G37*
G36*
X500500Y246772D02*
X499524Y246644D01*
X498614Y246267D01*
X497832Y245668D01*
X497233Y244886D01*
X496856Y243976D01*
X496728Y243000D01*
X496856Y242024D01*
X497233Y241114D01*
X497832Y240333D01*
X498614Y239733D01*
X499524Y239356D01*
X500500Y239228D01*
X501476Y239356D01*
X502386Y239733D01*
X503167Y240333D01*
X503767Y241114D01*
X504144Y242024D01*
X504272Y243000D01*
X504144Y243976D01*
X503767Y244886D01*
X503167Y245668D01*
X502386Y246267D01*
X501476Y246644D01*
X500500Y246772D01*
D02*
G37*
G36*
X568394Y240228D02*
Y237894D01*
X570728D01*
X570685Y238219D01*
X570407Y238890D01*
X569966Y239465D01*
X569390Y239907D01*
X568719Y240185D01*
X568394Y240228D01*
D02*
G37*
G36*
X567606D02*
X567281Y240185D01*
X566610Y239907D01*
X566035Y239465D01*
X565593Y238890D01*
X565315Y238219D01*
X565272Y237894D01*
X567606D01*
Y240228D01*
D02*
G37*
G36*
X645000Y237375D02*
X644126Y237260D01*
X643312Y236923D01*
X642613Y236387D01*
X642077Y235688D01*
X641740Y234874D01*
X641625Y234000D01*
X641740Y233126D01*
X642077Y232312D01*
X642613Y231613D01*
X643312Y231077D01*
X644126Y230740D01*
X645000Y230625D01*
X645874Y230740D01*
X646688Y231077D01*
X647387Y231613D01*
X647923Y232312D01*
X648260Y233126D01*
X648375Y234000D01*
X648260Y234874D01*
X647923Y235688D01*
X647387Y236387D01*
X646688Y236923D01*
X645874Y237260D01*
X645000Y237375D01*
D02*
G37*
G36*
X585000D02*
X584126Y237260D01*
X583312Y236923D01*
X582613Y236387D01*
X582077Y235688D01*
X581740Y234874D01*
X581625Y234000D01*
X581740Y233126D01*
X582077Y232312D01*
X582613Y231613D01*
X583312Y231077D01*
X584126Y230740D01*
X585000Y230625D01*
X585874Y230740D01*
X586688Y231077D01*
X587387Y231613D01*
X587923Y232312D01*
X588260Y233126D01*
X588375Y234000D01*
X588260Y234874D01*
X587923Y235688D01*
X587387Y236387D01*
X586688Y236923D01*
X585874Y237260D01*
X585000Y237375D01*
D02*
G37*
G36*
X645000Y227375D02*
X644126Y227260D01*
X643312Y226923D01*
X642613Y226387D01*
X642077Y225688D01*
X641740Y224874D01*
X641625Y224000D01*
X641740Y223126D01*
X642077Y222312D01*
X642613Y221613D01*
X643312Y221077D01*
X644126Y220740D01*
X645000Y220625D01*
X645874Y220740D01*
X646688Y221077D01*
X647387Y221613D01*
X647923Y222312D01*
X648260Y223126D01*
X648375Y224000D01*
X648260Y224874D01*
X647923Y225688D01*
X647387Y226387D01*
X646688Y226923D01*
X645874Y227260D01*
X645000Y227375D01*
D02*
G37*
G36*
X489000Y377964D02*
X487715Y377795D01*
X486518Y377299D01*
X485490Y376510D01*
X484701Y375482D01*
X484205Y374285D01*
X484036Y373000D01*
X484205Y371715D01*
X484701Y370518D01*
X485490Y369490D01*
X486518Y368701D01*
X487592Y368257D01*
X487592Y368256D01*
Y367744D01*
X487592Y367743D01*
X486518Y367299D01*
X485490Y366510D01*
X484701Y365482D01*
X484205Y364285D01*
X484036Y363000D01*
X484205Y361715D01*
X484701Y360518D01*
X485490Y359490D01*
X486518Y358701D01*
X487592Y358257D01*
X487592Y358256D01*
Y357744D01*
X487592Y357743D01*
X486518Y357299D01*
X485490Y356510D01*
X484701Y355482D01*
X484205Y354285D01*
X484088Y353394D01*
X489000D01*
Y352606D01*
X484088D01*
X484205Y351715D01*
X484701Y350518D01*
X485490Y349490D01*
X486518Y348701D01*
X487592Y348257D01*
X487592Y348256D01*
Y347744D01*
X487592Y347743D01*
X486518Y347299D01*
X485490Y346510D01*
X484701Y345482D01*
X484205Y344285D01*
X484036Y343000D01*
X484205Y341715D01*
X484701Y340518D01*
X485490Y339490D01*
X486518Y338701D01*
X487592Y338257D01*
X487592Y338256D01*
Y337744D01*
X487592Y337743D01*
X486518Y337299D01*
X485490Y336510D01*
X484701Y335482D01*
X484205Y334285D01*
X484036Y333000D01*
X484205Y331715D01*
X484701Y330518D01*
X485490Y329490D01*
X486518Y328701D01*
X487715Y328205D01*
X489000Y328036D01*
X490285Y328205D01*
X491482Y328701D01*
X492510Y329490D01*
X493299Y330518D01*
X493687Y331456D01*
X494187Y331357D01*
Y258000D01*
X494287Y257498D01*
X494572Y257072D01*
X497094Y254550D01*
X496856Y253976D01*
X496728Y253000D01*
X496856Y252024D01*
X497233Y251114D01*
X497832Y250332D01*
X498614Y249733D01*
X499524Y249356D01*
X500500Y249228D01*
X501476Y249356D01*
X502386Y249733D01*
X503167Y250332D01*
X503767Y251114D01*
X504144Y252024D01*
X504272Y253000D01*
X504144Y253976D01*
X503767Y254886D01*
X503167Y255667D01*
X502386Y256267D01*
X501476Y256644D01*
X500500Y256772D01*
X499524Y256644D01*
X498950Y256406D01*
X496813Y258544D01*
Y260881D01*
X496864Y260909D01*
X497313Y261010D01*
X497832Y260332D01*
X498614Y259733D01*
X499524Y259356D01*
X500500Y259228D01*
X501476Y259356D01*
X502386Y259733D01*
X502400Y259744D01*
X505687Y256456D01*
Y228000D01*
X505787Y227498D01*
X506072Y227072D01*
X526063Y207081D01*
Y201063D01*
X533687D01*
Y192544D01*
X532081Y190937D01*
X526063D01*
Y183063D01*
X533937D01*
Y189081D01*
X535928Y191072D01*
X536213Y191498D01*
X536313Y192000D01*
Y202517D01*
X536813Y202687D01*
X537192Y202192D01*
X538015Y201561D01*
X538972Y201164D01*
X540000Y201029D01*
X541028Y201164D01*
X541986Y201561D01*
X542808Y202192D01*
X543439Y203014D01*
X543836Y203972D01*
X543971Y205000D01*
X543836Y206028D01*
X543439Y206985D01*
X542808Y207808D01*
X541986Y208439D01*
X541028Y208836D01*
X540000Y208971D01*
X538972Y208836D01*
X538015Y208439D01*
X537192Y207808D01*
X536813Y207313D01*
X536313Y207483D01*
Y221017D01*
X536813Y221187D01*
X537192Y220692D01*
X538015Y220061D01*
X538972Y219664D01*
X540000Y219529D01*
X541028Y219664D01*
X541986Y220061D01*
X542808Y220692D01*
X543439Y221515D01*
X543836Y222472D01*
X543971Y223500D01*
X543836Y224528D01*
X543439Y225485D01*
X542808Y226308D01*
X541986Y226939D01*
X541028Y227336D01*
X540000Y227471D01*
X538972Y227336D01*
X538015Y226939D01*
X537192Y226308D01*
X536813Y225813D01*
X536313Y225983D01*
Y246000D01*
X536213Y246502D01*
X535928Y246928D01*
X533928Y248928D01*
X533502Y249213D01*
X533000Y249313D01*
X532619D01*
X532591Y249364D01*
X532490Y249813D01*
X533168Y250332D01*
X533767Y251114D01*
X534144Y252024D01*
X534272Y253000D01*
X534144Y253976D01*
X533767Y254886D01*
X533168Y255667D01*
X532386Y256267D01*
X531476Y256644D01*
X530500Y256772D01*
X529524Y256644D01*
X528614Y256267D01*
X527833Y255667D01*
X527233Y254886D01*
X526856Y253976D01*
X526728Y253000D01*
X526856Y252024D01*
X527233Y251114D01*
X527833Y250332D01*
X528510Y249813D01*
X528409Y249364D01*
X528381Y249313D01*
X527544D01*
X515813Y261044D01*
Y349000D01*
X515713Y349502D01*
X515428Y349928D01*
X503906Y361450D01*
X504144Y362024D01*
X504272Y363000D01*
X504144Y363976D01*
X503767Y364886D01*
X503167Y365668D01*
X502386Y366267D01*
X501476Y366644D01*
X500500Y366772D01*
X499524Y366644D01*
X498614Y366267D01*
X497832Y365668D01*
X497233Y364886D01*
X496856Y363976D01*
X496728Y363000D01*
X496856Y362024D01*
X497233Y361114D01*
X497832Y360332D01*
X498614Y359733D01*
X499524Y359356D01*
X500500Y359228D01*
X501476Y359356D01*
X502050Y359594D01*
X513187Y348456D01*
Y282876D01*
X512687Y282669D01*
X503906Y291450D01*
X504144Y292024D01*
X504272Y293000D01*
X504144Y293976D01*
X503767Y294886D01*
X503167Y295668D01*
X502386Y296267D01*
X501476Y296644D01*
X500500Y296772D01*
X499524Y296644D01*
X498614Y296267D01*
X497832Y295668D01*
X497313Y294990D01*
X496864Y295091D01*
X496813Y295119D01*
Y300881D01*
X496864Y300909D01*
X497313Y301010D01*
X497832Y300332D01*
X498614Y299733D01*
X499524Y299356D01*
X500106Y299279D01*
Y303000D01*
Y306721D01*
X499524Y306644D01*
X498614Y306267D01*
X497832Y305667D01*
X497313Y304990D01*
X496864Y305091D01*
X496813Y305119D01*
Y310881D01*
X496864Y310909D01*
X497313Y311010D01*
X497832Y310332D01*
X498614Y309733D01*
X499524Y309356D01*
X500500Y309228D01*
X501476Y309356D01*
X502386Y309733D01*
X503167Y310332D01*
X503767Y311114D01*
X504144Y312024D01*
X504272Y313000D01*
X504144Y313976D01*
X503767Y314886D01*
X503167Y315668D01*
X502386Y316267D01*
X501476Y316644D01*
X500500Y316772D01*
X499524Y316644D01*
X498614Y316267D01*
X497832Y315668D01*
X497313Y314990D01*
X496864Y315091D01*
X496813Y315119D01*
Y320881D01*
X496864Y320909D01*
X497313Y321010D01*
X497832Y320333D01*
X498614Y319733D01*
X499524Y319356D01*
X500500Y319228D01*
X501476Y319356D01*
X502386Y319733D01*
X503167Y320333D01*
X503767Y321114D01*
X504144Y322024D01*
X504272Y323000D01*
X504144Y323976D01*
X503767Y324886D01*
X503167Y325668D01*
X502386Y326267D01*
X501476Y326644D01*
X500500Y326772D01*
X499524Y326644D01*
X498614Y326267D01*
X497832Y325668D01*
X497313Y324990D01*
X496864Y325091D01*
X496813Y325119D01*
Y330881D01*
X496864Y330909D01*
X497313Y331010D01*
X497832Y330332D01*
X498614Y329733D01*
X499524Y329356D01*
X500500Y329228D01*
X501476Y329356D01*
X502386Y329733D01*
X503167Y330332D01*
X503767Y331114D01*
X504144Y332024D01*
X504272Y333000D01*
X504144Y333976D01*
X503767Y334886D01*
X503167Y335667D01*
X502386Y336267D01*
X501476Y336644D01*
X500500Y336772D01*
X499524Y336644D01*
X498614Y336267D01*
X497832Y335667D01*
X497313Y334990D01*
X496864Y335091D01*
X496813Y335119D01*
Y340881D01*
X496864Y340909D01*
X497313Y341010D01*
X497832Y340333D01*
X498614Y339733D01*
X499524Y339356D01*
X500500Y339228D01*
X501476Y339356D01*
X502386Y339733D01*
X503167Y340333D01*
X503767Y341114D01*
X504144Y342024D01*
X504272Y343000D01*
X504144Y343976D01*
X503767Y344886D01*
X503167Y345668D01*
X502386Y346267D01*
X501476Y346644D01*
X500500Y346772D01*
X499524Y346644D01*
X498614Y346267D01*
X497832Y345668D01*
X497313Y344990D01*
X496864Y345091D01*
X496813Y345119D01*
Y350881D01*
X496864Y350909D01*
X497313Y351010D01*
X497832Y350332D01*
X498614Y349733D01*
X499524Y349356D01*
X500500Y349228D01*
X501476Y349356D01*
X502386Y349733D01*
X503167Y350332D01*
X503767Y351114D01*
X504144Y352024D01*
X504272Y353000D01*
X504144Y353976D01*
X503767Y354886D01*
X503167Y355667D01*
X502386Y356267D01*
X501476Y356644D01*
X500500Y356772D01*
X499524Y356644D01*
X498614Y356267D01*
X497832Y355667D01*
X497313Y354990D01*
X496864Y355091D01*
X496813Y355119D01*
Y356500D01*
X496713Y357002D01*
X496428Y357428D01*
X493310Y360546D01*
X493795Y361715D01*
X493964Y363000D01*
X493795Y364285D01*
X493299Y365482D01*
X492510Y366510D01*
X491482Y367299D01*
X490408Y367743D01*
X490408Y367744D01*
Y368256D01*
X490408Y368257D01*
X491482Y368701D01*
X492510Y369490D01*
X493299Y370518D01*
X493795Y371715D01*
X493964Y373000D01*
X493795Y374285D01*
X493299Y375482D01*
X492510Y376510D01*
X491482Y377299D01*
X490285Y377795D01*
X489000Y377964D01*
D02*
G37*
G36*
X568394Y217228D02*
Y214894D01*
X570728D01*
X570685Y215219D01*
X570407Y215890D01*
X569966Y216465D01*
X569390Y216907D01*
X568719Y217185D01*
X568394Y217228D01*
D02*
G37*
G36*
X567606D02*
X567281Y217185D01*
X566610Y216907D01*
X566035Y216465D01*
X565593Y215890D01*
X565315Y215219D01*
X565272Y214894D01*
X567606D01*
Y217228D01*
D02*
G37*
G36*
X645000Y217375D02*
X644126Y217260D01*
X643312Y216923D01*
X642613Y216387D01*
X642077Y215688D01*
X641740Y214874D01*
X641625Y214000D01*
X641740Y213126D01*
X642077Y212312D01*
X642613Y211613D01*
X643312Y211077D01*
X644126Y210740D01*
X645000Y210625D01*
X645874Y210740D01*
X646688Y211077D01*
X647387Y211613D01*
X647923Y212312D01*
X648260Y213126D01*
X648375Y214000D01*
X648260Y214874D01*
X647923Y215688D01*
X647387Y216387D01*
X646688Y216923D01*
X645874Y217260D01*
X645000Y217375D01*
D02*
G37*
G36*
X570728Y237106D02*
X568000D01*
X565272D01*
X565315Y236781D01*
X565593Y236110D01*
X566035Y235535D01*
X566327Y235310D01*
Y234690D01*
X566035Y234466D01*
X565593Y233890D01*
X565315Y233219D01*
X565220Y232500D01*
X565315Y231781D01*
X565593Y231110D01*
X565865Y230756D01*
X565618Y230256D01*
X565244D01*
Y224744D01*
X570756D01*
Y225681D01*
X571256Y225888D01*
X581895Y215249D01*
X581740Y214874D01*
X581625Y214000D01*
X581740Y213126D01*
X582077Y212312D01*
X582613Y211613D01*
X583312Y211077D01*
X584126Y210740D01*
X585000Y210625D01*
X585874Y210740D01*
X586688Y211077D01*
X587387Y211613D01*
X587923Y212312D01*
X588260Y213126D01*
X588375Y214000D01*
X588260Y214874D01*
X587923Y215688D01*
X587387Y216387D01*
X586688Y216923D01*
X585874Y217260D01*
X585000Y217375D01*
X584126Y217260D01*
X583751Y217105D01*
X572428Y228428D01*
X572002Y228713D01*
X571500Y228813D01*
X570756D01*
Y230256D01*
X570382D01*
X570135Y230756D01*
X570407Y231110D01*
X570685Y231781D01*
X570780Y232500D01*
X570685Y233219D01*
X570407Y233890D01*
X569966Y234466D01*
X569673Y234690D01*
Y235310D01*
X569966Y235535D01*
X570407Y236110D01*
X570685Y236781D01*
X570728Y237106D01*
D02*
G37*
G36*
X617000Y341177D02*
X616178Y341069D01*
X615412Y340751D01*
X614754Y340246D01*
X614249Y339588D01*
X613932Y338822D01*
X613823Y338000D01*
X613932Y337178D01*
X614249Y336412D01*
X614754Y335754D01*
X615412Y335249D01*
X615687Y335135D01*
Y236544D01*
X586249Y207105D01*
X585874Y207260D01*
X585000Y207375D01*
X584126Y207260D01*
X583312Y206923D01*
X582613Y206387D01*
X582077Y205688D01*
X581740Y204874D01*
X581625Y204000D01*
X581740Y203126D01*
X582077Y202312D01*
X582613Y201613D01*
X583312Y201077D01*
X584126Y200740D01*
X585000Y200625D01*
X585874Y200740D01*
X586688Y201077D01*
X587387Y201613D01*
X587923Y202312D01*
X588260Y203126D01*
X588375Y204000D01*
X588260Y204874D01*
X588105Y205249D01*
X617928Y235072D01*
X618213Y235498D01*
X618313Y236000D01*
Y335135D01*
X618588Y335249D01*
X619246Y335754D01*
X619751Y336412D01*
X620069Y337178D01*
X620177Y338000D01*
X620069Y338822D01*
X619751Y339588D01*
X619246Y340246D01*
X618588Y340751D01*
X617822Y341069D01*
X617000Y341177D01*
D02*
G37*
G36*
X645394Y207324D02*
Y204394D01*
X648323D01*
X648260Y204874D01*
X647923Y205688D01*
X647387Y206387D01*
X646688Y206923D01*
X645874Y207260D01*
X645394Y207324D01*
D02*
G37*
G36*
X644606D02*
X644126Y207260D01*
X643312Y206923D01*
X642613Y206387D01*
X642077Y205688D01*
X641740Y204874D01*
X641677Y204394D01*
X644606D01*
Y207324D01*
D02*
G37*
G36*
X648323Y203606D02*
X645394D01*
Y200676D01*
X645874Y200740D01*
X646688Y201077D01*
X647387Y201613D01*
X647923Y202312D01*
X648260Y203126D01*
X648323Y203606D01*
D02*
G37*
G36*
X644606D02*
X641677D01*
X641740Y203126D01*
X642077Y202312D01*
X642613Y201613D01*
X643312Y201077D01*
X644126Y200740D01*
X644606Y200676D01*
Y203606D01*
D02*
G37*
G36*
X622500Y331177D02*
X621678Y331068D01*
X620912Y330751D01*
X620254Y330246D01*
X619749Y329588D01*
X619431Y328822D01*
X619323Y328000D01*
X619431Y327178D01*
X619749Y326412D01*
X620254Y325754D01*
X620912Y325249D01*
X621187Y325135D01*
Y232044D01*
X586249Y197105D01*
X585874Y197260D01*
X585000Y197375D01*
X584126Y197260D01*
X583312Y196923D01*
X582613Y196387D01*
X582077Y195688D01*
X581740Y194874D01*
X581625Y194000D01*
X581740Y193126D01*
X582077Y192312D01*
X582613Y191613D01*
X583312Y191077D01*
X584126Y190740D01*
X585000Y190625D01*
X585874Y190740D01*
X586688Y191077D01*
X587387Y191613D01*
X587923Y192312D01*
X588260Y193126D01*
X588375Y194000D01*
X588260Y194874D01*
X588105Y195249D01*
X623428Y230572D01*
X623713Y230998D01*
X623813Y231500D01*
Y325135D01*
X624088Y325249D01*
X624746Y325754D01*
X625251Y326412D01*
X625568Y327178D01*
X625677Y328000D01*
X625568Y328822D01*
X625251Y329588D01*
X624746Y330246D01*
X624088Y330751D01*
X623322Y331068D01*
X622500Y331177D01*
D02*
G37*
G36*
X496894Y194793D02*
Y191268D01*
X500419D01*
X500336Y191902D01*
X499939Y192859D01*
X499308Y193682D01*
X498486Y194313D01*
X497528Y194710D01*
X496894Y194793D01*
D02*
G37*
G36*
X496106D02*
X495472Y194710D01*
X494515Y194313D01*
X493692Y193682D01*
X493061Y192859D01*
X492664Y191902D01*
X492581Y191268D01*
X496106D01*
Y194793D01*
D02*
G37*
G36*
X645000Y197375D02*
X644126Y197260D01*
X643312Y196923D01*
X642613Y196387D01*
X642077Y195688D01*
X641740Y194874D01*
X641625Y194000D01*
X641740Y193126D01*
X642077Y192312D01*
X642613Y191613D01*
X643312Y191077D01*
X644126Y190740D01*
X645000Y190625D01*
X645874Y190740D01*
X646688Y191077D01*
X647387Y191613D01*
X647923Y192312D01*
X648260Y193126D01*
X648375Y194000D01*
X648260Y194874D01*
X647923Y195688D01*
X647387Y196387D01*
X646688Y196923D01*
X645874Y197260D01*
X645000Y197375D01*
D02*
G37*
G36*
X540000Y190971D02*
X538972Y190836D01*
X538015Y190439D01*
X537192Y189808D01*
X536561Y188986D01*
X536164Y188028D01*
X536029Y187000D01*
X536164Y185972D01*
X536561Y185014D01*
X537192Y184192D01*
X538015Y183561D01*
X538972Y183164D01*
X540000Y183029D01*
X541028Y183164D01*
X541986Y183561D01*
X542808Y184192D01*
X543439Y185014D01*
X543836Y185972D01*
X543971Y187000D01*
X543836Y188028D01*
X543439Y188986D01*
X542808Y189808D01*
X541986Y190439D01*
X541028Y190836D01*
X540000Y190971D01*
D02*
G37*
G36*
X645000Y187375D02*
X644126Y187260D01*
X643312Y186923D01*
X642613Y186387D01*
X642077Y185688D01*
X641740Y184874D01*
X641625Y184000D01*
X641740Y183126D01*
X642077Y182312D01*
X642613Y181613D01*
X643312Y181077D01*
X644126Y180740D01*
X645000Y180625D01*
X645874Y180740D01*
X646688Y181077D01*
X647387Y181613D01*
X647923Y182312D01*
X648260Y183126D01*
X648375Y184000D01*
X648260Y184874D01*
X647923Y185688D01*
X647387Y186387D01*
X646688Y186923D01*
X645874Y187260D01*
X645000Y187375D01*
D02*
G37*
G36*
X570728Y214106D02*
X568000D01*
X565272D01*
X565315Y213781D01*
X565593Y213110D01*
X566035Y212534D01*
X566327Y212310D01*
Y211690D01*
X566035Y211466D01*
X565593Y210890D01*
X565315Y210219D01*
X565220Y209500D01*
X565315Y208781D01*
X565593Y208110D01*
X565865Y207756D01*
X565618Y207256D01*
X565244D01*
Y201744D01*
X566687D01*
Y201000D01*
X566787Y200498D01*
X567072Y200072D01*
X581895Y185249D01*
X581740Y184874D01*
X581625Y184000D01*
X581740Y183126D01*
X582077Y182312D01*
X582613Y181613D01*
X583312Y181077D01*
X584126Y180740D01*
X585000Y180625D01*
X585874Y180740D01*
X586688Y181077D01*
X587387Y181613D01*
X587923Y182312D01*
X588260Y183126D01*
X588375Y184000D01*
X588260Y184874D01*
X587923Y185688D01*
X587387Y186387D01*
X586688Y186923D01*
X585874Y187260D01*
X585000Y187375D01*
X584126Y187260D01*
X583751Y187105D01*
X569612Y201244D01*
X569819Y201744D01*
X570756D01*
Y207256D01*
X570382D01*
X570135Y207756D01*
X570407Y208110D01*
X570685Y208781D01*
X570780Y209500D01*
X570685Y210219D01*
X570407Y210890D01*
X569966Y211466D01*
X569673Y211690D01*
Y212310D01*
X569966Y212534D01*
X570407Y213110D01*
X570685Y213781D01*
X570728Y214106D01*
D02*
G37*
G36*
X500419Y190480D02*
X496500D01*
X492581D01*
X492664Y189846D01*
X493061Y188889D01*
X493692Y188066D01*
X494515Y187435D01*
X495064Y187208D01*
Y186666D01*
X494515Y186439D01*
X493692Y185808D01*
X493061Y184985D01*
X492664Y184028D01*
X492529Y183000D01*
X492664Y181972D01*
X493061Y181015D01*
X493692Y180192D01*
X494515Y179561D01*
X495472Y179164D01*
X496500Y179029D01*
X497528Y179164D01*
X498201Y179443D01*
X504572Y173072D01*
X504998Y172787D01*
X505500Y172687D01*
X536135D01*
X536249Y172412D01*
X536754Y171754D01*
X537412Y171249D01*
X538178Y170931D01*
X539000Y170823D01*
X539822Y170931D01*
X540588Y171249D01*
X541246Y171754D01*
X541751Y172412D01*
X542068Y173178D01*
X542177Y174000D01*
X542068Y174822D01*
X541751Y175588D01*
X541246Y176246D01*
X540588Y176751D01*
X539822Y177068D01*
X539000Y177177D01*
X538178Y177068D01*
X537412Y176751D01*
X536754Y176246D01*
X536249Y175588D01*
X536135Y175313D01*
X506044D01*
X500057Y181299D01*
X500336Y181972D01*
X500471Y183000D01*
X500336Y184028D01*
X499939Y184985D01*
X499308Y185808D01*
X498486Y186439D01*
X497936Y186666D01*
Y187208D01*
X498486Y187435D01*
X499308Y188066D01*
X499939Y188889D01*
X500336Y189846D01*
X500419Y190480D01*
D02*
G37*
G36*
X618090Y131482D02*
X616857Y131319D01*
X615708Y130843D01*
X614721Y130086D01*
X613964Y129099D01*
X613488Y127950D01*
X613325Y126716D01*
X613488Y125483D01*
X613964Y124334D01*
X614721Y123347D01*
X615708Y122590D01*
X616857Y122114D01*
X618090Y121951D01*
X619324Y122114D01*
X620473Y122590D01*
X621460Y123347D01*
X622217Y124334D01*
X622693Y125483D01*
X622856Y126716D01*
X622693Y127950D01*
X622217Y129099D01*
X621460Y130086D01*
X620473Y130843D01*
X619324Y131319D01*
X618090Y131482D01*
D02*
G37*
G36*
X592500D02*
X591267Y131319D01*
X590117Y130843D01*
X589130Y130086D01*
X588373Y129099D01*
X587897Y127950D01*
X587735Y126716D01*
X587897Y125483D01*
X588373Y124334D01*
X589130Y123347D01*
X590117Y122590D01*
X591267Y122114D01*
X592500Y121951D01*
X593733Y122114D01*
X594883Y122590D01*
X595869Y123347D01*
X596627Y124334D01*
X597103Y125483D01*
X597265Y126716D01*
X597103Y127950D01*
X596627Y129099D01*
X595869Y130086D01*
X594883Y130843D01*
X593733Y131319D01*
X592500Y131482D01*
D02*
G37*
G36*
X581394Y119213D02*
Y114894D01*
X585713D01*
X585603Y115733D01*
X585127Y116883D01*
X584370Y117869D01*
X583383Y118627D01*
X582233Y119103D01*
X581394Y119213D01*
D02*
G37*
G36*
X580606D02*
X579767Y119103D01*
X578617Y118627D01*
X577631Y117869D01*
X576873Y116883D01*
X576397Y115733D01*
X576287Y114894D01*
X580606D01*
Y119213D01*
D02*
G37*
G36*
X585713Y114106D02*
X581394D01*
Y109787D01*
X582233Y109897D01*
X583383Y110373D01*
X584370Y111130D01*
X585127Y112117D01*
X585603Y113267D01*
X585713Y114106D01*
D02*
G37*
G36*
X580606D02*
X576287D01*
X576397Y113267D01*
X576873Y112117D01*
X577631Y111130D01*
X578617Y110373D01*
X579767Y109897D01*
X580606Y109787D01*
Y114106D01*
D02*
G37*
G36*
X633130Y351890D02*
X625059D01*
Y343819D01*
X627782D01*
Y125512D01*
X627882Y125010D01*
X628166Y124584D01*
X629687Y123063D01*
Y119070D01*
X628617Y118627D01*
X627631Y117869D01*
X626873Y116883D01*
X626397Y115733D01*
X626235Y114500D01*
X626397Y113267D01*
X626873Y112117D01*
X627631Y111130D01*
X628617Y110373D01*
X629767Y109897D01*
X631000Y109735D01*
X632233Y109897D01*
X633383Y110373D01*
X634370Y111130D01*
X635127Y112117D01*
X635603Y113267D01*
X635765Y114500D01*
X635603Y115733D01*
X635127Y116883D01*
X634370Y117869D01*
X633383Y118627D01*
X632313Y119070D01*
Y123606D01*
X632213Y124109D01*
X631928Y124534D01*
X630407Y126056D01*
Y343819D01*
X633130D01*
Y351890D01*
D02*
G37*
G36*
X618090Y113765D02*
X616857Y113603D01*
X615708Y113127D01*
X614721Y112370D01*
X613964Y111383D01*
X613488Y110233D01*
X613325Y109000D01*
X613488Y107767D01*
X613964Y106617D01*
X614721Y105631D01*
X615708Y104873D01*
X616857Y104397D01*
X618090Y104235D01*
X619324Y104397D01*
X620473Y104873D01*
X621460Y105631D01*
X622217Y106617D01*
X622693Y107767D01*
X622856Y109000D01*
X622693Y110233D01*
X622217Y111383D01*
X621460Y112370D01*
X620473Y113127D01*
X619324Y113603D01*
X618090Y113765D01*
D02*
G37*
G36*
X592500D02*
X591267Y113603D01*
X590117Y113127D01*
X589130Y112370D01*
X588373Y111383D01*
X587897Y110233D01*
X587735Y109000D01*
X587897Y107767D01*
X588373Y106617D01*
X589130Y105631D01*
X590117Y104873D01*
X591267Y104397D01*
X592500Y104235D01*
X593733Y104397D01*
X594883Y104873D01*
X595869Y105631D01*
X596627Y106617D01*
X597103Y107767D01*
X597265Y109000D01*
X597103Y110233D01*
X596627Y111383D01*
X595869Y112370D01*
X594883Y113127D01*
X593733Y113603D01*
X592500Y113765D01*
D02*
G37*
%LPD*%
G36*
X497832Y290333D02*
X498614Y289733D01*
X499524Y289356D01*
X500500Y289228D01*
X501476Y289356D01*
X502050Y289594D01*
X510687Y280956D01*
Y275376D01*
X510187Y275169D01*
X503906Y281450D01*
X504144Y282024D01*
X504272Y283000D01*
X504144Y283976D01*
X503767Y284886D01*
X503167Y285667D01*
X502386Y286267D01*
X501476Y286644D01*
X500500Y286772D01*
X499524Y286644D01*
X498614Y286267D01*
X497832Y285667D01*
X497313Y284990D01*
X496864Y285091D01*
X496813Y285119D01*
Y290881D01*
X496864Y290909D01*
X497313Y291010D01*
X497832Y290333D01*
D02*
G37*
G36*
Y280332D02*
X498614Y279733D01*
X499524Y279356D01*
X500500Y279228D01*
X501476Y279356D01*
X502050Y279594D01*
X508187Y273456D01*
Y258376D01*
X507687Y258169D01*
X504053Y261804D01*
X504144Y262024D01*
X504272Y263000D01*
X504144Y263976D01*
X503767Y264886D01*
X503167Y265668D01*
X502386Y266267D01*
X501476Y266644D01*
X500500Y266772D01*
X499524Y266644D01*
X498614Y266267D01*
X497832Y265668D01*
X497313Y264990D01*
X496864Y265091D01*
X496813Y265119D01*
Y270881D01*
X496864Y270909D01*
X497313Y271010D01*
X497832Y270333D01*
X498614Y269733D01*
X499524Y269356D01*
X500500Y269228D01*
X501476Y269356D01*
X502386Y269733D01*
X503167Y270333D01*
X503767Y271114D01*
X504144Y272024D01*
X504272Y273000D01*
X504144Y273976D01*
X503767Y274886D01*
X503167Y275668D01*
X502386Y276267D01*
X501476Y276644D01*
X500500Y276772D01*
X499524Y276644D01*
X498614Y276267D01*
X497832Y275668D01*
X497313Y274990D01*
X496864Y275091D01*
X496813Y275119D01*
Y280881D01*
X496864Y280909D01*
X497313Y281010D01*
X497832Y280332D01*
D02*
G37*
G36*
X526072Y247072D02*
X526498Y246787D01*
X527000Y246687D01*
X528381D01*
X528409Y246636D01*
X528510Y246187D01*
X527833Y245668D01*
X527233Y244886D01*
X526856Y243976D01*
X526728Y243000D01*
X526856Y242024D01*
X527080Y241484D01*
X526656Y241200D01*
X513313Y254544D01*
Y259124D01*
X513813Y259331D01*
X526072Y247072D01*
D02*
G37*
G36*
X528046Y236098D02*
X527931Y235822D01*
X527823Y235000D01*
X527931Y234178D01*
X528249Y233412D01*
X528754Y232754D01*
X529412Y232249D01*
X530178Y231931D01*
X531000Y231823D01*
X531822Y231931D01*
X532588Y232249D01*
X533187Y232708D01*
X533687Y232594D01*
Y227437D01*
X527919D01*
X510813Y244544D01*
Y252624D01*
X511313Y252831D01*
X528046Y236098D01*
D02*
G37*
G36*
X526063Y225581D02*
Y219563D01*
X533687D01*
Y208937D01*
X527919D01*
X508313Y228544D01*
Y242624D01*
X508813Y242831D01*
X526063Y225581D01*
D02*
G37*
D13*
X631000Y114500D02*
Y123606D01*
X629095Y125512D02*
Y348794D01*
Y125512D02*
X631000Y123606D01*
X541807Y291693D02*
X580197D01*
X530500Y303000D02*
X541807Y291693D01*
X580197D02*
X580472Y291417D01*
X514500Y260500D02*
X527000Y248000D01*
X533000D02*
X535000Y246000D01*
X527000Y248000D02*
X533000D01*
X514500Y260500D02*
Y349000D01*
X500500Y363000D02*
X514500Y349000D01*
X535000Y192000D02*
Y246000D01*
X530000Y187000D02*
X535000Y192000D01*
X496500Y183000D02*
X505500Y174000D01*
X539000D01*
X507000Y228000D02*
Y257000D01*
Y228000D02*
X530000Y205000D01*
X509500Y244000D02*
X530000Y223500D01*
X509500Y244000D02*
Y274000D01*
X512000Y254000D02*
Y281500D01*
Y254000D02*
X531000Y235000D01*
X585000Y194000D02*
X622500Y231500D01*
X585000Y204000D02*
X617000Y236000D01*
Y338000D01*
X622500Y231500D02*
Y328000D01*
X542000Y301500D02*
X598000D01*
X530500Y313000D02*
X542000Y301500D01*
X596970Y281000D02*
X603000D01*
X571970Y256000D02*
X596970Y281000D01*
X568000Y256000D02*
X571970D01*
X568000Y201000D02*
X585000Y184000D01*
X568000Y201000D02*
Y204500D01*
X571500Y227500D02*
X585000Y214000D01*
X568000Y227500D02*
X571500D01*
X576000Y233000D02*
X585000Y224000D01*
X576000Y233000D02*
Y238000D01*
X568000Y246000D02*
X576000Y238000D01*
X568000Y246000D02*
Y251000D01*
X495500Y258000D02*
X500500Y253000D01*
X489000Y363000D02*
X495500Y356500D01*
Y258000D02*
Y356500D01*
X500500Y293000D02*
X512000Y281500D01*
X500500Y283000D02*
X509500Y274000D01*
X501000Y263000D02*
X507000Y257000D01*
X500500Y263000D02*
X501000D01*
X530500Y292687D02*
X545500Y277687D01*
X530000Y373000D02*
X530500D01*
X553000Y387717D02*
X578590D01*
X535716D02*
X553000D01*
X521000Y373000D02*
X535716Y387717D01*
X500500Y373000D02*
X521000D01*
D24*
X629095Y347854D02*
D03*
D25*
Y378760D02*
D03*
D28*
X530000Y187000D02*
D03*
Y205000D02*
D03*
Y223500D02*
D03*
D29*
X540000Y187000D02*
D03*
X496500Y183000D02*
D03*
Y190874D02*
D03*
X540000Y205000D02*
D03*
Y223500D02*
D03*
X545500Y277374D02*
D03*
Y269500D02*
D03*
X573000Y357374D02*
D03*
Y349500D02*
D03*
X652492Y356500D02*
D03*
Y380122D02*
D03*
Y372248D02*
D03*
Y348626D02*
D03*
X639500Y380122D02*
D03*
Y372248D02*
D03*
Y356500D02*
D03*
Y348626D02*
D03*
X613500Y367500D02*
D03*
D30*
X581000Y114500D02*
D03*
X631000D02*
D03*
X592500Y126716D02*
D03*
X618090D02*
D03*
X592500Y109000D02*
D03*
X618090D02*
D03*
X578590Y370000D02*
D03*
X553000D02*
D03*
X578590Y387717D02*
D03*
X553000D02*
D03*
D32*
X568000Y204500D02*
D03*
Y227500D02*
D03*
Y251000D02*
D03*
D33*
Y209500D02*
D03*
Y214500D02*
D03*
Y232500D02*
D03*
Y237500D02*
D03*
Y256000D02*
D03*
Y261000D02*
D03*
D36*
X500500Y373000D02*
D03*
D37*
Y363000D02*
D03*
Y353000D02*
D03*
Y343000D02*
D03*
Y333000D02*
D03*
Y323000D02*
D03*
Y313000D02*
D03*
Y303000D02*
D03*
Y293000D02*
D03*
Y283000D02*
D03*
Y273000D02*
D03*
Y263000D02*
D03*
Y253000D02*
D03*
Y243000D02*
D03*
X530500Y373000D02*
D03*
Y363000D02*
D03*
Y353000D02*
D03*
Y343000D02*
D03*
Y333000D02*
D03*
Y323000D02*
D03*
Y313000D02*
D03*
Y303000D02*
D03*
Y293000D02*
D03*
Y283000D02*
D03*
Y273000D02*
D03*
Y263000D02*
D03*
Y253000D02*
D03*
Y243000D02*
D03*
D38*
X613500Y377500D02*
D03*
D39*
X580472Y291417D02*
D03*
X539000Y174000D02*
D03*
X531000Y235000D02*
D03*
X617000Y338000D02*
D03*
X622500Y328000D02*
D03*
X598000Y301500D02*
D03*
X603000Y281000D02*
D03*
D40*
X645000Y184000D02*
D03*
Y194000D02*
D03*
Y204000D02*
D03*
Y214000D02*
D03*
Y224000D02*
D03*
Y234000D02*
D03*
X585000D02*
D03*
Y224000D02*
D03*
Y214000D02*
D03*
Y204000D02*
D03*
Y194000D02*
D03*
Y184000D02*
D03*
D41*
X489000Y333000D02*
D03*
Y343000D02*
D03*
Y353000D02*
D03*
Y373000D02*
D03*
Y363000D02*
D03*
M02*
