G04*
G04 #@! TF.GenerationSoftware,Altium Limited,Altium Designer,20.2.3 (150)*
G04*
G04 Layer_Physical_Order=1*
G04 Layer_Color=255*
%FSLAX25Y25*%
%MOIN*%
G70*
G04*
G04 #@! TF.SameCoordinates,B26AD540-6E08-4B25-974C-445F4708D01E*
G04*
G04*
G04 #@! TF.FilePolarity,Positive*
G04*
G01*
G75*
%ADD13C,0.01000*%
%ADD15R,0.06496X0.04724*%
G04:AMPARAMS|DCode=16|XSize=23.62mil|YSize=57.09mil|CornerRadius=2.01mil|HoleSize=0mil|Usage=FLASHONLY|Rotation=180.000|XOffset=0mil|YOffset=0mil|HoleType=Round|Shape=RoundedRectangle|*
%AMROUNDEDRECTD16*
21,1,0.02362,0.05307,0,0,180.0*
21,1,0.01961,0.05709,0,0,180.0*
1,1,0.00402,-0.00980,0.02653*
1,1,0.00402,0.00980,0.02653*
1,1,0.00402,0.00980,-0.02653*
1,1,0.00402,-0.00980,-0.02653*
%
%ADD16ROUNDEDRECTD16*%
G04:AMPARAMS|DCode=17|XSize=23.62mil|YSize=57.09mil|CornerRadius=2.01mil|HoleSize=0mil|Usage=FLASHONLY|Rotation=90.000|XOffset=0mil|YOffset=0mil|HoleType=Round|Shape=RoundedRectangle|*
%AMROUNDEDRECTD17*
21,1,0.02362,0.05307,0,0,90.0*
21,1,0.01961,0.05709,0,0,90.0*
1,1,0.00402,0.02653,0.00980*
1,1,0.00402,0.02653,-0.00980*
1,1,0.00402,-0.02653,-0.00980*
1,1,0.00402,-0.02653,0.00980*
%
%ADD17ROUNDEDRECTD17*%
%ADD18R,0.04724X0.06496*%
%ADD19R,0.07087X0.05118*%
%ADD20R,0.04134X0.01772*%
%ADD21O,0.03937X0.02598*%
%ADD22R,0.03937X0.02598*%
%ADD23R,0.08000X0.08000*%
%ADD24R,0.06496X0.06496*%
%ADD25C,0.06496*%
%ADD28R,0.06299X0.06299*%
%ADD29C,0.06299*%
%ADD30C,0.07874*%
%ADD32R,0.03937X0.03937*%
%ADD33C,0.03937*%
%ADD36R,0.05906X0.05906*%
%ADD37C,0.05906*%
%ADD38R,0.06299X0.06299*%
%ADD39C,0.04724*%
%ADD40C,0.05118*%
%ADD41C,0.08268*%
G36*
X658500Y101000D02*
X547321D01*
X547190Y101223D01*
X547113Y101500D01*
X547242Y101693D01*
X547303Y102000D01*
Y116000D01*
X547242Y116307D01*
X547068Y116568D01*
X546807Y116742D01*
X546500Y116803D01*
X525500D01*
X525193Y116742D01*
X524932Y116568D01*
X524758Y116307D01*
X524697Y116000D01*
Y102000D01*
X524758Y101693D01*
X524887Y101500D01*
X524810Y101223D01*
X524679Y101000D01*
X479000D01*
Y393500D01*
X658500D01*
Y101000D01*
D02*
G37*
%LPC*%
G36*
X578590Y392482D02*
X577357Y392319D01*
X576208Y391843D01*
X575221Y391086D01*
X574464Y390099D01*
X573988Y388950D01*
X573825Y387717D01*
X573988Y386483D01*
X574464Y385334D01*
X575221Y384347D01*
X576208Y383590D01*
X577357Y383114D01*
X578590Y382951D01*
X579824Y383114D01*
X580973Y383590D01*
X581960Y384347D01*
X582717Y385334D01*
X583193Y386483D01*
X583356Y387717D01*
X583193Y388950D01*
X582717Y390099D01*
X581960Y391086D01*
X580973Y391843D01*
X579824Y392319D01*
X578590Y392482D01*
D02*
G37*
G36*
X553000D02*
X551767Y392319D01*
X550617Y391843D01*
X549630Y391086D01*
X548873Y390099D01*
X548397Y388950D01*
X548235Y387717D01*
X548397Y386483D01*
X548873Y385334D01*
X549630Y384347D01*
X550617Y383590D01*
X551767Y383114D01*
X553000Y382951D01*
X554233Y383114D01*
X555383Y383590D01*
X556369Y384347D01*
X557127Y385334D01*
X557603Y386483D01*
X557765Y387717D01*
X557603Y388950D01*
X557127Y390099D01*
X556369Y391086D01*
X555383Y391843D01*
X554233Y392319D01*
X553000Y392482D01*
D02*
G37*
G36*
X524161Y389535D02*
X517862D01*
Y381465D01*
X524161D01*
Y384187D01*
X525956D01*
X529187Y380956D01*
Y376505D01*
X528614Y376267D01*
X527833Y375668D01*
X527233Y374886D01*
X526995Y374313D01*
X512500D01*
X511998Y374213D01*
X511572Y373928D01*
X506956Y369313D01*
X504240D01*
Y376740D01*
X501813D01*
Y381456D01*
X504544Y384187D01*
X506839D01*
Y381465D01*
X513138D01*
Y389535D01*
X506839D01*
Y386813D01*
X504000D01*
X503498Y386713D01*
X503072Y386428D01*
X499572Y382928D01*
X499287Y382502D01*
X499187Y382000D01*
Y376740D01*
X496760D01*
Y374313D01*
X493783D01*
X493299Y375482D01*
X492510Y376510D01*
X491482Y377299D01*
X490285Y377795D01*
X489000Y377964D01*
X487715Y377795D01*
X486518Y377299D01*
X485490Y376510D01*
X484701Y375482D01*
X484205Y374285D01*
X484036Y373000D01*
X484205Y371715D01*
X484701Y370518D01*
X485490Y369490D01*
X486518Y368701D01*
X487592Y368257D01*
X487592Y368256D01*
Y367744D01*
X487592Y367743D01*
X486518Y367299D01*
X485490Y366510D01*
X484701Y365482D01*
X484205Y364285D01*
X484036Y363000D01*
X484205Y361715D01*
X484701Y360518D01*
X485490Y359490D01*
X486518Y358701D01*
X487592Y358257D01*
X487592Y358256D01*
Y357744D01*
X487592Y357743D01*
X486518Y357299D01*
X485490Y356510D01*
X484701Y355482D01*
X484205Y354285D01*
X484088Y353394D01*
X489000D01*
X493912D01*
X493795Y354285D01*
X493299Y355482D01*
X492510Y356510D01*
X491482Y357299D01*
X490408Y357743D01*
X490408Y357744D01*
Y358256D01*
X490408Y358257D01*
X491482Y358701D01*
X492510Y359490D01*
X493299Y360518D01*
X493795Y361715D01*
X493964Y363000D01*
X493795Y364285D01*
X493310Y365454D01*
X494544Y366687D01*
X498381D01*
X498409Y366636D01*
X498510Y366187D01*
X497832Y365668D01*
X497233Y364886D01*
X496856Y363976D01*
X496728Y363000D01*
X496856Y362024D01*
X497233Y361114D01*
X497832Y360332D01*
X498614Y359733D01*
X499524Y359356D01*
X500500Y359228D01*
X501476Y359356D01*
X502386Y359733D01*
X503167Y360332D01*
X503767Y361114D01*
X504144Y362024D01*
X504272Y363000D01*
X504144Y363976D01*
X503767Y364886D01*
X503167Y365668D01*
X502490Y366187D01*
X502591Y366636D01*
X502619Y366687D01*
X507500D01*
X508002Y366787D01*
X508428Y367072D01*
X513044Y371687D01*
X526995D01*
X527233Y371114D01*
X527833Y370333D01*
X528614Y369733D01*
X529524Y369356D01*
X530500Y369228D01*
X531476Y369356D01*
X532386Y369733D01*
X533168Y370333D01*
X533767Y371114D01*
X534005Y371687D01*
X535169D01*
Y370165D01*
X541974D01*
X543568Y368572D01*
X543580Y368564D01*
X553841Y358303D01*
Y349754D01*
X549094D01*
Y350114D01*
X543386D01*
Y346768D01*
X549094D01*
Y347128D01*
X553841D01*
Y335000D01*
Y325697D01*
X549456Y321313D01*
X548217D01*
X548206Y321366D01*
X547988Y321693D01*
X547661Y321911D01*
X547276Y321988D01*
X545935D01*
Y323012D01*
X547276D01*
X547661Y323089D01*
X547988Y323307D01*
X548206Y323634D01*
X548283Y324020D01*
Y325980D01*
X548206Y326366D01*
X547988Y326693D01*
X547661Y326911D01*
X547276Y326988D01*
X541968D01*
X541583Y326911D01*
X541256Y326693D01*
X541038Y326366D01*
X540961Y325980D01*
Y324020D01*
X541038Y323634D01*
X541256Y323307D01*
X541583Y323089D01*
X541968Y323012D01*
X543309D01*
Y321988D01*
X541968D01*
X541583Y321911D01*
X541256Y321693D01*
X541038Y321366D01*
X540961Y320980D01*
Y319020D01*
X541038Y318634D01*
X541256Y318307D01*
X541583Y318089D01*
X541968Y318012D01*
X547276D01*
X547661Y318089D01*
X547988Y318307D01*
X548206Y318634D01*
X548217Y318687D01*
X550000D01*
X550502Y318787D01*
X550928Y319072D01*
X556082Y324225D01*
X556366Y324651D01*
X556466Y325153D01*
Y333687D01*
X561187D01*
Y301358D01*
X561287Y300856D01*
X561572Y300430D01*
X566592Y295410D01*
X567017Y295126D01*
X567520Y295026D01*
X579922D01*
X579955Y294526D01*
X579650Y294486D01*
X578884Y294168D01*
X578226Y293664D01*
X577721Y293006D01*
X577404Y292239D01*
X577296Y291417D01*
X577404Y290595D01*
X577721Y289829D01*
X578226Y289171D01*
X578884Y288666D01*
X579650Y288349D01*
X580472Y288241D01*
X581295Y288349D01*
X582061Y288666D01*
X582719Y289171D01*
X583224Y289829D01*
X583541Y290595D01*
X583649Y291417D01*
X583569Y292027D01*
X593928Y302387D01*
X594213Y302813D01*
X594313Y303315D01*
Y306133D01*
X594366Y306144D01*
X594693Y306362D01*
X594911Y306689D01*
X594988Y307075D01*
Y312382D01*
X594911Y312768D01*
X594693Y313094D01*
X594554Y313187D01*
X594705Y313687D01*
X596295D01*
X596447Y313187D01*
X596307Y313094D01*
X596089Y312768D01*
X596012Y312382D01*
Y307075D01*
X596089Y306689D01*
X596307Y306362D01*
X596634Y306144D01*
X596687Y306133D01*
Y304365D01*
X596412Y304251D01*
X595754Y303746D01*
X595249Y303088D01*
X594932Y302322D01*
X594823Y301500D01*
X594932Y300678D01*
X595249Y299912D01*
X595754Y299254D01*
X596412Y298749D01*
X597178Y298431D01*
X598000Y298323D01*
X598822Y298431D01*
X599588Y298749D01*
X600246Y299254D01*
X600751Y299912D01*
X601068Y300678D01*
X601177Y301500D01*
X601068Y302322D01*
X600751Y303088D01*
X600246Y303746D01*
X599588Y304251D01*
X599313Y304365D01*
Y306133D01*
X599366Y306144D01*
X599693Y306362D01*
X599911Y306689D01*
X599988Y307075D01*
Y312382D01*
X599911Y312768D01*
X599693Y313094D01*
X599553Y313187D01*
X599705Y313687D01*
X601295D01*
X601446Y313187D01*
X601307Y313094D01*
X601089Y312768D01*
X601012Y312382D01*
Y310122D01*
X603000D01*
X604988D01*
Y312382D01*
X604911Y312768D01*
X604693Y313094D01*
X604554Y313187D01*
X604705Y313687D01*
X606295D01*
X606447Y313187D01*
X606307Y313094D01*
X606089Y312768D01*
X606012Y312382D01*
Y307075D01*
X606089Y306689D01*
X606307Y306362D01*
X606634Y306144D01*
X607020Y306067D01*
X608980D01*
X609366Y306144D01*
X609693Y306362D01*
X609911Y306689D01*
X609988Y307075D01*
Y312382D01*
X609911Y312768D01*
X609693Y313094D01*
X609553Y313187D01*
X609705Y313687D01*
X611295D01*
X611447Y313187D01*
X611307Y313094D01*
X611089Y312768D01*
X611012Y312382D01*
Y307075D01*
X611089Y306689D01*
X611307Y306362D01*
X611634Y306144D01*
X612020Y306067D01*
X613980D01*
X614366Y306144D01*
X614693Y306362D01*
X614911Y306689D01*
X614988Y307075D01*
Y312382D01*
X614911Y312768D01*
X614693Y313094D01*
X614553Y313187D01*
X614705Y313687D01*
X616295D01*
X616446Y313187D01*
X616307Y313094D01*
X616089Y312768D01*
X616012Y312382D01*
Y307075D01*
X616089Y306689D01*
X616307Y306362D01*
X616634Y306144D01*
X617020Y306067D01*
X618980D01*
X619366Y306144D01*
X619693Y306362D01*
X619911Y306689D01*
X619988Y307075D01*
Y312382D01*
X619911Y312768D01*
X619693Y313094D01*
X619554Y313187D01*
X619705Y313687D01*
X621295D01*
X621447Y313187D01*
X621307Y313094D01*
X621089Y312768D01*
X621012Y312382D01*
Y307075D01*
X621089Y306689D01*
X621307Y306362D01*
X621634Y306144D01*
X622020Y306067D01*
X623980D01*
X624187Y306108D01*
X624687Y305803D01*
Y293500D01*
X624787Y292998D01*
X625072Y292572D01*
X628072Y289572D01*
X628498Y289287D01*
X629000Y289187D01*
X632362D01*
Y286465D01*
X638661D01*
Y294535D01*
X632362D01*
Y291813D01*
X629544D01*
X627313Y294044D01*
Y301178D01*
X627775Y301369D01*
X629572Y299572D01*
X629998Y299287D01*
X630500Y299187D01*
X632350D01*
Y296465D01*
X638650D01*
Y304535D01*
X632350D01*
Y301813D01*
X631044D01*
X629313Y303544D01*
Y309678D01*
X629775Y309869D01*
X630072Y309572D01*
X630498Y309287D01*
X631000Y309187D01*
X632350D01*
Y306465D01*
X638650D01*
Y314535D01*
X632350D01*
Y311813D01*
X631544D01*
X631313Y312044D01*
Y316500D01*
X631213Y317002D01*
X630928Y317428D01*
X629131Y319225D01*
X629322Y319687D01*
X632339D01*
Y316465D01*
X638638D01*
Y324535D01*
X632339D01*
Y322313D01*
X580051D01*
X579549Y322213D01*
X579123Y321928D01*
X576539Y319344D01*
X576039Y319551D01*
Y320131D01*
X582595Y326687D01*
X592339D01*
Y323965D01*
X598638D01*
Y331687D01*
X603362D01*
Y323965D01*
X609661D01*
Y326687D01*
X619635D01*
X619749Y326412D01*
X620254Y325754D01*
X620912Y325249D01*
X621678Y324932D01*
X622500Y324823D01*
X623322Y324932D01*
X624088Y325249D01*
X624746Y325754D01*
X625251Y326412D01*
X625568Y327178D01*
X625677Y328000D01*
X625568Y328822D01*
X625251Y329588D01*
X624746Y330246D01*
X624088Y330751D01*
X623322Y331068D01*
X622500Y331177D01*
X621678Y331068D01*
X620912Y330751D01*
X620254Y330246D01*
X619749Y329588D01*
X619635Y329313D01*
X609661D01*
Y331687D01*
X626956D01*
X628072Y330572D01*
X628498Y330287D01*
X629000Y330187D01*
X632339D01*
Y327465D01*
X638638D01*
Y335535D01*
X632339D01*
Y332813D01*
X629544D01*
X628428Y333928D01*
X628002Y334213D01*
X627500Y334313D01*
X603661D01*
Y336687D01*
X614135D01*
X614249Y336412D01*
X614754Y335754D01*
X615412Y335249D01*
X616178Y334931D01*
X617000Y334823D01*
X617822Y334931D01*
X618588Y335249D01*
X619246Y335754D01*
X619751Y336412D01*
X620069Y337178D01*
X620177Y338000D01*
X620069Y338822D01*
X619751Y339588D01*
X619246Y340246D01*
X618588Y340751D01*
X617822Y341069D01*
X617000Y341177D01*
X616178Y341069D01*
X615412Y340751D01*
X614754Y340246D01*
X614249Y339588D01*
X614135Y339313D01*
X603661D01*
Y342035D01*
X597362D01*
Y334313D01*
X592638D01*
Y342035D01*
X586339D01*
Y339313D01*
X582051D01*
X581549Y339213D01*
X581123Y338928D01*
X576539Y334344D01*
X576039Y334551D01*
Y335980D01*
X575962Y336366D01*
X575744Y336693D01*
X575417Y336911D01*
X575032Y336988D01*
X569724D01*
X569339Y336911D01*
X569012Y336693D01*
X568794Y336366D01*
X568783Y336313D01*
X556466D01*
Y347128D01*
X564067D01*
X564569Y347228D01*
X564995Y347513D01*
X569057Y351574D01*
X569481Y351291D01*
X569164Y350528D01*
X569081Y349894D01*
X573000D01*
X576919D01*
X576836Y350528D01*
X576439Y351485D01*
X575808Y352308D01*
X574986Y352939D01*
X574436Y353166D01*
Y353708D01*
X574986Y353935D01*
X575808Y354566D01*
X576439Y355388D01*
X576836Y356346D01*
X576971Y357374D01*
X576836Y358402D01*
X576813Y358457D01*
X585592Y367236D01*
X586253Y366794D01*
X587067Y366632D01*
X588406D01*
X589220Y366794D01*
X589910Y367255D01*
X590371Y367946D01*
X590533Y368760D01*
X590371Y369574D01*
X589910Y370264D01*
X589220Y370725D01*
X588406Y370887D01*
X587067D01*
X586253Y370725D01*
X585563Y370264D01*
X585384Y369997D01*
X585184D01*
X584682Y369897D01*
X584256Y369612D01*
X583741Y369098D01*
X583268Y369331D01*
X583304Y369606D01*
X578984D01*
Y365287D01*
X579259Y365323D01*
X579493Y364849D01*
X575252Y360608D01*
X574986Y360813D01*
X574028Y361210D01*
X573000Y361345D01*
X571972Y361210D01*
X571014Y360813D01*
X570192Y360182D01*
X569561Y359360D01*
X569164Y358402D01*
X569029Y357374D01*
X569164Y356346D01*
X569443Y355673D01*
X563523Y349754D01*
X556466D01*
Y358846D01*
X556366Y359349D01*
X556082Y359775D01*
X550458Y365398D01*
X550742Y365822D01*
X551767Y365397D01*
X552606Y365287D01*
Y369606D01*
X548287D01*
X548397Y368767D01*
X548822Y367742D01*
X548398Y367458D01*
X545428Y370428D01*
X545416Y370436D01*
X543831Y372022D01*
Y376858D01*
X535169D01*
Y374313D01*
X534005D01*
X533767Y374886D01*
X533168Y375668D01*
X532386Y376267D01*
X531813Y376505D01*
Y381500D01*
X531713Y382002D01*
X531428Y382428D01*
X527428Y386428D01*
X527002Y386713D01*
X526500Y386813D01*
X524161D01*
Y389535D01*
D02*
G37*
G36*
X588406Y378368D02*
X587067D01*
X586253Y378206D01*
X585563Y377745D01*
X585101Y377054D01*
X584939Y376240D01*
X585101Y375426D01*
X585563Y374736D01*
X586253Y374275D01*
X587067Y374113D01*
X588406D01*
X589220Y374275D01*
X589910Y374736D01*
X590371Y375426D01*
X590533Y376240D01*
X590371Y377054D01*
X589910Y377745D01*
X589220Y378206D01*
X588406Y378368D01*
D02*
G37*
G36*
X578984Y374713D02*
Y370394D01*
X583304D01*
X583193Y371233D01*
X582717Y372383D01*
X581960Y373370D01*
X580973Y374127D01*
X579824Y374603D01*
X578984Y374713D01*
D02*
G37*
G36*
X553394D02*
Y370394D01*
X557713D01*
X557603Y371233D01*
X557127Y372383D01*
X556369Y373370D01*
X555383Y374127D01*
X554233Y374603D01*
X553394Y374713D01*
D02*
G37*
G36*
X552606D02*
X551767Y374603D01*
X550617Y374127D01*
X549630Y373370D01*
X548873Y372383D01*
X548397Y371233D01*
X548287Y370394D01*
X552606D01*
Y374713D01*
D02*
G37*
G36*
X578197D02*
X577357Y374603D01*
X576208Y374127D01*
X575221Y373370D01*
X574464Y372383D01*
X573988Y371233D01*
X573877Y370394D01*
X578197D01*
Y374713D01*
D02*
G37*
G36*
X642000Y386813D02*
X621500D01*
X620998Y386713D01*
X620572Y386428D01*
X615581Y381437D01*
X609563D01*
Y378813D01*
X606500D01*
X605998Y378713D01*
X605572Y378428D01*
X604697Y377553D01*
X602302D01*
X602174Y377745D01*
X601483Y378206D01*
X600669Y378368D01*
X599331D01*
X598517Y378206D01*
X597826Y377745D01*
X597698Y377553D01*
X597362D01*
X596859Y377453D01*
X596433Y377168D01*
X595572Y376307D01*
X595287Y375881D01*
X595187Y375379D01*
Y369346D01*
X595287Y368843D01*
X595572Y368418D01*
X596158Y367832D01*
X596584Y367547D01*
X597086Y367447D01*
X597244D01*
Y366673D01*
X598687D01*
Y365500D01*
X598787Y364998D01*
X599072Y364572D01*
X600285Y363358D01*
X600078Y362858D01*
X597669D01*
Y356165D01*
X606331D01*
Y362858D01*
X603313D01*
Y363500D01*
X603213Y364002D01*
X602928Y364428D01*
X601313Y366044D01*
Y366673D01*
X602756D01*
Y370847D01*
X602675D01*
X602408Y371346D01*
X602635Y371686D01*
X602718Y372106D01*
X600000D01*
Y372894D01*
X602718D01*
X602635Y373314D01*
X602174Y374004D01*
X602064Y374078D01*
X602033Y374585D01*
X602373Y374927D01*
X605240D01*
X605743Y375027D01*
X606168Y375312D01*
X607044Y376187D01*
X609563D01*
Y373563D01*
X617437D01*
Y379581D01*
X622044Y384187D01*
X637720D01*
X637820Y383687D01*
X637514Y383561D01*
X636692Y382930D01*
X636061Y382107D01*
X635664Y381150D01*
X635529Y380122D01*
X635664Y379094D01*
X636061Y378137D01*
X636692Y377314D01*
X637514Y376683D01*
X638064Y376456D01*
Y375914D01*
X637514Y375687D01*
X636692Y375056D01*
X636061Y374234D01*
X635664Y373276D01*
X635529Y372248D01*
X635664Y371220D01*
X636061Y370263D01*
X636386Y369838D01*
X636010Y369508D01*
X630849Y374669D01*
X630947Y375159D01*
X631130Y375235D01*
X631973Y375882D01*
X632619Y376725D01*
X633026Y377706D01*
X633165Y378760D01*
X633026Y379813D01*
X632619Y380795D01*
X631973Y381638D01*
X631130Y382285D01*
X630148Y382691D01*
X629095Y382830D01*
X628041Y382691D01*
X627059Y382285D01*
X626216Y381638D01*
X625569Y380795D01*
X625163Y379813D01*
X625024Y378760D01*
X625163Y377706D01*
X625569Y376725D01*
X626216Y375882D01*
X627059Y375235D01*
X627782Y374936D01*
Y374567D01*
X627882Y374065D01*
X628166Y373639D01*
X641212Y360594D01*
X640928Y360170D01*
X640528Y360336D01*
X639500Y360471D01*
X638472Y360336D01*
X637514Y359939D01*
X636692Y359308D01*
X636061Y358486D01*
X635664Y357528D01*
X635529Y356500D01*
X635664Y355472D01*
X636061Y354515D01*
X636692Y353692D01*
X637514Y353061D01*
X638064Y352834D01*
Y352292D01*
X637514Y352065D01*
X636692Y351434D01*
X636061Y350611D01*
X635664Y349654D01*
X635529Y348626D01*
X635664Y347598D01*
X636061Y346640D01*
X636692Y345818D01*
X637514Y345187D01*
X638472Y344790D01*
X639500Y344655D01*
X640528Y344790D01*
X641486Y345187D01*
X642308Y345818D01*
X642939Y346640D01*
X643336Y347598D01*
X643471Y348626D01*
X643336Y349654D01*
X642939Y350611D01*
X642308Y351434D01*
X641486Y352065D01*
X640936Y352292D01*
Y352834D01*
X641486Y353061D01*
X642308Y353692D01*
X642939Y354515D01*
X643336Y355472D01*
X643471Y356500D01*
X643336Y357528D01*
X643170Y357928D01*
X643594Y358211D01*
X644711Y357094D01*
Y355157D01*
X644811Y354655D01*
X645095Y354229D01*
X648954Y350371D01*
X648657Y349654D01*
X648521Y348626D01*
X648657Y347598D01*
X649053Y346640D01*
X649684Y345818D01*
X650507Y345187D01*
X651464Y344790D01*
X652492Y344655D01*
X653520Y344790D01*
X654478Y345187D01*
X655300Y345818D01*
X655931Y346640D01*
X656328Y347598D01*
X656463Y348626D01*
X656328Y349654D01*
X655931Y350611D01*
X655300Y351434D01*
X654478Y352065D01*
X653929Y352292D01*
Y352834D01*
X654478Y353061D01*
X655300Y353692D01*
X655931Y354515D01*
X656328Y355472D01*
X656463Y356500D01*
X656328Y357528D01*
X655931Y358486D01*
X655300Y359308D01*
X654478Y359939D01*
X653520Y360336D01*
X652492Y360471D01*
X651464Y360336D01*
X650507Y359939D01*
X649684Y359308D01*
X649053Y358486D01*
X648657Y357528D01*
X648521Y356500D01*
X648657Y355472D01*
X648928Y354816D01*
X648504Y354533D01*
X647336Y355701D01*
Y357638D01*
X647236Y358140D01*
X646952Y358566D01*
X636760Y368758D01*
X637090Y369134D01*
X637514Y368809D01*
X638472Y368412D01*
X639500Y368277D01*
X640528Y368412D01*
X641486Y368809D01*
X642308Y369440D01*
X642939Y370263D01*
X643336Y371220D01*
X643471Y372248D01*
X643336Y373276D01*
X642939Y374234D01*
X642308Y375056D01*
X641486Y375687D01*
X640936Y375914D01*
Y376456D01*
X641486Y376683D01*
X642308Y377314D01*
X642939Y378137D01*
X643336Y379094D01*
X643471Y380122D01*
X643336Y381150D01*
X643017Y381920D01*
X643440Y382203D01*
X644187Y381456D01*
Y379000D01*
X644287Y378498D01*
X644572Y378072D01*
X648865Y373779D01*
X648657Y373276D01*
X648521Y372248D01*
X648657Y371220D01*
X649053Y370263D01*
X649684Y369440D01*
X650507Y368809D01*
X651464Y368412D01*
X652492Y368277D01*
X653520Y368412D01*
X654478Y368809D01*
X655300Y369440D01*
X655931Y370263D01*
X656328Y371220D01*
X656463Y372248D01*
X656328Y373276D01*
X655931Y374234D01*
X655300Y375056D01*
X654478Y375687D01*
X653929Y375914D01*
Y376456D01*
X654478Y376683D01*
X655300Y377314D01*
X655931Y378136D01*
X656328Y379094D01*
X656463Y380122D01*
X656328Y381150D01*
X655931Y382107D01*
X655300Y382930D01*
X654478Y383561D01*
X653520Y383958D01*
X652492Y384093D01*
X651464Y383958D01*
X650507Y383561D01*
X649684Y382930D01*
X649053Y382107D01*
X648657Y381150D01*
X648521Y380122D01*
X648657Y379094D01*
X649053Y378136D01*
X649470Y377594D01*
X649093Y377263D01*
X646813Y379544D01*
Y382000D01*
X646713Y382502D01*
X646428Y382928D01*
X642928Y386428D01*
X642502Y386713D01*
X642000Y386813D01*
D02*
G37*
G36*
X557713Y369606D02*
X553394D01*
Y365287D01*
X554233Y365397D01*
X555383Y365873D01*
X556369Y366631D01*
X557127Y367617D01*
X557603Y368767D01*
X557713Y369606D01*
D02*
G37*
G36*
X578197D02*
X573877D01*
X573988Y368767D01*
X574464Y367617D01*
X575221Y366631D01*
X576208Y365873D01*
X577357Y365397D01*
X578197Y365287D01*
Y369606D01*
D02*
G37*
G36*
X530894Y366721D02*
Y363394D01*
X534221D01*
X534144Y363976D01*
X533767Y364886D01*
X533168Y365668D01*
X532386Y366267D01*
X531476Y366644D01*
X530894Y366721D01*
D02*
G37*
G36*
X530106D02*
X529524Y366644D01*
X528614Y366267D01*
X527833Y365668D01*
X527233Y364886D01*
X526856Y363976D01*
X526779Y363394D01*
X530106D01*
Y366721D01*
D02*
G37*
G36*
X543831Y365835D02*
X539894D01*
Y362882D01*
X543831D01*
Y365835D01*
D02*
G37*
G36*
X539106D02*
X535169D01*
Y362882D01*
X539106D01*
Y365835D01*
D02*
G37*
G36*
X534221Y362606D02*
X530894D01*
Y359279D01*
X531476Y359356D01*
X532386Y359733D01*
X533168Y360332D01*
X533767Y361114D01*
X534144Y362024D01*
X534221Y362606D01*
D02*
G37*
G36*
X530106D02*
X526779D01*
X526856Y362024D01*
X527233Y361114D01*
X527833Y360332D01*
X528614Y359733D01*
X529524Y359356D01*
X530106Y359279D01*
Y362606D01*
D02*
G37*
G36*
X543831Y362094D02*
X539894D01*
Y359142D01*
X543831D01*
Y362094D01*
D02*
G37*
G36*
X539106D02*
X535169D01*
Y359142D01*
X539106D01*
Y362094D01*
D02*
G37*
G36*
X613500Y371471D02*
X612472Y371336D01*
X611515Y370939D01*
X610692Y370308D01*
X610061Y369485D01*
X609664Y368528D01*
X609529Y367500D01*
X609664Y366472D01*
X610061Y365514D01*
X610692Y364692D01*
X611515Y364061D01*
X612187Y363782D01*
Y362661D01*
X609965D01*
Y356362D01*
X618035D01*
Y362661D01*
X614813D01*
Y363782D01*
X615485Y364061D01*
X616308Y364692D01*
X616939Y365514D01*
X617336Y366472D01*
X617471Y367500D01*
X617336Y368528D01*
X616939Y369485D01*
X616308Y370308D01*
X615485Y370939D01*
X614528Y371336D01*
X613500Y371471D01*
D02*
G37*
G36*
X549094Y355232D02*
X543386D01*
Y351886D01*
X549094D01*
Y355232D01*
D02*
G37*
G36*
X541614D02*
X535906D01*
Y351394D01*
X538760D01*
X541614D01*
Y351886D01*
Y355232D01*
D02*
G37*
G36*
X618035Y351638D02*
X614394D01*
Y348882D01*
X618035D01*
Y351638D01*
D02*
G37*
G36*
X613606D02*
X609965D01*
Y348882D01*
X613606D01*
Y351638D01*
D02*
G37*
G36*
X606331Y351835D02*
X602394D01*
Y348882D01*
X606331D01*
Y351835D01*
D02*
G37*
G36*
X601606D02*
X597669D01*
Y348882D01*
X601606D01*
Y351835D01*
D02*
G37*
G36*
X530500Y356772D02*
X529524Y356644D01*
X528614Y356267D01*
X527833Y355667D01*
X527233Y354886D01*
X526856Y353976D01*
X526728Y353000D01*
X526856Y352024D01*
X527233Y351114D01*
X527833Y350332D01*
X528614Y349733D01*
X529524Y349356D01*
X530500Y349228D01*
X531476Y349356D01*
X532050Y349594D01*
X534131Y347513D01*
X534557Y347228D01*
X535059Y347128D01*
X535906D01*
Y346768D01*
X541614D01*
Y349327D01*
Y350606D01*
X538760D01*
X535906D01*
Y350158D01*
X535405Y349951D01*
X533906Y351450D01*
X534144Y352024D01*
X534272Y353000D01*
X534144Y353976D01*
X533767Y354886D01*
X533168Y355667D01*
X532386Y356267D01*
X531476Y356644D01*
X530500Y356772D01*
D02*
G37*
G36*
X576919Y349106D02*
X573394D01*
Y345581D01*
X574028Y345664D01*
X574986Y346061D01*
X575808Y346692D01*
X576439Y347515D01*
X576836Y348472D01*
X576919Y349106D01*
D02*
G37*
G36*
X572606D02*
X569081D01*
X569164Y348472D01*
X569561Y347515D01*
X570192Y346692D01*
X571014Y346061D01*
X571972Y345664D01*
X572606Y345581D01*
Y349106D01*
D02*
G37*
G36*
X618035Y348095D02*
X614394D01*
Y345339D01*
X618035D01*
Y348095D01*
D02*
G37*
G36*
X613606D02*
X609965D01*
Y345339D01*
X613606D01*
Y348095D01*
D02*
G37*
G36*
X606331Y348095D02*
X602394D01*
Y345142D01*
X606331D01*
Y348095D01*
D02*
G37*
G36*
X601606D02*
X597669D01*
Y345142D01*
X601606D01*
Y348095D01*
D02*
G37*
G36*
X633130Y351890D02*
X625059D01*
Y343819D01*
X633130D01*
Y351890D01*
D02*
G37*
G36*
X500500Y356772D02*
X499524Y356644D01*
X498614Y356267D01*
X497832Y355667D01*
X497233Y354886D01*
X496856Y353976D01*
X496728Y353000D01*
X496856Y352024D01*
X497233Y351114D01*
X497832Y350332D01*
X498614Y349733D01*
X499524Y349356D01*
X500500Y349228D01*
X501476Y349356D01*
X502050Y349594D01*
X504687Y346956D01*
Y343679D01*
X504187Y343646D01*
X504144Y343976D01*
X503767Y344886D01*
X503167Y345668D01*
X502386Y346267D01*
X501476Y346644D01*
X500500Y346772D01*
X499524Y346644D01*
X498614Y346267D01*
X497832Y345668D01*
X497233Y344886D01*
X496995Y344313D01*
X493783D01*
X493299Y345482D01*
X492510Y346510D01*
X491482Y347299D01*
X490408Y347743D01*
X490408Y347744D01*
Y348256D01*
X490408Y348257D01*
X491482Y348701D01*
X492510Y349490D01*
X493299Y350518D01*
X493795Y351715D01*
X493912Y352606D01*
X489000D01*
X484088D01*
X484205Y351715D01*
X484701Y350518D01*
X485490Y349490D01*
X486518Y348701D01*
X487592Y348257D01*
X487592Y348256D01*
Y347744D01*
X487592Y347743D01*
X486518Y347299D01*
X485490Y346510D01*
X484701Y345482D01*
X484205Y344285D01*
X484036Y343000D01*
X484205Y341715D01*
X484701Y340518D01*
X485490Y339490D01*
X486518Y338701D01*
X487592Y338257D01*
X487592Y338256D01*
Y337744D01*
X487592Y337743D01*
X486518Y337299D01*
X485490Y336510D01*
X484701Y335482D01*
X484205Y334285D01*
X484036Y333000D01*
X484205Y331715D01*
X484701Y330518D01*
X485490Y329490D01*
X486518Y328701D01*
X487715Y328205D01*
X489000Y328036D01*
X490285Y328205D01*
X491482Y328701D01*
X492510Y329490D01*
X493299Y330518D01*
X493783Y331687D01*
X496995D01*
X497233Y331114D01*
X497832Y330332D01*
X498510Y329813D01*
X498409Y329364D01*
X498381Y329313D01*
X498000D01*
X497498Y329213D01*
X497072Y328928D01*
X494572Y326428D01*
X494287Y326002D01*
X494187Y325500D01*
Y320500D01*
X494287Y319998D01*
X494572Y319572D01*
X497072Y317072D01*
X497498Y316787D01*
X498000Y316687D01*
X498381D01*
X498409Y316636D01*
X498510Y316187D01*
X497832Y315668D01*
X497233Y314886D01*
X496856Y313976D01*
X496728Y313000D01*
X496856Y312024D01*
X497233Y311114D01*
X497832Y310332D01*
X498614Y309733D01*
X499524Y309356D01*
X500500Y309228D01*
X501476Y309356D01*
X502050Y309594D01*
X507187Y304456D01*
Y268876D01*
X506687Y268669D01*
X503906Y271450D01*
X504144Y272024D01*
X504272Y273000D01*
X504144Y273976D01*
X503767Y274886D01*
X503167Y275668D01*
X502386Y276267D01*
X501476Y276644D01*
X500500Y276772D01*
X499524Y276644D01*
X498614Y276267D01*
X497832Y275668D01*
X497233Y274886D01*
X496856Y273976D01*
X496728Y273000D01*
X496856Y272024D01*
X497233Y271114D01*
X497832Y270333D01*
X498614Y269733D01*
X499524Y269356D01*
X500500Y269228D01*
X501476Y269356D01*
X502050Y269594D01*
X504687Y266956D01*
Y263679D01*
X504187Y263646D01*
X504144Y263976D01*
X503767Y264886D01*
X503167Y265668D01*
X502386Y266267D01*
X501476Y266644D01*
X500500Y266772D01*
X499524Y266644D01*
X498614Y266267D01*
X497832Y265668D01*
X497233Y264886D01*
X496856Y263976D01*
X496728Y263000D01*
X496856Y262024D01*
X497233Y261114D01*
X497832Y260332D01*
X498614Y259733D01*
X499524Y259356D01*
X500500Y259228D01*
X501476Y259356D01*
X502386Y259733D01*
X503167Y260332D01*
X503767Y261114D01*
X504144Y262024D01*
X504187Y262354D01*
X504687Y262321D01*
Y253679D01*
X504187Y253646D01*
X504144Y253976D01*
X503767Y254886D01*
X503167Y255667D01*
X502386Y256267D01*
X501476Y256644D01*
X500500Y256772D01*
X499524Y256644D01*
X498614Y256267D01*
X497832Y255667D01*
X497233Y254886D01*
X496995Y254313D01*
X496331D01*
Y256858D01*
X487669D01*
Y254824D01*
X487512D01*
X487009Y254725D01*
X486584Y254440D01*
X484572Y252428D01*
X484287Y252002D01*
X484187Y251500D01*
Y194000D01*
X484287Y193498D01*
X484572Y193072D01*
X492943Y184701D01*
X492664Y184028D01*
X492529Y183000D01*
X492664Y181972D01*
X492943Y181299D01*
X487572Y175928D01*
X487287Y175502D01*
X487187Y175000D01*
Y130500D01*
X487287Y129998D01*
X487572Y129572D01*
X489072Y128072D01*
X489498Y127787D01*
X490000Y127687D01*
X491713D01*
Y124287D01*
X491713Y124213D01*
Y123787D01*
X491713Y123713D01*
Y119394D01*
X496500D01*
X501287D01*
Y123713D01*
X501287Y123787D01*
Y124213D01*
X501287Y124287D01*
Y133713D01*
X501287Y133787D01*
Y134213D01*
X501287Y134287D01*
Y137687D01*
X504000D01*
X504502Y137787D01*
X504928Y138072D01*
X509428Y142572D01*
X509713Y142998D01*
X509813Y143500D01*
Y155624D01*
X510313Y155831D01*
X548072Y118072D01*
X548498Y117787D01*
X549000Y117687D01*
X561713D01*
Y114287D01*
X561713Y114213D01*
Y113787D01*
X561713Y113713D01*
Y109394D01*
X566500D01*
X571287D01*
Y113713D01*
X571287Y113787D01*
Y114213D01*
X571287Y114287D01*
Y123787D01*
X571287D01*
Y124213D01*
X571287D01*
Y133787D01*
X571287D01*
Y134213D01*
X571287D01*
Y143787D01*
X571287D01*
Y144213D01*
X571287D01*
Y153787D01*
X571287D01*
Y154213D01*
X571287D01*
Y163787D01*
X561713D01*
Y160313D01*
X547044D01*
X522313Y185044D01*
Y268624D01*
X522813Y268831D01*
X527094Y264550D01*
X526856Y263976D01*
X526728Y263000D01*
X526856Y262024D01*
X527233Y261114D01*
X527833Y260332D01*
X528614Y259733D01*
X529524Y259356D01*
X530500Y259228D01*
X531476Y259356D01*
X532386Y259733D01*
X533168Y260332D01*
X533767Y261114D01*
X534144Y262024D01*
X534272Y263000D01*
X534144Y263976D01*
X533767Y264886D01*
X533168Y265668D01*
X532386Y266267D01*
X531476Y266644D01*
X530500Y266772D01*
X529524Y266644D01*
X528950Y266406D01*
X524869Y270487D01*
Y276067D01*
X525369Y276274D01*
X527094Y274550D01*
X526856Y273976D01*
X526728Y273000D01*
X526856Y272024D01*
X527233Y271114D01*
X527833Y270333D01*
X528614Y269733D01*
X529524Y269356D01*
X530500Y269228D01*
X531476Y269356D01*
X532386Y269733D01*
X533168Y270333D01*
X533767Y271114D01*
X534144Y272024D01*
X534272Y273000D01*
X534144Y273976D01*
X533767Y274886D01*
X533168Y275668D01*
X532386Y276267D01*
X531476Y276644D01*
X530500Y276772D01*
X529524Y276644D01*
X528950Y276406D01*
X527313Y278044D01*
Y280232D01*
X527786Y280393D01*
X527833Y280332D01*
X528614Y279733D01*
X529524Y279356D01*
X530106Y279279D01*
Y283000D01*
Y286721D01*
X529524Y286644D01*
X528614Y286267D01*
X527833Y285667D01*
X527786Y285607D01*
X527313Y285768D01*
Y290232D01*
X527786Y290393D01*
X527833Y290333D01*
X528614Y289733D01*
X529524Y289356D01*
X530500Y289228D01*
X531476Y289356D01*
X532386Y289733D01*
X533168Y290333D01*
X533767Y291114D01*
X534144Y292024D01*
X534272Y293000D01*
X534144Y293976D01*
X533767Y294886D01*
X533168Y295668D01*
X532386Y296267D01*
X531476Y296644D01*
X530500Y296772D01*
X529524Y296644D01*
X528614Y296267D01*
X527833Y295668D01*
X527786Y295607D01*
X527313Y295768D01*
Y300232D01*
X527786Y300393D01*
X527833Y300332D01*
X528614Y299733D01*
X529524Y299356D01*
X530500Y299228D01*
X531476Y299356D01*
X532386Y299733D01*
X533168Y300332D01*
X533767Y301114D01*
X534144Y302024D01*
X534272Y303000D01*
X534144Y303976D01*
X533767Y304886D01*
X533168Y305667D01*
X532399Y306257D01*
X532393Y306315D01*
X532458Y306779D01*
X532502Y306787D01*
X532928Y307072D01*
X538928Y313072D01*
X539213Y313498D01*
X539313Y314000D01*
Y327956D01*
X540044Y328687D01*
X541027D01*
X541038Y328634D01*
X541256Y328307D01*
X541583Y328089D01*
X541968Y328012D01*
X547276D01*
X547661Y328089D01*
X547988Y328307D01*
X548206Y328634D01*
X548283Y329020D01*
Y330980D01*
X548206Y331366D01*
X547988Y331693D01*
X547661Y331911D01*
X547276Y331988D01*
X541968D01*
X541583Y331911D01*
X541256Y331693D01*
X541038Y331366D01*
X541027Y331313D01*
X539500D01*
X538998Y331213D01*
X538572Y330928D01*
X537313Y329669D01*
X536813Y329876D01*
Y331956D01*
X538544Y333687D01*
X541027D01*
X541038Y333634D01*
X541256Y333307D01*
X541583Y333089D01*
X541968Y333012D01*
X547276D01*
X547661Y333089D01*
X547988Y333307D01*
X548206Y333634D01*
X548283Y334020D01*
Y335980D01*
X548206Y336366D01*
X547988Y336693D01*
X547661Y336911D01*
X547276Y336988D01*
X541968D01*
X541583Y336911D01*
X541256Y336693D01*
X541038Y336366D01*
X541027Y336313D01*
X538000D01*
X537498Y336213D01*
X537072Y335928D01*
X534703Y333559D01*
X534233Y333679D01*
X534178Y333720D01*
X534144Y333976D01*
X533767Y334886D01*
X533168Y335667D01*
X532386Y336267D01*
X531476Y336644D01*
X530500Y336772D01*
X529524Y336644D01*
X528614Y336267D01*
X527833Y335667D01*
X527233Y334886D01*
X526856Y333976D01*
X526728Y333000D01*
X526856Y332024D01*
X527094Y331450D01*
X517813Y322169D01*
X517313Y322376D01*
Y327956D01*
X528950Y339594D01*
X529524Y339356D01*
X530500Y339228D01*
X531476Y339356D01*
X532386Y339733D01*
X533168Y340333D01*
X533767Y341114D01*
X534144Y342024D01*
X534272Y343000D01*
X534144Y343976D01*
X533767Y344886D01*
X533168Y345668D01*
X532386Y346267D01*
X531476Y346644D01*
X530500Y346772D01*
X529524Y346644D01*
X528614Y346267D01*
X527833Y345668D01*
X527233Y344886D01*
X526856Y343976D01*
X526728Y343000D01*
X526856Y342024D01*
X527094Y341450D01*
X515072Y329428D01*
X514787Y329002D01*
X514687Y328500D01*
Y316376D01*
X514187Y316169D01*
X506428Y323928D01*
X506002Y324213D01*
X505500Y324313D01*
X504005D01*
X503767Y324886D01*
X503167Y325668D01*
X502490Y326187D01*
X502591Y326636D01*
X502619Y326687D01*
X503000D01*
X503502Y326787D01*
X503928Y327072D01*
X506928Y330072D01*
X507213Y330498D01*
X507313Y331000D01*
Y347500D01*
X507213Y348002D01*
X506928Y348428D01*
X503906Y351450D01*
X504144Y352024D01*
X504272Y353000D01*
X504144Y353976D01*
X503767Y354886D01*
X503167Y355667D01*
X502386Y356267D01*
X501476Y356644D01*
X500500Y356772D01*
D02*
G37*
G36*
X547276Y316988D02*
X545016D01*
Y315394D01*
X548283D01*
Y315980D01*
X548206Y316366D01*
X547988Y316693D01*
X547661Y316911D01*
X547276Y316988D01*
D02*
G37*
G36*
X544228D02*
X541968D01*
X541583Y316911D01*
X541256Y316693D01*
X541038Y316366D01*
X540961Y315980D01*
Y315394D01*
X544228D01*
Y316988D01*
D02*
G37*
G36*
X548283Y314606D02*
X545016D01*
Y313012D01*
X547276D01*
X547661Y313089D01*
X547988Y313307D01*
X548206Y313634D01*
X548283Y314020D01*
Y314606D01*
D02*
G37*
G36*
X544228D02*
X540961D01*
Y314020D01*
X541038Y313634D01*
X541256Y313307D01*
X541583Y313089D01*
X541968Y313012D01*
X544228D01*
Y314606D01*
D02*
G37*
G36*
X547276Y311988D02*
X541968D01*
X541583Y311911D01*
X541256Y311693D01*
X541038Y311366D01*
X540961Y310980D01*
Y309020D01*
X541038Y308634D01*
X541256Y308307D01*
X541583Y308089D01*
X541968Y308012D01*
X547276D01*
X547661Y308089D01*
X547988Y308307D01*
X548206Y308634D01*
X548217Y308687D01*
X548956D01*
X550901Y306743D01*
X550655Y306282D01*
X550500Y306313D01*
X548217D01*
X548206Y306366D01*
X547988Y306693D01*
X547661Y306911D01*
X547276Y306988D01*
X541968D01*
X541583Y306911D01*
X541256Y306693D01*
X541038Y306366D01*
X540961Y305980D01*
Y304020D01*
X541038Y303634D01*
X541256Y303307D01*
X541583Y303089D01*
X541968Y303012D01*
X547276D01*
X547661Y303089D01*
X547988Y303307D01*
X548206Y303634D01*
X548217Y303687D01*
X549956D01*
X551687Y301956D01*
Y267044D01*
X538956Y254313D01*
X534005D01*
X533767Y254886D01*
X533168Y255667D01*
X532386Y256267D01*
X531476Y256644D01*
X530500Y256772D01*
X529524Y256644D01*
X528614Y256267D01*
X527833Y255667D01*
X527233Y254886D01*
X526856Y253976D01*
X526728Y253000D01*
X526856Y252024D01*
X527233Y251114D01*
X527833Y250332D01*
X528614Y249733D01*
X529524Y249356D01*
X530500Y249228D01*
X531476Y249356D01*
X532386Y249733D01*
X533168Y250332D01*
X533767Y251114D01*
X534005Y251687D01*
X539500D01*
X540002Y251787D01*
X540428Y252072D01*
X553687Y265331D01*
X554187Y265124D01*
Y259544D01*
X538956Y244313D01*
X534005D01*
X533767Y244886D01*
X533168Y245668D01*
X532386Y246267D01*
X531476Y246644D01*
X530500Y246772D01*
X529524Y246644D01*
X528614Y246267D01*
X527833Y245668D01*
X527233Y244886D01*
X526856Y243976D01*
X526728Y243000D01*
X526856Y242024D01*
X527233Y241114D01*
X527833Y240333D01*
X528614Y239733D01*
X529524Y239356D01*
X530500Y239228D01*
X531476Y239356D01*
X532386Y239733D01*
X533168Y240333D01*
X533767Y241114D01*
X534005Y241687D01*
X539500D01*
X540002Y241787D01*
X540428Y242072D01*
X556428Y258072D01*
X556713Y258498D01*
X556813Y259000D01*
Y304000D01*
X556713Y304502D01*
X556428Y304928D01*
X550428Y310928D01*
X550002Y311213D01*
X549500Y311313D01*
X548217D01*
X548206Y311366D01*
X547988Y311693D01*
X547661Y311911D01*
X547276Y311988D01*
D02*
G37*
G36*
X604988Y309335D02*
X603394D01*
Y306067D01*
X603980D01*
X604366Y306144D01*
X604693Y306362D01*
X604911Y306689D01*
X604988Y307075D01*
Y309335D01*
D02*
G37*
G36*
X602606D02*
X601012D01*
Y307075D01*
X601089Y306689D01*
X601307Y306362D01*
X601634Y306144D01*
X602020Y306067D01*
X602606D01*
Y309335D01*
D02*
G37*
G36*
X649661Y335535D02*
X643362D01*
Y327465D01*
X647805D01*
X652818Y322451D01*
X653072Y322072D01*
X654687Y320456D01*
Y304014D01*
X654187Y303807D01*
X649673Y308321D01*
Y314535D01*
X643996D01*
X643789Y315035D01*
X645219Y316465D01*
X649661D01*
Y324535D01*
X643362D01*
Y318321D01*
X640572Y315530D01*
X640287Y315105D01*
X640187Y314602D01*
Y279544D01*
X595956Y235313D01*
X588078D01*
X587923Y235688D01*
X587387Y236387D01*
X586688Y236923D01*
X585874Y237260D01*
X585000Y237375D01*
X584126Y237260D01*
X583312Y236923D01*
X582613Y236387D01*
X582077Y235688D01*
X581740Y234874D01*
X581625Y234000D01*
X581740Y233126D01*
X582077Y232312D01*
X582613Y231613D01*
X583312Y231077D01*
X584126Y230740D01*
X585000Y230625D01*
X585874Y230740D01*
X586688Y231077D01*
X587387Y231613D01*
X587923Y232312D01*
X588078Y232687D01*
X596500D01*
X597002Y232787D01*
X597428Y233072D01*
X642428Y278072D01*
X642713Y278498D01*
X642813Y279000D01*
Y313604D01*
X642874Y313645D01*
X643374Y313378D01*
Y306465D01*
X647817D01*
X649246Y305035D01*
X649039Y304535D01*
X643374D01*
Y296465D01*
X647817D01*
X649246Y295035D01*
X649039Y294535D01*
X643386D01*
Y286465D01*
X645223D01*
Y280079D01*
X630072Y264928D01*
X629787Y264502D01*
X629687Y264000D01*
Y198000D01*
X629787Y197498D01*
X630072Y197072D01*
X641895Y185249D01*
X641740Y184874D01*
X641625Y184000D01*
X641740Y183126D01*
X642077Y182312D01*
X642613Y181613D01*
X643312Y181077D01*
X644126Y180740D01*
X645000Y180625D01*
X645874Y180740D01*
X646688Y181077D01*
X647387Y181613D01*
X647923Y182312D01*
X648260Y183126D01*
X648375Y184000D01*
X648260Y184874D01*
X647923Y185688D01*
X647387Y186387D01*
X646688Y186923D01*
X645874Y187260D01*
X645000Y187375D01*
X644126Y187260D01*
X643751Y187105D01*
X632313Y198544D01*
Y204155D01*
X632776Y204464D01*
X632813Y204460D01*
X633072Y204072D01*
X641895Y195249D01*
X641740Y194874D01*
X641625Y194000D01*
X641740Y193126D01*
X642077Y192312D01*
X642613Y191613D01*
X643312Y191077D01*
X644126Y190740D01*
X645000Y190625D01*
X645874Y190740D01*
X646688Y191077D01*
X647387Y191613D01*
X647923Y192312D01*
X648260Y193126D01*
X648375Y194000D01*
X648260Y194874D01*
X647923Y195688D01*
X647387Y196387D01*
X646688Y196923D01*
X645874Y197260D01*
X645000Y197375D01*
X644126Y197260D01*
X643751Y197105D01*
X635313Y205544D01*
Y221155D01*
X635777Y221464D01*
X635813Y221460D01*
X636072Y221072D01*
X641895Y215249D01*
X641740Y214874D01*
X641625Y214000D01*
X641740Y213126D01*
X642077Y212312D01*
X642613Y211613D01*
X643312Y211077D01*
X644126Y210740D01*
X645000Y210625D01*
X645874Y210740D01*
X646688Y211077D01*
X647387Y211613D01*
X647923Y212312D01*
X648260Y213126D01*
X648375Y214000D01*
X648260Y214874D01*
X647923Y215688D01*
X647387Y216387D01*
X646688Y216923D01*
X645874Y217260D01*
X645000Y217375D01*
X644126Y217260D01*
X643751Y217105D01*
X638313Y222544D01*
Y228155D01*
X638776Y228464D01*
X638813Y228460D01*
X639072Y228072D01*
X641895Y225249D01*
X641740Y224874D01*
X641625Y224000D01*
X641740Y223126D01*
X642077Y222312D01*
X642613Y221613D01*
X643312Y221077D01*
X644126Y220740D01*
X645000Y220625D01*
X645874Y220740D01*
X646688Y221077D01*
X647387Y221613D01*
X647923Y222312D01*
X648260Y223126D01*
X648375Y224000D01*
X648260Y224874D01*
X647923Y225688D01*
X647387Y226387D01*
X646688Y226923D01*
X645874Y227260D01*
X645000Y227375D01*
X644126Y227260D01*
X643751Y227105D01*
X641313Y229544D01*
Y232851D01*
X641813Y232950D01*
X642077Y232312D01*
X642613Y231613D01*
X643312Y231077D01*
X644126Y230740D01*
X645000Y230625D01*
X645874Y230740D01*
X646688Y231077D01*
X647387Y231613D01*
X647923Y232312D01*
X648260Y233126D01*
X648375Y234000D01*
X648260Y234874D01*
X647923Y235688D01*
X647387Y236387D01*
X646688Y236923D01*
X645874Y237260D01*
X645000Y237375D01*
X644126Y237260D01*
X643312Y236923D01*
X642613Y236387D01*
X642077Y235688D01*
X641813Y235050D01*
X641313Y235149D01*
Y259956D01*
X656928Y275572D01*
X657213Y275998D01*
X657313Y276500D01*
Y321000D01*
X657213Y321502D01*
X656928Y321928D01*
X655182Y323674D01*
X654928Y324054D01*
X649661Y329321D01*
Y335535D01*
D02*
G37*
G36*
X500894Y306721D02*
Y303394D01*
X504221D01*
X504144Y303976D01*
X503767Y304886D01*
X503167Y305667D01*
X502386Y306267D01*
X501476Y306644D01*
X500894Y306721D01*
D02*
G37*
G36*
X500106D02*
X499524Y306644D01*
X498614Y306267D01*
X497832Y305667D01*
X497233Y304886D01*
X496856Y303976D01*
X496779Y303394D01*
X500106D01*
Y306721D01*
D02*
G37*
G36*
X547276Y301988D02*
X545016D01*
Y300394D01*
X548283D01*
Y300980D01*
X548206Y301366D01*
X547988Y301693D01*
X547661Y301911D01*
X547276Y301988D01*
D02*
G37*
G36*
X544228D02*
X541968D01*
X541583Y301911D01*
X541256Y301693D01*
X541038Y301366D01*
X540961Y300980D01*
Y300394D01*
X544228D01*
Y301988D01*
D02*
G37*
G36*
X504221Y302606D02*
X500894D01*
Y299279D01*
X501476Y299356D01*
X502386Y299733D01*
X503167Y300332D01*
X503767Y301114D01*
X504144Y302024D01*
X504221Y302606D01*
D02*
G37*
G36*
X500106D02*
X496779D01*
X496856Y302024D01*
X497233Y301114D01*
X497832Y300332D01*
X498614Y299733D01*
X499524Y299356D01*
X500106Y299279D01*
Y302606D01*
D02*
G37*
G36*
X548283Y299606D02*
X545016D01*
Y298012D01*
X547276D01*
X547661Y298089D01*
X547988Y298307D01*
X548206Y298634D01*
X548283Y299020D01*
Y299606D01*
D02*
G37*
G36*
X544228D02*
X540961D01*
Y299020D01*
X541038Y298634D01*
X541256Y298307D01*
X541583Y298089D01*
X541968Y298012D01*
X544228D01*
Y299606D01*
D02*
G37*
G36*
X500500Y296772D02*
X499524Y296644D01*
X498614Y296267D01*
X497832Y295668D01*
X497233Y294886D01*
X496856Y293976D01*
X496728Y293000D01*
X496856Y292024D01*
X497233Y291114D01*
X497832Y290333D01*
X498614Y289733D01*
X499524Y289356D01*
X500500Y289228D01*
X501476Y289356D01*
X502386Y289733D01*
X503167Y290333D01*
X503767Y291114D01*
X504144Y292024D01*
X504272Y293000D01*
X504144Y293976D01*
X503767Y294886D01*
X503167Y295668D01*
X502386Y296267D01*
X501476Y296644D01*
X500500Y296772D01*
D02*
G37*
G36*
X623980Y291933D02*
X623394D01*
Y288665D01*
X624988D01*
Y290925D01*
X624911Y291311D01*
X624693Y291638D01*
X624366Y291856D01*
X623980Y291933D01*
D02*
G37*
G36*
X622606D02*
X622020D01*
X621634Y291856D01*
X621307Y291638D01*
X621089Y291311D01*
X621012Y290925D01*
Y288665D01*
X622606D01*
Y291933D01*
D02*
G37*
G36*
X598980D02*
X597020D01*
X596634Y291856D01*
X596307Y291638D01*
X596089Y291311D01*
X596012Y290925D01*
Y286467D01*
X595488Y285943D01*
X594988Y286150D01*
Y290925D01*
X594911Y291311D01*
X594693Y291638D01*
X594366Y291856D01*
X593980Y291933D01*
X592020D01*
X591634Y291856D01*
X591307Y291638D01*
X591089Y291311D01*
X591012Y290925D01*
Y286467D01*
X590488Y285943D01*
X589988Y286150D01*
Y290925D01*
X589911Y291311D01*
X589693Y291638D01*
X589366Y291856D01*
X588980Y291933D01*
X587020D01*
X586634Y291856D01*
X586307Y291638D01*
X586089Y291311D01*
X586012Y290925D01*
Y285618D01*
X586089Y285232D01*
X586307Y284906D01*
X586634Y284687D01*
X587020Y284611D01*
X588449D01*
X588656Y284111D01*
X575072Y270527D01*
X574787Y270101D01*
X574687Y269598D01*
Y237044D01*
X571456Y233813D01*
X570439D01*
X570407Y233890D01*
X569966Y234466D01*
X569673Y234690D01*
Y235310D01*
X569966Y235535D01*
X570407Y236110D01*
X570685Y236781D01*
X570728Y237106D01*
X568000D01*
X565272D01*
X565315Y236781D01*
X565593Y236110D01*
X566035Y235535D01*
X566327Y235310D01*
Y234690D01*
X566035Y234466D01*
X565593Y233890D01*
X565315Y233219D01*
X565220Y232500D01*
X565315Y231781D01*
X565593Y231110D01*
X565865Y230756D01*
X565618Y230256D01*
X565244D01*
Y224744D01*
X570756D01*
Y230256D01*
X570382D01*
X570135Y230756D01*
X570407Y231110D01*
X570439Y231187D01*
X572000D01*
X572502Y231287D01*
X572928Y231572D01*
X576928Y235572D01*
X577187Y235960D01*
X577223Y235964D01*
X577687Y235655D01*
Y216044D01*
X572456Y210813D01*
X570439D01*
X570407Y210890D01*
X569966Y211466D01*
X569673Y211690D01*
Y212310D01*
X569966Y212534D01*
X570407Y213110D01*
X570685Y213781D01*
X570728Y214106D01*
X568000D01*
X565272D01*
X565315Y213781D01*
X565593Y213110D01*
X566035Y212534D01*
X566327Y212310D01*
Y211690D01*
X566035Y211466D01*
X565593Y210890D01*
X565315Y210219D01*
X565220Y209500D01*
X565315Y208781D01*
X565593Y208110D01*
X565865Y207756D01*
X565618Y207256D01*
X565244D01*
Y203266D01*
X564782Y203074D01*
X563813Y204044D01*
Y228500D01*
X563713Y229002D01*
X563428Y229428D01*
X556928Y235928D01*
X556502Y236213D01*
X556000Y236313D01*
X533865D01*
X533751Y236588D01*
X533246Y237246D01*
X532588Y237751D01*
X531822Y238069D01*
X531000Y238177D01*
X530178Y238069D01*
X529412Y237751D01*
X528754Y237246D01*
X528249Y236588D01*
X527931Y235822D01*
X527823Y235000D01*
X527931Y234178D01*
X528249Y233412D01*
X528754Y232754D01*
X529412Y232249D01*
X530178Y231931D01*
X531000Y231823D01*
X531822Y231931D01*
X532588Y232249D01*
X533246Y232754D01*
X533751Y233412D01*
X533865Y233687D01*
X555456D01*
X561187Y227956D01*
Y203500D01*
X561287Y202998D01*
X561572Y202572D01*
X569687Y194456D01*
Y193161D01*
X566965D01*
Y186862D01*
X573179D01*
X591187Y168854D01*
Y131287D01*
X590117Y130843D01*
X589130Y130086D01*
X588373Y129099D01*
X588313Y128953D01*
X587813Y129052D01*
Y153500D01*
X587713Y154002D01*
X587428Y154428D01*
X573428Y168428D01*
X573002Y168713D01*
X572500Y168813D01*
X546044D01*
X541954Y172902D01*
X542068Y173178D01*
X542177Y174000D01*
X542068Y174822D01*
X541751Y175588D01*
X541246Y176246D01*
X540588Y176751D01*
X539822Y177068D01*
X539000Y177177D01*
X538178Y177068D01*
X537412Y176751D01*
X536754Y176246D01*
X536249Y175588D01*
X535931Y174822D01*
X535823Y174000D01*
X535931Y173178D01*
X536249Y172412D01*
X536754Y171754D01*
X537412Y171249D01*
X538178Y170931D01*
X539000Y170823D01*
X539822Y170931D01*
X540098Y171046D01*
X544572Y166572D01*
X544998Y166287D01*
X545500Y166187D01*
X571956D01*
X585187Y152956D01*
Y122500D01*
X585287Y121998D01*
X585572Y121572D01*
X591187Y115956D01*
Y113570D01*
X590117Y113127D01*
X589130Y112370D01*
X588373Y111383D01*
X587897Y110233D01*
X587735Y109000D01*
X587897Y107767D01*
X588373Y106617D01*
X589130Y105631D01*
X590117Y104873D01*
X591267Y104397D01*
X592500Y104235D01*
X593733Y104397D01*
X594883Y104873D01*
X595869Y105631D01*
X596627Y106617D01*
X597070Y107687D01*
X613521D01*
X613964Y106617D01*
X614721Y105631D01*
X615708Y104873D01*
X616857Y104397D01*
X618090Y104235D01*
X619324Y104397D01*
X620473Y104873D01*
X621460Y105631D01*
X622217Y106617D01*
X622693Y107767D01*
X622856Y109000D01*
X622693Y110233D01*
X622217Y111383D01*
X621460Y112370D01*
X620473Y113127D01*
X619324Y113603D01*
X618090Y113765D01*
X616857Y113603D01*
X615708Y113127D01*
X614721Y112370D01*
X613964Y111383D01*
X613521Y110313D01*
X597070D01*
X596627Y111383D01*
X595869Y112370D01*
X594883Y113127D01*
X593813Y113570D01*
Y116500D01*
X593713Y117002D01*
X593428Y117428D01*
X587813Y123044D01*
Y124381D01*
X588313Y124480D01*
X588373Y124334D01*
X589130Y123347D01*
X590117Y122590D01*
X591267Y122114D01*
X592500Y121951D01*
X593733Y122114D01*
X594883Y122590D01*
X595869Y123347D01*
X596627Y124334D01*
X597070Y125404D01*
X613521D01*
X613964Y124334D01*
X614721Y123347D01*
X615708Y122590D01*
X616857Y122114D01*
X618090Y121951D01*
X619324Y122114D01*
X620473Y122590D01*
X621460Y123347D01*
X622217Y124334D01*
X622693Y125483D01*
X622856Y126716D01*
X622693Y127950D01*
X622217Y129099D01*
X621460Y130086D01*
X620473Y130843D01*
X619324Y131319D01*
X618090Y131482D01*
X616857Y131319D01*
X615708Y130843D01*
X614721Y130086D01*
X613964Y129099D01*
X613521Y128029D01*
X597070D01*
X596627Y129099D01*
X595869Y130086D01*
X594883Y130843D01*
X593813Y131287D01*
Y169398D01*
X593713Y169900D01*
X593428Y170326D01*
X583152Y180602D01*
X583435Y181026D01*
X584126Y180740D01*
X585000Y180625D01*
X585874Y180740D01*
X586688Y181077D01*
X587387Y181613D01*
X587923Y182312D01*
X588260Y183126D01*
X588375Y184000D01*
X588260Y184874D01*
X587923Y185688D01*
X587387Y186387D01*
X586688Y186923D01*
X585874Y187260D01*
X585000Y187375D01*
X584126Y187260D01*
X583312Y186923D01*
X582613Y186387D01*
X582077Y185688D01*
X581740Y184874D01*
X581625Y184000D01*
X581740Y183126D01*
X582026Y182435D01*
X581602Y182152D01*
X575035Y188718D01*
Y193161D01*
X572313D01*
Y195000D01*
X572213Y195502D01*
X571928Y195928D01*
X566574Y201282D01*
X566765Y201744D01*
X570756D01*
Y207256D01*
X570382D01*
X570135Y207756D01*
X570407Y208110D01*
X570439Y208187D01*
X573000D01*
X573502Y208287D01*
X573928Y208572D01*
X579928Y214572D01*
X580213Y214998D01*
X580313Y215500D01*
Y267055D01*
X597868Y284611D01*
X598980D01*
X599366Y284687D01*
X599693Y284906D01*
X599911Y285232D01*
X599988Y285618D01*
Y290925D01*
X599911Y291311D01*
X599693Y291638D01*
X599366Y291856D01*
X598980Y291933D01*
D02*
G37*
G36*
X624988Y287878D02*
X623394D01*
Y284611D01*
X623980D01*
X624366Y284687D01*
X624693Y284906D01*
X624911Y285232D01*
X624988Y285618D01*
Y287878D01*
D02*
G37*
G36*
X622606D02*
X621012D01*
Y285618D01*
X621089Y285232D01*
X621307Y284906D01*
X621634Y284687D01*
X622020Y284611D01*
X622606D01*
Y287878D01*
D02*
G37*
G36*
X618980Y291933D02*
X617020D01*
X616634Y291856D01*
X616307Y291638D01*
X616089Y291311D01*
X616012Y290925D01*
Y285618D01*
X616089Y285232D01*
X616307Y284906D01*
X616634Y284687D01*
X617020Y284611D01*
X618980D01*
X619366Y284687D01*
X619693Y284906D01*
X619911Y285232D01*
X619988Y285618D01*
Y290925D01*
X619911Y291311D01*
X619693Y291638D01*
X619366Y291856D01*
X618980Y291933D01*
D02*
G37*
G36*
X613980D02*
X612020D01*
X611634Y291856D01*
X611307Y291638D01*
X611089Y291311D01*
X611012Y290925D01*
Y285618D01*
X611089Y285232D01*
X611307Y284906D01*
X611634Y284687D01*
X612020Y284611D01*
X613980D01*
X614366Y284687D01*
X614693Y284906D01*
X614911Y285232D01*
X614988Y285618D01*
Y290925D01*
X614911Y291311D01*
X614693Y291638D01*
X614366Y291856D01*
X613980Y291933D01*
D02*
G37*
G36*
X608980D02*
X607020D01*
X606634Y291856D01*
X606307Y291638D01*
X606089Y291311D01*
X606012Y290925D01*
Y285618D01*
X606089Y285232D01*
X606307Y284906D01*
X606634Y284687D01*
X607020Y284611D01*
X608980D01*
X609366Y284687D01*
X609693Y284906D01*
X609911Y285232D01*
X609988Y285618D01*
Y290925D01*
X609911Y291311D01*
X609693Y291638D01*
X609366Y291856D01*
X608980Y291933D01*
D02*
G37*
G36*
X530894Y286721D02*
Y283394D01*
X534221D01*
X534144Y283976D01*
X533767Y284886D01*
X533168Y285667D01*
X532386Y286267D01*
X531476Y286644D01*
X530894Y286721D01*
D02*
G37*
G36*
X534221Y282606D02*
X530894D01*
Y279279D01*
X531476Y279356D01*
X532386Y279733D01*
X533168Y280332D01*
X533767Y281114D01*
X534144Y282024D01*
X534221Y282606D01*
D02*
G37*
G36*
X500500Y286772D02*
X499524Y286644D01*
X498614Y286267D01*
X497832Y285667D01*
X497233Y284886D01*
X496856Y283976D01*
X496728Y283000D01*
X496856Y282024D01*
X497233Y281114D01*
X497832Y280332D01*
X498614Y279733D01*
X499524Y279356D01*
X500500Y279228D01*
X501476Y279356D01*
X502386Y279733D01*
X503167Y280332D01*
X503767Y281114D01*
X504144Y282024D01*
X504272Y283000D01*
X504144Y283976D01*
X503767Y284886D01*
X503167Y285667D01*
X502386Y286267D01*
X501476Y286644D01*
X500500Y286772D01*
D02*
G37*
G36*
X603980Y291933D02*
X602020D01*
X601634Y291856D01*
X601307Y291638D01*
X601089Y291311D01*
X601012Y290925D01*
Y285618D01*
X601089Y285232D01*
X601307Y284906D01*
X601634Y284687D01*
X601687Y284677D01*
Y283865D01*
X601412Y283751D01*
X600754Y283246D01*
X600249Y282588D01*
X599931Y281822D01*
X599823Y281000D01*
X599931Y280178D01*
X600249Y279412D01*
X600754Y278754D01*
X601412Y278249D01*
X602178Y277931D01*
X603000Y277823D01*
X603822Y277931D01*
X604588Y278249D01*
X605246Y278754D01*
X605751Y279412D01*
X606069Y280178D01*
X606177Y281000D01*
X606069Y281822D01*
X605751Y282588D01*
X605246Y283246D01*
X604588Y283751D01*
X604313Y283865D01*
Y284677D01*
X604366Y284687D01*
X604693Y284906D01*
X604911Y285232D01*
X604988Y285618D01*
Y290925D01*
X604911Y291311D01*
X604693Y291638D01*
X604366Y291856D01*
X603980Y291933D01*
D02*
G37*
G36*
X545500Y281345D02*
X544472Y281210D01*
X543514Y280813D01*
X542692Y280182D01*
X542061Y279360D01*
X541664Y278402D01*
X541529Y277374D01*
X541664Y276346D01*
X542061Y275389D01*
X542692Y274566D01*
X543514Y273935D01*
X544064Y273708D01*
Y273166D01*
X543514Y272939D01*
X542692Y272308D01*
X542061Y271485D01*
X541664Y270528D01*
X541581Y269894D01*
X545500D01*
X549419D01*
X549336Y270528D01*
X548939Y271485D01*
X548308Y272308D01*
X547485Y272939D01*
X546936Y273166D01*
Y273708D01*
X547485Y273935D01*
X548308Y274566D01*
X548939Y275389D01*
X549336Y276346D01*
X549471Y277374D01*
X549336Y278402D01*
X548939Y279360D01*
X548308Y280182D01*
X547485Y280813D01*
X546528Y281210D01*
X545500Y281345D01*
D02*
G37*
G36*
X549419Y269106D02*
X545894D01*
Y265581D01*
X546528Y265664D01*
X547485Y266061D01*
X548308Y266692D01*
X548939Y267514D01*
X549336Y268472D01*
X549419Y269106D01*
D02*
G37*
G36*
X545106D02*
X541581D01*
X541664Y268472D01*
X542061Y267514D01*
X542692Y266692D01*
X543514Y266061D01*
X544472Y265664D01*
X545106Y265581D01*
Y269106D01*
D02*
G37*
G36*
X568394Y263728D02*
Y261394D01*
X570728D01*
X570685Y261719D01*
X570407Y262390D01*
X569966Y262965D01*
X569390Y263407D01*
X568719Y263685D01*
X568394Y263728D01*
D02*
G37*
G36*
X567606D02*
X567281Y263685D01*
X566610Y263407D01*
X566035Y262965D01*
X565593Y262390D01*
X565315Y261719D01*
X565272Y261394D01*
X567606D01*
Y263728D01*
D02*
G37*
G36*
X596748Y275558D02*
X595359Y275421D01*
X594023Y275016D01*
X592792Y274358D01*
X591713Y273472D01*
X590827Y272393D01*
X590169Y271162D01*
X589764Y269826D01*
X589627Y268437D01*
X589764Y267048D01*
X590169Y265712D01*
X590827Y264481D01*
X591713Y263402D01*
X592792Y262516D01*
X594023Y261858D01*
X595359Y261453D01*
X596748Y261316D01*
X598137Y261453D01*
X599473Y261858D01*
X600704Y262516D01*
X601783Y263402D01*
X602669Y264481D01*
X603327Y265712D01*
X603732Y267048D01*
X603869Y268437D01*
X603732Y269826D01*
X603327Y271162D01*
X602669Y272393D01*
X601783Y273472D01*
X600704Y274358D01*
X599473Y275016D01*
X598137Y275421D01*
X596748Y275558D01*
D02*
G37*
G36*
X570728Y260606D02*
X568000D01*
X565272D01*
X565315Y260281D01*
X565593Y259610D01*
X566035Y259034D01*
X566327Y258810D01*
Y258190D01*
X566035Y257965D01*
X565593Y257390D01*
X565315Y256719D01*
X565220Y256000D01*
X565315Y255281D01*
X565593Y254610D01*
X565865Y254256D01*
X565618Y253756D01*
X565244D01*
Y248244D01*
X570756D01*
Y253756D01*
X570382D01*
X570135Y254256D01*
X570407Y254610D01*
X570685Y255281D01*
X570780Y256000D01*
X570685Y256719D01*
X570407Y257390D01*
X569966Y257965D01*
X569673Y258190D01*
Y258810D01*
X569966Y259034D01*
X570407Y259610D01*
X570685Y260281D01*
X570728Y260606D01*
D02*
G37*
G36*
X568394Y240228D02*
Y237894D01*
X570728D01*
X570685Y238219D01*
X570407Y238890D01*
X569966Y239465D01*
X569390Y239907D01*
X568719Y240185D01*
X568394Y240228D01*
D02*
G37*
G36*
X567606D02*
X567281Y240185D01*
X566610Y239907D01*
X566035Y239465D01*
X565593Y238890D01*
X565315Y238219D01*
X565272Y237894D01*
X567606D01*
Y240228D01*
D02*
G37*
G36*
X585000Y227375D02*
X584126Y227260D01*
X583312Y226923D01*
X582613Y226387D01*
X582077Y225688D01*
X581740Y224874D01*
X581625Y224000D01*
X581740Y223126D01*
X582077Y222312D01*
X582613Y221613D01*
X583312Y221077D01*
X584126Y220740D01*
X585000Y220625D01*
X585874Y220740D01*
X586688Y221077D01*
X587387Y221613D01*
X587923Y222312D01*
X588260Y223126D01*
X588375Y224000D01*
X588260Y224874D01*
X587923Y225688D01*
X587387Y226387D01*
X586688Y226923D01*
X585874Y227260D01*
X585000Y227375D01*
D02*
G37*
G36*
X540000Y227471D02*
X538972Y227336D01*
X538015Y226939D01*
X537192Y226308D01*
X536561Y225485D01*
X536164Y224528D01*
X536029Y223500D01*
X536164Y222472D01*
X536561Y221515D01*
X537192Y220692D01*
X538015Y220061D01*
X538972Y219664D01*
X540000Y219529D01*
X541028Y219664D01*
X541986Y220061D01*
X542808Y220692D01*
X543439Y221515D01*
X543718Y222187D01*
X545965D01*
Y220362D01*
X554035D01*
Y226661D01*
X545965D01*
Y224813D01*
X543718D01*
X543439Y225485D01*
X542808Y226308D01*
X541986Y226939D01*
X541028Y227336D01*
X540000Y227471D01*
D02*
G37*
G36*
X533937Y227437D02*
X526063D01*
Y219563D01*
X533937D01*
Y227437D01*
D02*
G37*
G36*
X568394Y217228D02*
Y214894D01*
X570728D01*
X570685Y215219D01*
X570407Y215890D01*
X569966Y216465D01*
X569390Y216907D01*
X568719Y217185D01*
X568394Y217228D01*
D02*
G37*
G36*
X567606D02*
X567281Y217185D01*
X566610Y216907D01*
X566035Y216465D01*
X565593Y215890D01*
X565315Y215219D01*
X565272Y214894D01*
X567606D01*
Y217228D01*
D02*
G37*
G36*
X554035Y215638D02*
X550394D01*
Y212882D01*
X554035D01*
Y215638D01*
D02*
G37*
G36*
X549606D02*
X545965D01*
Y212882D01*
X549606D01*
Y215638D01*
D02*
G37*
G36*
X585000Y217375D02*
X584126Y217260D01*
X583312Y216923D01*
X582613Y216387D01*
X582077Y215688D01*
X581740Y214874D01*
X581625Y214000D01*
X581740Y213126D01*
X582077Y212312D01*
X582613Y211613D01*
X583312Y211077D01*
X584126Y210740D01*
X585000Y210625D01*
X585874Y210740D01*
X586688Y211077D01*
X587387Y211613D01*
X587923Y212312D01*
X588260Y213126D01*
X588375Y214000D01*
X588260Y214874D01*
X587923Y215688D01*
X587387Y216387D01*
X586688Y216923D01*
X585874Y217260D01*
X585000Y217375D01*
D02*
G37*
G36*
X554035Y212094D02*
X550394D01*
Y209339D01*
X554035D01*
Y212094D01*
D02*
G37*
G36*
X549606D02*
X545965D01*
Y209339D01*
X549606D01*
Y212094D01*
D02*
G37*
G36*
X645394Y207324D02*
Y204394D01*
X648323D01*
X648260Y204874D01*
X647923Y205688D01*
X647387Y206387D01*
X646688Y206923D01*
X645874Y207260D01*
X645394Y207324D01*
D02*
G37*
G36*
X644606D02*
X644126Y207260D01*
X643312Y206923D01*
X642613Y206387D01*
X642077Y205688D01*
X641740Y204874D01*
X641677Y204394D01*
X644606D01*
Y207324D01*
D02*
G37*
G36*
X533937Y208937D02*
X526063D01*
Y201063D01*
X533937D01*
Y208937D01*
D02*
G37*
G36*
X648323Y203606D02*
X645394D01*
Y200676D01*
X645874Y200740D01*
X646688Y201077D01*
X647387Y201613D01*
X647923Y202312D01*
X648260Y203126D01*
X648323Y203606D01*
D02*
G37*
G36*
X644606D02*
X641677D01*
X641740Y203126D01*
X642077Y202312D01*
X642613Y201613D01*
X643312Y201077D01*
X644126Y200740D01*
X644606Y200676D01*
Y203606D01*
D02*
G37*
G36*
X585000Y207375D02*
X584126Y207260D01*
X583312Y206923D01*
X582613Y206387D01*
X582077Y205688D01*
X581740Y204874D01*
X581625Y204000D01*
X581740Y203126D01*
X582077Y202312D01*
X582613Y201613D01*
X583312Y201077D01*
X584126Y200740D01*
X585000Y200625D01*
X585874Y200740D01*
X586688Y201077D01*
X587387Y201613D01*
X587923Y202312D01*
X588260Y203126D01*
X588375Y204000D01*
X588260Y204874D01*
X587923Y205688D01*
X587387Y206387D01*
X586688Y206923D01*
X585874Y207260D01*
X585000Y207375D01*
D02*
G37*
G36*
Y197375D02*
X584126Y197260D01*
X583312Y196923D01*
X582613Y196387D01*
X582077Y195688D01*
X581740Y194874D01*
X581625Y194000D01*
X581740Y193126D01*
X582077Y192312D01*
X582613Y191613D01*
X583312Y191077D01*
X584126Y190740D01*
X585000Y190625D01*
X585874Y190740D01*
X586688Y191077D01*
X587387Y191613D01*
X587923Y192312D01*
X588260Y193126D01*
X588375Y194000D01*
X588260Y194874D01*
X587923Y195688D01*
X587387Y196387D01*
X586688Y196923D01*
X585874Y197260D01*
X585000Y197375D01*
D02*
G37*
G36*
X554035Y193161D02*
X545965D01*
Y188718D01*
X545059Y187813D01*
X543864D01*
X543836Y188028D01*
X543439Y188986D01*
X542808Y189808D01*
X541986Y190439D01*
X541028Y190836D01*
X540000Y190971D01*
X538972Y190836D01*
X538015Y190439D01*
X537192Y189808D01*
X536561Y188986D01*
X536164Y188028D01*
X536029Y187000D01*
X536164Y185972D01*
X536561Y185014D01*
X537192Y184192D01*
X538015Y183561D01*
X538972Y183164D01*
X540000Y183029D01*
X541028Y183164D01*
X541986Y183561D01*
X542808Y184192D01*
X543439Y185014D01*
X543511Y185187D01*
X545602D01*
X546105Y185287D01*
X546530Y185572D01*
X547821Y186862D01*
X554035D01*
Y193161D01*
D02*
G37*
G36*
X540000Y208971D02*
X538972Y208836D01*
X538015Y208439D01*
X537192Y207808D01*
X536561Y206985D01*
X536164Y206028D01*
X536029Y205000D01*
X536164Y203972D01*
X536561Y203014D01*
X537192Y202192D01*
X538015Y201561D01*
X538972Y201164D01*
X540000Y201029D01*
X541028Y201164D01*
X541986Y201561D01*
X542808Y202192D01*
X543439Y203014D01*
X543718Y203687D01*
X552456D01*
X559187Y196956D01*
Y193161D01*
X556465D01*
Y186862D01*
X564535D01*
Y193161D01*
X561813D01*
Y197500D01*
X561713Y198002D01*
X561428Y198428D01*
X553928Y205928D01*
X553502Y206213D01*
X553000Y206313D01*
X543718D01*
X543439Y206985D01*
X542808Y207808D01*
X541986Y208439D01*
X541028Y208836D01*
X540000Y208971D01*
D02*
G37*
G36*
X533937Y190937D02*
X526063D01*
Y183063D01*
X533937D01*
Y190937D01*
D02*
G37*
G36*
X564535Y182138D02*
X560894D01*
Y179382D01*
X564535D01*
Y182138D01*
D02*
G37*
G36*
X575035D02*
X571394D01*
Y179382D01*
X575035D01*
Y182138D01*
D02*
G37*
G36*
X554035D02*
X550394D01*
Y179382D01*
X554035D01*
Y182138D01*
D02*
G37*
G36*
X560106D02*
X556465D01*
Y179382D01*
X560106D01*
Y182138D01*
D02*
G37*
G36*
X570606D02*
X566965D01*
Y179382D01*
X570606D01*
Y182138D01*
D02*
G37*
G36*
X549606D02*
X545965D01*
Y179382D01*
X549606D01*
Y182138D01*
D02*
G37*
G36*
X575035Y178595D02*
X571394D01*
Y175839D01*
X575035D01*
Y178595D01*
D02*
G37*
G36*
X570606D02*
X566965D01*
Y175839D01*
X570606D01*
Y178595D01*
D02*
G37*
G36*
X564535D02*
X560894D01*
Y175839D01*
X564535D01*
Y178595D01*
D02*
G37*
G36*
X560106D02*
X556465D01*
Y175839D01*
X560106D01*
Y178595D01*
D02*
G37*
G36*
X554035D02*
X550394D01*
Y175839D01*
X554035D01*
Y178595D01*
D02*
G37*
G36*
X549606D02*
X545965D01*
Y175839D01*
X549606D01*
Y178595D01*
D02*
G37*
G36*
X581394Y119213D02*
Y114894D01*
X585713D01*
X585603Y115733D01*
X585127Y116883D01*
X584370Y117869D01*
X583383Y118627D01*
X582233Y119103D01*
X581394Y119213D01*
D02*
G37*
G36*
X580606D02*
X579767Y119103D01*
X578617Y118627D01*
X577631Y117869D01*
X576873Y116883D01*
X576397Y115733D01*
X576287Y114894D01*
X580606D01*
Y119213D01*
D02*
G37*
G36*
X585713Y114106D02*
X581394D01*
Y109787D01*
X582233Y109897D01*
X583383Y110373D01*
X584370Y111130D01*
X585127Y112117D01*
X585603Y113267D01*
X585713Y114106D01*
D02*
G37*
G36*
X580606D02*
X576287D01*
X576397Y113267D01*
X576873Y112117D01*
X577631Y111130D01*
X578617Y110373D01*
X579767Y109897D01*
X580606Y109787D01*
Y114106D01*
D02*
G37*
G36*
X631000Y119265D02*
X629767Y119103D01*
X628617Y118627D01*
X627631Y117869D01*
X626873Y116883D01*
X626397Y115733D01*
X626235Y114500D01*
X626397Y113267D01*
X626873Y112117D01*
X627631Y111130D01*
X628617Y110373D01*
X629767Y109897D01*
X631000Y109735D01*
X632233Y109897D01*
X633383Y110373D01*
X634370Y111130D01*
X635127Y112117D01*
X635603Y113267D01*
X635765Y114500D01*
X635603Y115733D01*
X635127Y116883D01*
X634370Y117869D01*
X633383Y118627D01*
X632233Y119103D01*
X631000Y119265D01*
D02*
G37*
G36*
X501287Y118606D02*
X496500D01*
X491713D01*
Y114287D01*
X491713Y114213D01*
Y113787D01*
X491713Y113713D01*
Y109394D01*
X496500D01*
X501287D01*
Y113713D01*
X501287Y113787D01*
Y114213D01*
X501287Y114287D01*
Y118606D01*
D02*
G37*
G36*
X571287Y108606D02*
X566894D01*
Y104213D01*
X571287D01*
Y108606D01*
D02*
G37*
G36*
X566106D02*
X561713D01*
Y104213D01*
X566106D01*
Y108606D01*
D02*
G37*
G36*
X501287D02*
X496894D01*
Y104213D01*
X501287D01*
Y108606D01*
D02*
G37*
G36*
X496106D02*
X491713D01*
Y104213D01*
X496106D01*
Y108606D01*
D02*
G37*
%LPD*%
G36*
X592339Y329313D02*
X582051D01*
X581549Y329213D01*
X581123Y328928D01*
X576539Y324344D01*
X576039Y324551D01*
Y325132D01*
X582595Y331687D01*
X592339D01*
Y329313D01*
D02*
G37*
G36*
X568794Y333634D02*
X569012Y333307D01*
X569339Y333089D01*
X569724Y333012D01*
X574500D01*
X574707Y332512D01*
X574183Y331988D01*
X569724D01*
X569339Y331911D01*
X569012Y331693D01*
X568794Y331366D01*
X568717Y330980D01*
Y329020D01*
X568794Y328634D01*
X569012Y328307D01*
X569339Y328089D01*
X569724Y328012D01*
X574500D01*
X574707Y327512D01*
X574183Y326988D01*
X569724D01*
X569339Y326911D01*
X569012Y326693D01*
X568794Y326366D01*
X568717Y325980D01*
Y324020D01*
X568794Y323634D01*
X569012Y323307D01*
X569339Y323089D01*
X569724Y323012D01*
X574500D01*
X574707Y322512D01*
X574183Y321988D01*
X569724D01*
X569339Y321911D01*
X569012Y321693D01*
X568794Y321366D01*
X568717Y320980D01*
Y319020D01*
X568794Y318634D01*
X569012Y318307D01*
X569339Y318089D01*
X569724Y318012D01*
X574500D01*
X574707Y317512D01*
X574183Y316988D01*
X569724D01*
X569339Y316911D01*
X569012Y316693D01*
X568794Y316366D01*
X568717Y315980D01*
Y314020D01*
X568794Y313634D01*
X569012Y313307D01*
X569339Y313089D01*
X569724Y313012D01*
X574500D01*
X574707Y312512D01*
X574183Y311988D01*
X569724D01*
X569339Y311911D01*
X569012Y311693D01*
X568794Y311366D01*
X568717Y310980D01*
Y309020D01*
X568794Y308634D01*
X569012Y308307D01*
X569339Y308089D01*
X569724Y308012D01*
X575032D01*
X575417Y308089D01*
X575744Y308307D01*
X575962Y308634D01*
X576039Y309020D01*
Y310132D01*
X578305Y312398D01*
X578805Y312191D01*
Y308536D01*
X576582Y306313D01*
X575973D01*
X575962Y306366D01*
X575744Y306693D01*
X575417Y306911D01*
X575032Y306988D01*
X569724D01*
X569339Y306911D01*
X569012Y306693D01*
X568794Y306366D01*
X568717Y305980D01*
Y304020D01*
X568794Y303634D01*
X569012Y303307D01*
X569339Y303089D01*
X569724Y303012D01*
X575032D01*
X575417Y303089D01*
X575744Y303307D01*
X575962Y303634D01*
X575973Y303687D01*
X577126D01*
X577628Y303787D01*
X578054Y304072D01*
X581046Y307064D01*
X581331Y307490D01*
X581431Y307992D01*
Y312074D01*
X581776Y312420D01*
X582237Y312173D01*
X582187Y311925D01*
Y304044D01*
X579456Y301313D01*
X575973D01*
X575962Y301366D01*
X575744Y301693D01*
X575417Y301911D01*
X575032Y301988D01*
X569724D01*
X569339Y301911D01*
X569012Y301693D01*
X568794Y301366D01*
X568717Y300980D01*
Y299020D01*
X568794Y298634D01*
X569012Y298307D01*
X569245Y298151D01*
X569176Y297686D01*
X569162Y297651D01*
X568063D01*
X563813Y301902D01*
Y333687D01*
X568783D01*
X568794Y333634D01*
D02*
G37*
G36*
X504687Y342321D02*
Y333679D01*
X504187Y333646D01*
X504144Y333976D01*
X503767Y334886D01*
X503167Y335667D01*
X502386Y336267D01*
X501476Y336644D01*
X500500Y336772D01*
X499524Y336644D01*
X498614Y336267D01*
X497832Y335667D01*
X497233Y334886D01*
X496995Y334313D01*
X493783D01*
X493299Y335482D01*
X492510Y336510D01*
X491482Y337299D01*
X490408Y337743D01*
X490408Y337744D01*
Y338256D01*
X490408Y338257D01*
X491482Y338701D01*
X492510Y339490D01*
X493299Y340518D01*
X493783Y341687D01*
X496995D01*
X497233Y341114D01*
X497832Y340333D01*
X498614Y339733D01*
X499524Y339356D01*
X500500Y339228D01*
X501476Y339356D01*
X502386Y339733D01*
X503167Y340333D01*
X503767Y341114D01*
X504144Y342024D01*
X504187Y342354D01*
X504687Y342321D01*
D02*
G37*
G36*
X534136Y330909D02*
X534187Y330881D01*
Y325119D01*
X534136Y325091D01*
X533687Y324990D01*
X533168Y325668D01*
X532386Y326267D01*
X531476Y326644D01*
X530500Y326772D01*
X529524Y326644D01*
X528614Y326267D01*
X527833Y325668D01*
X527233Y324886D01*
X526995Y324313D01*
X525500D01*
X524998Y324213D01*
X524572Y323928D01*
X520313Y319669D01*
X519813Y319876D01*
Y320456D01*
X528950Y329594D01*
X529524Y329356D01*
X530500Y329228D01*
X531476Y329356D01*
X532386Y329733D01*
X533168Y330332D01*
X533687Y331010D01*
X534136Y330909D01*
D02*
G37*
G36*
X512187Y314456D02*
Y311627D01*
X511687Y311420D01*
X504179Y318928D01*
X503753Y319213D01*
X503251Y319313D01*
X502619D01*
X502591Y319364D01*
X502490Y319813D01*
X503167Y320333D01*
X503767Y321114D01*
X504005Y321687D01*
X504956D01*
X512187Y314456D01*
D02*
G37*
G36*
X504687Y252321D02*
Y243679D01*
X504187Y243646D01*
X504144Y243976D01*
X503767Y244886D01*
X503167Y245668D01*
X502386Y246267D01*
X501476Y246644D01*
X500500Y246772D01*
X499524Y246644D01*
X498614Y246267D01*
X497832Y245668D01*
X497233Y244886D01*
X496856Y243976D01*
X496831Y243783D01*
X496331Y243816D01*
Y245835D01*
X492394D01*
Y242488D01*
Y239142D01*
X496331D01*
Y242184D01*
X496831Y242217D01*
X496856Y242024D01*
X497233Y241114D01*
X497832Y240333D01*
X498614Y239733D01*
X499524Y239356D01*
X500500Y239228D01*
X501476Y239356D01*
X501687Y239443D01*
X502187Y239109D01*
Y161544D01*
X501749Y161106D01*
X501287Y161297D01*
Y163787D01*
X491713D01*
Y154213D01*
X491713D01*
Y153787D01*
X491713D01*
Y144213D01*
X491713D01*
Y143787D01*
X491713D01*
Y134287D01*
X491713Y134213D01*
Y133787D01*
X491713Y133713D01*
Y130313D01*
X490544D01*
X489813Y131044D01*
Y174456D01*
X494799Y179443D01*
X495472Y179164D01*
X496500Y179029D01*
X497528Y179164D01*
X498486Y179561D01*
X499308Y180192D01*
X499939Y181015D01*
X500336Y181972D01*
X500471Y183000D01*
X500336Y184028D01*
X499939Y184985D01*
X499308Y185808D01*
X498486Y186439D01*
X497936Y186666D01*
Y187208D01*
X498486Y187435D01*
X499308Y188066D01*
X499939Y188889D01*
X500336Y189846D01*
X500419Y190480D01*
X496500D01*
X492581D01*
X492664Y189846D01*
X492980Y189083D01*
X492557Y188800D01*
X486813Y194544D01*
Y250956D01*
X487207Y251351D01*
X487669Y251160D01*
Y250165D01*
X496331D01*
Y251687D01*
X496995D01*
X497233Y251114D01*
X497832Y250332D01*
X498614Y249733D01*
X499524Y249356D01*
X500500Y249228D01*
X501476Y249356D01*
X502386Y249733D01*
X503167Y250332D01*
X503767Y251114D01*
X504144Y252024D01*
X504187Y252354D01*
X504687Y252321D01*
D02*
G37*
G36*
X545572Y158072D02*
X545998Y157787D01*
X546500Y157687D01*
X561713D01*
Y154213D01*
X561713D01*
Y153787D01*
X561713D01*
Y150313D01*
X547044D01*
X519813Y177544D01*
Y183124D01*
X520313Y183331D01*
X545572Y158072D01*
D02*
G37*
G36*
X504687Y159624D02*
Y152544D01*
X502456Y150313D01*
X501287D01*
Y153787D01*
X501287D01*
Y154213D01*
X501287D01*
Y157687D01*
X501500D01*
X502002Y157787D01*
X502428Y158072D01*
X504187Y159831D01*
X504687Y159624D01*
D02*
G37*
G36*
X545572Y148072D02*
X545998Y147787D01*
X546500Y147687D01*
X561713D01*
Y144213D01*
X561713D01*
Y143787D01*
X561713D01*
Y140313D01*
X548044D01*
X517313Y171044D01*
Y175624D01*
X517813Y175831D01*
X545572Y148072D01*
D02*
G37*
G36*
X507187Y150624D02*
Y144044D01*
X503456Y140313D01*
X501287D01*
Y143787D01*
X501287D01*
Y144213D01*
X501287D01*
Y147687D01*
X503000D01*
X503502Y147787D01*
X503928Y148072D01*
X506687Y150831D01*
X507187Y150624D01*
D02*
G37*
G36*
X546572Y138072D02*
X546998Y137787D01*
X547500Y137687D01*
X561713D01*
Y134213D01*
X561713D01*
Y133787D01*
X561713D01*
Y130313D01*
X549044D01*
X514813Y164544D01*
Y169124D01*
X515313Y169331D01*
X546572Y138072D01*
D02*
G37*
G36*
X547572Y128072D02*
X547998Y127787D01*
X548500Y127687D01*
X561713D01*
Y124213D01*
X561713D01*
Y123787D01*
X561713D01*
Y120313D01*
X549544D01*
X512313Y157544D01*
Y162624D01*
X512813Y162831D01*
X547572Y128072D01*
D02*
G37*
%LPC*%
G36*
X491606Y245835D02*
X487669D01*
Y242882D01*
X491606D01*
Y245835D01*
D02*
G37*
G36*
Y242094D02*
X487669D01*
Y239142D01*
X491606D01*
Y242094D01*
D02*
G37*
G36*
X496894Y194793D02*
Y191268D01*
X500419D01*
X500336Y191902D01*
X499939Y192859D01*
X499308Y193682D01*
X498486Y194313D01*
X497528Y194710D01*
X496894Y194793D01*
D02*
G37*
G36*
X496106D02*
X495472Y194710D01*
X494515Y194313D01*
X493692Y193682D01*
X493061Y192859D01*
X492664Y191902D01*
X492581Y191268D01*
X496106D01*
Y194793D01*
D02*
G37*
%LPD*%
D13*
X629095Y374567D02*
X646024Y357638D01*
X629095Y374567D02*
Y378760D01*
X646024Y355157D02*
Y357638D01*
Y355157D02*
X652492Y348689D01*
Y348626D02*
Y348689D01*
X581102Y291417D02*
X593000Y303315D01*
Y309728D01*
X580472Y291417D02*
X581102D01*
X555500Y259000D02*
Y304000D01*
X553000Y266500D02*
Y302500D01*
X539500Y253000D02*
X553000Y266500D01*
X549500Y310000D02*
X555500Y304000D01*
X550500Y305000D02*
X553000Y302500D01*
X539500Y243000D02*
X555500Y259000D01*
X567520Y296339D02*
X581457D01*
X562500Y301358D02*
Y335000D01*
Y301358D02*
X567520Y296339D01*
X588000Y302882D02*
Y309728D01*
X581457Y296339D02*
X588000Y302882D01*
X572378Y305000D02*
X577126D01*
X580118Y307992D02*
Y312618D01*
X577126Y305000D02*
X580118Y307992D01*
Y312618D02*
X584500Y317000D01*
X583500Y303500D02*
Y311925D01*
X586575Y315000D02*
X625000D01*
X583500Y311925D02*
X586575Y315000D01*
X583051Y319000D02*
X627500D01*
X572378Y310000D02*
X574051D01*
X583051Y319000D01*
X574051Y315000D02*
X580051Y321000D01*
X635488D01*
X572378Y315000D02*
X574051D01*
X572378Y320000D02*
X574051D01*
X582051Y328000D02*
X595488D01*
X574051Y320000D02*
X582051Y328000D01*
X574051Y325000D02*
X582051Y333000D01*
X572378Y325000D02*
X574051D01*
X582051Y333000D02*
X627500D01*
X574051Y330000D02*
X582051Y338000D01*
X572378Y330000D02*
X574051D01*
X582051Y338000D02*
X589488D01*
X626504Y317000D02*
X628000Y315504D01*
X584500Y317000D02*
X626504D01*
X628000Y303000D02*
Y315504D01*
X630000Y311500D02*
Y316500D01*
X627500Y319000D02*
X630000Y316500D01*
X626000Y293500D02*
Y314000D01*
X625000Y315000D02*
X626000Y314000D01*
X518500Y321000D02*
X530500Y333000D01*
X503251Y318000D02*
X511000Y310251D01*
X513500Y164000D02*
Y315000D01*
X500500Y313000D02*
X508500Y305000D01*
X518500Y177000D02*
Y321000D01*
X546500Y159000D02*
X566500D01*
X496500Y149000D02*
X503000D01*
X516000Y328500D02*
X530500Y343000D01*
X511000Y157000D02*
Y310251D01*
X503000Y149000D02*
X506000Y152000D01*
X518500Y177000D02*
X546500Y149000D01*
X506000Y152000D02*
Y267500D01*
X511000Y157000D02*
X549000Y119000D01*
X500500Y273000D02*
X506000Y267500D01*
X501500Y159000D02*
X503500Y161000D01*
X547500Y139000D02*
X566500D01*
X521000Y184500D02*
Y318500D01*
X516000Y170500D02*
X547500Y139000D01*
X503500Y161000D02*
Y240000D01*
X505500Y323000D02*
X513500Y315000D01*
X546500Y149000D02*
X566500D01*
X504000Y139000D02*
X508500Y143500D01*
X500500Y243000D02*
X503500Y240000D01*
X516000Y170500D02*
Y328500D01*
X508500Y143500D02*
Y305000D01*
X521000Y184500D02*
X546500Y159000D01*
X539000Y174000D02*
X545500Y167500D01*
X540000Y187000D02*
X540500Y186500D01*
X549114Y190012D02*
X550000D01*
X545602Y186500D02*
X549114Y190012D01*
X540500Y186500D02*
X545602D01*
X540000Y223500D02*
X549988D01*
X550000Y223512D01*
X562500Y203500D02*
Y228500D01*
X531000Y235000D02*
X556000D01*
X562500Y228500D01*
Y203500D02*
X571000Y195000D01*
Y190012D02*
Y195000D01*
Y190012D02*
X571886D01*
X573748Y188150D02*
Y188150D01*
X592500Y126716D02*
Y169398D01*
X573748Y188150D02*
X592500Y169398D01*
X571886Y190012D02*
X573748Y188150D01*
X540000Y205000D02*
X553000D01*
X560500Y190012D02*
Y197500D01*
X553000Y205000D02*
X560500Y197500D01*
X549000Y119000D02*
X566500D01*
X513500Y164000D02*
X548500Y129000D01*
X566500D01*
X523557Y314557D02*
X526956Y317956D01*
X523557Y269943D02*
Y314557D01*
Y269943D02*
X530500Y263000D01*
X521000Y318500D02*
X525500Y323000D01*
X545500Y167500D02*
X572500D01*
X586500Y153500D01*
X596500Y234000D02*
X641500Y279000D01*
Y314602D02*
X646512Y319614D01*
X641500Y279000D02*
Y314602D01*
X640000Y229000D02*
X645000Y224000D01*
X640000Y229000D02*
Y260500D01*
X656000Y276500D02*
Y321000D01*
X640000Y260500D02*
X656000Y276500D01*
X585000Y234000D02*
X596500D01*
X606512Y328000D02*
X622500D01*
X627500Y333000D02*
X629000Y331500D01*
X600512Y338000D02*
X617000D01*
X506000Y331000D02*
Y347500D01*
X503000Y328000D02*
X506000Y331000D01*
X498000Y328000D02*
X503000D01*
X495500Y325500D02*
X498000Y328000D01*
X495500Y320500D02*
X498000Y318000D01*
X495500Y320500D02*
Y325500D01*
X645000Y224000D02*
Y224000D01*
X654000Y323000D02*
X656000Y321000D01*
X646524Y309614D02*
X653500Y302638D01*
Y278500D02*
Y302638D01*
X637000Y262000D02*
X653500Y278500D01*
X654000Y323000D02*
Y323126D01*
X646512Y330614D02*
Y331500D01*
Y330614D02*
X654000Y323126D01*
X646535Y279535D02*
Y290500D01*
X631000Y198000D02*
Y264000D01*
X646535Y279535D01*
X634000Y263000D02*
X651000Y280000D01*
Y295138D01*
X634000Y205000D02*
Y263000D01*
X637000Y222000D02*
Y262000D01*
X646512Y319614D02*
Y320500D01*
X646524Y299614D02*
X651000Y295138D01*
X646524Y309614D02*
Y310500D01*
Y299614D02*
Y300500D01*
X598000Y301500D02*
Y309728D01*
X631000Y310500D02*
X635500D01*
X630000Y311500D02*
X631000Y310500D01*
X630500Y300500D02*
X635500D01*
X628000Y303000D02*
X630500Y300500D01*
X626000Y293500D02*
X629000Y290500D01*
X635512D01*
X629000Y331500D02*
X635488D01*
X580000Y300000D02*
X583500Y303500D01*
X574500Y300232D02*
Y300500D01*
Y300232D02*
X574732Y300000D01*
X580000D01*
X572378D02*
X574000D01*
X574500Y300500D01*
X562500Y335000D02*
X572378D01*
X555154D02*
X562500D01*
X603000Y281000D02*
Y288272D01*
X593000Y286598D02*
Y288272D01*
X576000Y269598D02*
X593000Y286598D01*
X598000D02*
Y288272D01*
X579000Y267598D02*
X598000Y286598D01*
X579000Y215500D02*
Y267598D01*
X572000Y232500D02*
X576000Y236500D01*
Y269598D01*
X568000Y232500D02*
X572000D01*
X568000Y209500D02*
X573000D01*
X579000Y215500D01*
X631000Y198000D02*
X645000Y184000D01*
X634000Y205000D02*
X645000Y194000D01*
X637000Y222000D02*
X645000Y214000D01*
X585000Y224000D02*
Y224000D01*
X586500Y122500D02*
Y153500D01*
Y122500D02*
X592500Y116500D01*
Y109000D02*
Y116500D01*
X559614Y190012D02*
X560500D01*
X592500Y109000D02*
X618090D01*
X592500Y126716D02*
X618090D01*
X555154Y335000D02*
Y348441D01*
Y325153D02*
Y335000D01*
X544622Y320000D02*
X550000D01*
X555154Y325153D01*
X544803Y324500D02*
X545000D01*
X544622Y324319D02*
X544803Y324500D01*
X544622Y320000D02*
Y324319D01*
Y324878D02*
Y325000D01*
Y324878D02*
X545000Y324500D01*
X530500Y243000D02*
X539500D01*
X544622Y310000D02*
X549500D01*
X544622Y305000D02*
X550500D01*
X530500Y253000D02*
X539500D01*
X545500Y277374D02*
Y277687D01*
X530500Y292687D02*
Y293000D01*
X526000Y277500D02*
X530500Y273000D01*
X528000Y308000D02*
X532000D01*
X538000Y314000D02*
Y328500D01*
X532000Y308000D02*
X538000Y314000D01*
X526000Y277500D02*
Y306000D01*
X528000Y308000D01*
X539500Y330000D02*
X544622D01*
X538000Y328500D02*
X539500Y330000D01*
X533456Y317956D02*
X535500Y320000D01*
Y332500D02*
X538000Y335000D01*
X535500Y320000D02*
Y332500D01*
X538000Y335000D02*
X544622D01*
X526956Y317956D02*
X533456D01*
X525500Y323000D02*
X530500D01*
X545000Y277874D02*
X545500Y277374D01*
X500500Y323000D02*
X505500D01*
X500500Y353000D02*
X506000Y347500D01*
X498000Y318000D02*
X503251D01*
X544500Y369500D02*
X555154Y358846D01*
Y348441D02*
Y358846D01*
X539500Y373512D02*
X540484D01*
X544496Y369500D01*
X544500D01*
X488500Y175000D02*
X496500Y183000D01*
X488500Y130500D02*
Y175000D01*
X485500Y194000D02*
X496500Y183000D01*
X485500Y194000D02*
Y251500D01*
X487512Y253512D02*
X492000D01*
X485500Y251500D02*
X487512Y253512D01*
X496500Y159000D02*
X501500D01*
X500500Y253000D02*
X501000D01*
X555154Y348441D02*
X564067D01*
X546240D02*
X555154D01*
X488500Y130500D02*
X490000Y129000D01*
X496500D01*
Y139000D02*
X504000D01*
X492512Y253000D02*
X500500D01*
X492000Y253512D02*
X492512Y253000D01*
X489000Y333000D02*
X500500D01*
X489000Y343000D02*
X500500D01*
X489000Y363000D02*
X494000Y368000D01*
X507500D01*
X512500Y373000D02*
X530500D01*
X507500Y368000D02*
X512500Y373000D01*
X489000D02*
X500500D01*
Y382000D01*
X504000Y385500D02*
X509988D01*
X500500Y382000D02*
X504000Y385500D01*
X521012D02*
X526500D01*
X530500Y373000D02*
Y381500D01*
X526500Y385500D02*
X530500Y381500D01*
X538988Y373000D02*
X539500Y373512D01*
X530500Y373000D02*
X538988D01*
X535059Y348441D02*
X538760D01*
X530500Y353000D02*
X535059Y348441D01*
X564067D02*
X573000Y357374D01*
X573874D01*
X585184Y368684D02*
X587660D01*
X573874Y357374D02*
X585184Y368684D01*
X587660D02*
X587736Y368760D01*
X597086D02*
X600000D01*
X596500Y369346D02*
Y375379D01*
X600000Y376240D02*
X605240D01*
X597362D02*
X600000D01*
X596500Y369346D02*
X597086Y368760D01*
X596500Y375379D02*
X597362Y376240D01*
X613500Y359012D02*
Y367500D01*
Y359012D02*
X614000Y358512D01*
X600000Y365500D02*
X602000Y363500D01*
Y358512D02*
Y363500D01*
X600000Y365500D02*
Y368760D01*
X605240Y376240D02*
X606500Y377500D01*
X613500D01*
X621500Y385500D02*
X642000D01*
X613500Y377500D02*
X621500Y385500D01*
X642000D02*
X645500Y382000D01*
Y379000D02*
Y382000D01*
Y379000D02*
X652252Y372248D01*
X652492D01*
D15*
X550000Y190012D02*
D03*
Y178988D02*
D03*
X571000Y190012D02*
D03*
Y178988D02*
D03*
X560500Y190012D02*
D03*
Y178988D02*
D03*
X550000Y223512D02*
D03*
Y212488D02*
D03*
X614000Y359512D02*
D03*
Y348488D02*
D03*
D16*
X588000Y288272D02*
D03*
X593000D02*
D03*
X598000D02*
D03*
X603000D02*
D03*
X608000D02*
D03*
X613000D02*
D03*
X618000D02*
D03*
X623000D02*
D03*
X588000Y309728D02*
D03*
X593000D02*
D03*
X598000D02*
D03*
X603000D02*
D03*
X608000D02*
D03*
X613000D02*
D03*
X618000D02*
D03*
X623000D02*
D03*
D17*
X544622Y335000D02*
D03*
Y330000D02*
D03*
Y325000D02*
D03*
Y320000D02*
D03*
Y315000D02*
D03*
Y310000D02*
D03*
Y305000D02*
D03*
Y300000D02*
D03*
X572378Y335000D02*
D03*
Y330000D02*
D03*
Y325000D02*
D03*
Y320000D02*
D03*
Y315000D02*
D03*
Y310000D02*
D03*
Y305000D02*
D03*
Y300000D02*
D03*
D18*
X595488Y328000D02*
D03*
X606512D02*
D03*
X635488Y320500D02*
D03*
X646512D02*
D03*
X635500Y310500D02*
D03*
X646524D02*
D03*
X635500Y300500D02*
D03*
X646524D02*
D03*
X635512Y290500D02*
D03*
X646535D02*
D03*
X589488Y338000D02*
D03*
X600512D02*
D03*
X635488Y331500D02*
D03*
X646512D02*
D03*
X521012Y385500D02*
D03*
X509988D02*
D03*
D19*
X492000Y253512D02*
D03*
Y242488D02*
D03*
X539500Y373512D02*
D03*
Y362488D02*
D03*
X602000Y348488D02*
D03*
Y359512D02*
D03*
D20*
X538760Y353559D02*
D03*
Y351000D02*
D03*
Y348441D02*
D03*
X546240D02*
D03*
Y353559D02*
D03*
D21*
X587736Y376240D02*
D03*
Y368760D02*
D03*
X600000Y376240D02*
D03*
Y372500D02*
D03*
D22*
Y368760D02*
D03*
D23*
X496500Y109000D02*
D03*
Y119000D02*
D03*
Y129000D02*
D03*
Y139000D02*
D03*
Y149000D02*
D03*
Y159000D02*
D03*
X566500D02*
D03*
Y149000D02*
D03*
Y139000D02*
D03*
Y129000D02*
D03*
Y119000D02*
D03*
Y109000D02*
D03*
D24*
X629095Y347854D02*
D03*
D25*
Y378760D02*
D03*
D28*
X530000Y187000D02*
D03*
Y205000D02*
D03*
Y223500D02*
D03*
D29*
X540000Y187000D02*
D03*
X496500Y183000D02*
D03*
Y190874D02*
D03*
X540000Y205000D02*
D03*
Y223500D02*
D03*
X545500Y277374D02*
D03*
Y269500D02*
D03*
X573000Y357374D02*
D03*
Y349500D02*
D03*
X652492Y356500D02*
D03*
Y380122D02*
D03*
Y372248D02*
D03*
Y348626D02*
D03*
X639500Y380122D02*
D03*
Y372248D02*
D03*
Y356500D02*
D03*
Y348626D02*
D03*
X613500Y367500D02*
D03*
D30*
X581000Y114500D02*
D03*
X631000D02*
D03*
X592500Y126716D02*
D03*
X618090D02*
D03*
X592500Y109000D02*
D03*
X618090D02*
D03*
X578590Y370000D02*
D03*
X553000D02*
D03*
X578590Y387717D02*
D03*
X553000D02*
D03*
D32*
X568000Y204500D02*
D03*
Y227500D02*
D03*
Y251000D02*
D03*
D33*
Y209500D02*
D03*
Y214500D02*
D03*
Y232500D02*
D03*
Y237500D02*
D03*
Y256000D02*
D03*
Y261000D02*
D03*
D36*
X500500Y373000D02*
D03*
D37*
Y363000D02*
D03*
Y353000D02*
D03*
Y343000D02*
D03*
Y333000D02*
D03*
Y323000D02*
D03*
Y313000D02*
D03*
Y303000D02*
D03*
Y293000D02*
D03*
Y283000D02*
D03*
Y273000D02*
D03*
Y263000D02*
D03*
Y253000D02*
D03*
Y243000D02*
D03*
X530500Y373000D02*
D03*
Y363000D02*
D03*
Y353000D02*
D03*
Y343000D02*
D03*
Y333000D02*
D03*
Y323000D02*
D03*
Y313000D02*
D03*
Y303000D02*
D03*
Y293000D02*
D03*
Y283000D02*
D03*
Y273000D02*
D03*
Y263000D02*
D03*
Y253000D02*
D03*
Y243000D02*
D03*
D38*
X613500Y377500D02*
D03*
D39*
X580472Y291417D02*
D03*
X539000Y174000D02*
D03*
X531000Y235000D02*
D03*
X617000Y338000D02*
D03*
X622500Y328000D02*
D03*
X598000Y301500D02*
D03*
X603000Y281000D02*
D03*
D40*
X645000Y184000D02*
D03*
Y194000D02*
D03*
Y204000D02*
D03*
Y214000D02*
D03*
Y224000D02*
D03*
Y234000D02*
D03*
X585000D02*
D03*
Y224000D02*
D03*
Y214000D02*
D03*
Y204000D02*
D03*
Y194000D02*
D03*
Y184000D02*
D03*
D41*
X489000Y333000D02*
D03*
Y343000D02*
D03*
Y353000D02*
D03*
Y373000D02*
D03*
Y363000D02*
D03*
M02*
